<svg xmlns="http://www.w3.org/2000/svg" viewBox="0 0 13.71 17.25"><title>arrowRight</title><g id="Layer_2" data-name="Layer 2"><g id="outline_Image" data-name="outline Image"><path d="M7.26,7.52c-1.54-.8-2.9-1.47-4.21-2.22A10.39,10.39,0,0,1,.9,3.82,2.18,2.18,0,0,1,.24,1.11a2.09,2.09,0,0,1,2.59-1,22.33,22.33,0,0,1,4.83,1.7,35,35,0,0,1,4.12,3,3.79,3.79,0,0,0,.69.43,1.79,1.79,0,0,1,.82,2.86,5.67,5.67,0,0,1-1.08,1.26c-2.92,2.43-5.84,4.85-8.79,7.24a2.21,2.21,0,0,1-1.37.63,2.56,2.56,0,0,1-1.69-.83,2.07,2.07,0,0,1-.09-1.86A17.7,17.7,0,0,1,2.9,11.32C4.2,10,5.65,8.91,7.26,7.52Z"/></g></g></svg>