<svg xmlns="http://www.w3.org/2000/svg" viewBox="0 0 41.68 41.86"><defs><style>.cls-1{fill:#fe9901;}.cls-2{fill:#fefdfa;}</style></defs><title>leftArrow</title><g id="Layer_2" data-name="Layer 2"><g id="Layer_1-2" data-name="Layer 1"><g id="arrow"><path class="cls-1" d="M22.61,0A21,21,0,0,1,41.48,16.69a60.77,60.77,0,0,1,.15,7.52A21,21,0,1,1,16.53.41C17.59.18,22.35,0,22.61,0Zm4.58,10.4c0-.37-.23-.49-.39-.65-.61-.63-1.28-1.21-1.85-1.87s-.85-.58-1.41,0Q17.41,14,11.21,20.11c-.66.64-.63,1,0,1.58,3.57,3.49,7.1,7,10.65,10.54.76.76,1.52,2.06,2.32,2.1s1.59-1.41,2.45-2.1c.69-.55.57-.92,0-1.49-3.09-3-6.12-6.08-9.21-9.09-.59-.58-.63-.9,0-1.5,3.09-3,6.14-6.06,9.2-9.11C26.82,10.82,27,10.58,27.19,10.4Z"/><path class="cls-2" d="M27.19,10.4c-.17.18-.37.42-.59.64-3.06,3.05-6.11,6.1-9.2,9.11-.61.6-.57.92,0,1.5,3.09,3,6.12,6.08,9.21,9.09.58.57.7.94,0,1.49-.86.69-1.51,2.15-2.45,2.1s-1.56-1.34-2.32-2.1c-3.55-3.52-7.08-7-10.65-10.54-.64-.62-.67-.94,0-1.58Q17.42,14,23.54,7.86c.56-.56.89-.58,1.41,0s1.24,1.24,1.85,1.87C27,9.91,27.2,10,27.19,10.4Z"/></g></g></g></svg>