<svg xmlns="http://www.w3.org/2000/svg" viewBox="0 0 42 42"><defs><style>.cls-1{fill:#fe9901;}.cls-2{fill:#fefdfa;}</style></defs><title>rightArrow</title><g id="Layer_2" data-name="Layer 2"><g id="Layer_1-2" data-name="Layer 1"><g id="arrow1"><path class="cls-1" d="M21,42C11,42,0,33,0,21,0,10,10,0,21,0,31.44,0,42,9,42,21A21.12,21.12,0,0,1,21,42ZM31.39,20.91c-.29-.31-.52-.58-.78-.83Q25.3,14.8,20,9.53c-.76-.76-1.56-2.06-2.34-2.06S16.12,8.84,15.3,9.52s-.66.94,0,1.57c3.07,3,6.06,6,9.13,9,.7.67.64,1,0,1.66-3.1,3-6.13,6.07-9.22,9.09-.5.49-.62.8,0,1.31a23.79,23.79,0,0,1,2,1.93c.36.39.59.48,1,0q6.36-6.34,12.75-12.67C31.06,21.29,31.2,21.11,31.39,20.91Z"/><path class="cls-2" d="M31.39,20.91c-.19.2-.33.38-.49.54q-6.37,6.33-12.75,12.67c-.44.44-.67.35-1,0a23.79,23.79,0,0,0-2-1.93c-.6-.51-.48-.82,0-1.31,3.09-3,6.12-6.09,9.22-9.09.66-.64.72-1,0-1.66-3.07-3-6.06-6-9.13-9-.65-.63-.7-1,0-1.57s1.56-2,2.34-2S19.22,8.77,20,9.53q5.32,5.26,10.63,10.55C30.87,20.33,31.1,20.6,31.39,20.91Z"/></g></g></g></svg>