<svg xmlns="http://www.w3.org/2000/svg" viewBox="0 0 307.52 850.88"><defs><style>.cls-1{fill:none;stroke:#000;stroke-miterlimit:10;}</style></defs><title>Asset 13</title><g id="Layer_2" data-name="Layer 2"><g id="Layer_1-2" data-name="Layer 1"><line class="cls-1" x1="0.28" y1="30.44" x2="101.28" y2="88.44"/><line class="cls-1" x1="13.28" y1="18.44" x2="133.28" y2="87.44"/><line class="cls-1" x1="21.28" y1="12.44" x2="0.28" y2="26.34"/><line class="cls-1" x1="31.28" y1="7.44" x2="175.28" y2="91.44"/><line class="cls-1" x1="79.28" y1="24.44" x2="183.28" y2="86.44"/><path class="cls-1" d="M89.28,19.44l124,73v13a2,2,0,1,1,0,4,2,2,0,0,1-2-2,2.15,2.15,0,0,1,2-2"/><path class="cls-1" d="M97.28,14.44l125,73v5a1,1,0,0,1,1,1,1,1,0,0,1-1,1,1.06,1.06,0,0,1-1-1,1,1,0,0,1,1-1"/><polyline class="cls-1" points="115.28 14.44 231.28 82.44 231.28 87.44"/><path class="cls-1" d="M120.28,6.44l120,71v16a2,2,0,1,1,0,4,2,2,0,0,1,0-4"/><polyline class="cls-1" points="135.28 5.43 249.28 72.44 249.28 79.44"/><path class="cls-1" d="M156.28,10.44c1,1,102,57,102,57v49a2.72,2.72,0,0,1,2,3,2.57,2.57,0,0,1-2,2c-1.49.28-3-1-3-2s0-3,3-3"/><path class="cls-1" d="M266.28,146.44a1.93,1.93,0,0,0-2,2,2.19,2.19,0,0,0,2,2,2,2,0,0,0,2-2,2,2,0,0,0-2-2v-84s-96-55-97-55l-111,66v6"/><path class="cls-1" d="M179.28,2.44l96,55v92l-4,6v19a3,3,0,1,1-3,3,2.94,2.94,0,0,1,3-3"/><path class="cls-1" d="M275.28,117.44h8v10a2,2,0,1,1-2,2,2,2,0,0,1,2-2"/><path class="cls-1" d="M191.28.44l92,52v9h9v103l-4,5v64a2.72,2.72,0,0,1,2,3,2.54,2.54,0,0,1-2,2,2.73,2.73,0,0,1-3-2,2.94,2.94,0,0,1,3-3"/><polyline class="cls-1" points="228.28 10.44 292.28 47.44 292.28 62.84"/><polyline class="cls-1" points="243.28 10.44 300.28 42.44 300.28 58.44"/><line class="cls-1" x1="261.28" y1="10.44" x2="307.28" y2="36.15"/><line class="cls-1" x1="272.28" y1="6.44" x2="307.28" y2="26.34"/><path class="cls-1" d="M300.28,21.44l-109,65v38h-13a2,2,0,1,1-2-2,2,2,0,0,1,2,2"/><line class="cls-1" x1="289.28" y1="17.44" x2="166.28" y2="91.44"/><line class="cls-1" x1="275.28" y1="15.44" x2="150.28" y2="90.44"/><line class="cls-1" x1="265.28" y1="11.44" x2="142.28" y2="84.44"/><path class="cls-1" d="M248.28,11.44l-128,76v37h8a2,2,0,1,1,2,2,2,2,0,0,1-2-2"/><line class="cls-1" x1="110.28" y1="83.44" x2="231.28" y2="11.44"/><path class="cls-1" d="M204.28,15.44l-119,72v4a2,2,0,1,1-2,2,2,2,0,0,1,2-2"/><polyline class="cls-1" points="196.03 12.04 76.28 82.44 76.28 88.44"/><path class="cls-1" d="M181.28,11.44l-113,66v16a2,2,0,1,1-2,2,2,2,0,0,1,2-2"/><path class="cls-1" d="M156.28,5.44l-106,62v41a2,2,0,1,1-2,2,2,2,0,0,1,2-2"/><path class="cls-1" d="M144.28,1.44l-102,61v80a2,2,0,1,1-2,2,2,2,0,0,1,2-2"/><path class="cls-1" d="M127.28.44l-93,57-1,92,4,6v19a2,2,0,1,1-2,2,2,2,0,0,1,2-2"/><path class="cls-1" d="M33.28,117.44h-8v10a2,2,0,1,1-2,2,2,2,0,0,1,2-2"/><path class="cls-1" d="M22.25,43.06l-7,4.38v116l6,7v64a2,2,0,1,1-2,2,2,2,0,0,1,2-2"/><polyline class="cls-1" points="24.28 52.44 24.28 60.44 15.28 60.44"/><polyline class="cls-1" points="22.4 33 7.28 42.44 7.28 57.44"/><line class="cls-1" x1="21.28" y1="23.04" x2="0.28" y2="36.15"/><polyline class="cls-1" points="271.28 165.18 264.28 165.44 257.28 178.44 249.28 178.44"/><polyline class="cls-1" points="37.28 165.18 44.28 165.44 51.28 178.44 58.28 178.44"/><line class="cls-1" x1="85.28" y1="49.44" x2="158.28" y2="92.44"/><path class="cls-1" d="M.28,20.44l110,63v15a2,2,0,1,1-2,2,2,2,0,0,1,2-2"/><path class="cls-1" d="M39.28,319.44v45l-16,16v53a2,2,0,1,1-2,2,2,2,0,0,1,2-2"/><path class="cls-1" d="M48.28,324.44v51l-10,16v19a2,2,0,1,1-2,2,2,2,0,0,1,2-2"/><path class="cls-1" d="M72.28,338.44v40a2,2,0,1,1-2,2,2,2,0,0,1,2-2"/><path class="cls-1" d="M72.28,347.44l-12,10v37a2,2,0,1,1-2,2,2,2,0,0,1,2-2"/><path class="cls-1" d="M79.28,343.44v66l6,9h12a2,2,0,1,1,2,2,2,2,0,0,1-2-2"/><path class="cls-1" d="M224.28,367.44v44l-5,8h-13a2,2,0,1,1-2-2,2,2,0,0,1,2,2"/><path class="cls-1" d="M250.28,352.44v30l10,11v24a2,2,0,1,1-2,2,2,2,0,0,1,2-2"/><path class="cls-1" d="M257.28,348.44v22l8,11v7a2,2,0,1,1-2,2,2,2,0,0,1,2-2"/><path class="cls-1" d="M264.28,339.44l17,24v31l6,8v31a3,3,0,1,1-3,3,2.94,2.94,0,0,1,3-3"/><circle class="cls-1" cx="9.28" cy="617.44" r="3"/><polyline class="cls-1" points="9.28 620.43 9.28 668.43 18.28 679.43 18.28 705.43 15.28 707.43 15.28 717.43 12.28 719.43 12.28 732.43 11.28 733.43 11.28 809.43 24.28 817.43 33.28 813.43"/><polyline class="cls-1" points="29.28 639.43 29.28 644.43 18.28 659.43 18.28 679.43"/><circle class="cls-1" cx="38.28" cy="660.44" r="2"/><polyline class="cls-1" points="38.28 662.43 38.28 670.43 29.28 681.43 29.28 705.43"/><circle class="cls-1" cx="51.28" cy="699.44" r="2"/><line class="cls-1" x1="51.28" y1="701.44" x2="51.28" y2="769.44"/><circle class="cls-1" cx="60.28" cy="683.44" r="2"/><polyline class="cls-1" points="60.28 685.43 60.28 701.43 51.28 715.43"/><polyline class="cls-1" points="18.28 705.43 23.28 702.43 38.28 710.43 29.28 716.43 29.28 724.43"/><line class="cls-1" x1="15.28" y1="708.64" x2="29.28" y2="716.44"/><polyline class="cls-1" points="38.28 710.43 38.28 719.43 28.28 724.43 15.28 717.43"/><polyline class="cls-1" points="38.28 718.43 42.28 720.43 42.28 730.43 45.28 731.43 45.28 770.43 34.28 777.43 34.28 825.43 47.28 833.43"/><line class="cls-1" x1="12.28" y1="731.44" x2="26.28" y2="738.44"/><polyline class="cls-1" points="42.28 730.43 26.28 738.43 26.28 728.43 12.28 720.37"/><polyline class="cls-1" points="45.28 732.43 25.28 742.43 11.28 734.16"/><line class="cls-1" x1="25.28" y1="742.44" x2="25.28" y2="802.44"/><polyline class="cls-1" points="64.28 775.43 48.28 784.43 48.28 833.43 64.28 824.43 64.28 775.43 49.28 767.43 45.28 770.43"/><line class="cls-1" x1="34.28" y1="777.44" x2="48.28" y2="784.44"/><polyline class="cls-1" points="88.28 639.43 88.28 691.43 79.28 707.43 79.28 725.43 85.28 733.43 85.28 811.43 68.28 821.43"/><polyline class="cls-1" points="79.28 725.43 69.28 714.43 54.28 730.43 54.28 770.1"/><polyline class="cls-1" points="85.28 736.38 84.28 737.43 80.28 733.43 77.28 742.43 72.28 735.43 68.28 743.43 62.28 734.43 58.28 739.43 54.28 731.95"/><line class="cls-1" x1="58.28" y1="739.44" x2="58.65" y2="772.44"/><line class="cls-1" x1="77.28" y1="742.44" x2="77.28" y2="794.44"/><polyline class="cls-1" points="85.28 791.43 68.28 797.43 68.28 743.43"/><line class="cls-1" x1="64.28" y1="796.02" x2="68.28" y2="797.44"/><polyline class="cls-1" points="85.28 793.58 68.28 800.43 64.28 798.43"/><polyline class="cls-1" points="64.28 819.3 68.28 821.43 68.28 803.43 85.28 797.43"/><line class="cls-1" x1="64.28" y1="802.44" x2="68.28" y2="803.44"/><circle class="cls-1" cx="228.28" cy="681.44" r="3"/><path class="cls-1" d="M228.28,684.44v46s-13,10-19,24-11,35-8,43,5,11,14,10c0,0,10-4,9-4v-45s-3-1-1-6,3-6,3-9,5,6,3,6,1,1,2-2,1,9-1,10-6,1-6,1"/><path class="cls-1" d="M233.28,769.44l15,9v48l-15-8v-49s13-8,15-8,2-10,2-10c-2-2-5,1-6,3s-4,3-4,3l4-19c1-23-16-8-16-8"/><polyline class="cls-1" points="248.28 761.43 262.28 768.43 262.28 793.43 291.28 808.43 291.28 848.43 287.28 850.43"/><polyline class="cls-1" points="262.28 793.43 260.28 792.43 257.28 794.43 257.28 835.43"/><path class="cls-1" d="M257.28,820.44l30,17"/><polyline class="cls-1" points="257.28 794.36 287.28 809.43 287.28 850.43"/><line class="cls-1" x1="262.28" y1="768.44" x2="248.28" y2="777.44"/><polyline class="cls-1" points="239.28 639.43 239.28 697.43 228.28 708.64"/><circle class="cls-1" cx="249.28" cy="665.44" r="2"/><polyline class="cls-1" points="249.28 667.43 249.28 678.43 239.28 688.61"/><circle class="cls-1" cx="260.28" cy="685.44" r="3"/><polyline class="cls-1" points="260.28 688.43 260.28 702.43 253.28 717.43 253.28 763.93"/><circle class="cls-1" cx="296.28" cy="600.44" r="2"/><polyline class="cls-1" points="296.28 602.43 296.28 652.43 287.28 665.43 287.28 697.43 299.28 703.43 299.28 804.43 296.28 806.43 296.28 824.43 291.28 827.05"/><polyline class="cls-1" points="287.28 697.43 283.28 696.43 259.28 719.43 259.28 766.93"/><polyline class="cls-1" points="259.28 719.43 273.28 727.43 273.28 782.43 269.28 784.43 269.29 797.07"/><polyline class="cls-1" points="269.28 784.43 283.28 793.43 283.28 804.3"/><polyline class="cls-1" points="273.28 782.43 281.28 778.43 296.28 786.43 283.28 793.43"/><line class="cls-1" x1="296.28" y1="786.44" x2="296.28" y2="806.44"/><path class="cls-1" d="M239.28,726.44s-26,8-34,51,19,26,19,26v8c0,5,2,5,2,5l2-1,2-58"/><path class="cls-1" d="M219.28,753.44c1.56.41,2.31,4.71,1,8s-4.59,5.73-6,5-.83-4.63,0-7C215.28,756.55,217.7,753,219.28,753.44Z"/><path class="cls-1" d="M210.28,783.44c-1.74-1-1.53-4.21-1-6,.76-2.59,3.13-5.41,5-5,2.08.45,3.6,4.94,2,8C215.08,782.7,212,784.43,210.28,783.44Z"/><path class="cls-1" d="M213.28,797.44c-.58-.2-2.15-3.59-1-7,1-3.08,4.24-5.76,6-5,1.52.65,2.14,4,1,8C219.28,793.44,217.78,798.94,213.28,797.44Z"/></g></g></svg>