<svg xmlns="http://www.w3.org/2000/svg" viewBox="0 0 231.19 166.38"><defs><style>.cls-1{fill:#525252;}.cls-2{fill:#7a7a7a;}.cls-3{fill:#fefefe;}.cls-4{fill:#3e3e3e;}.cls-5{fill:#333;}.cls-6{fill:#1f1f1f;}.cls-7{fill:#6e6e6e;}.cls-8{fill:#5d5d5d;}.cls-9{fill:#fff;}.cls-10{fill:#888;}.cls-11{fill:#f8f8f8;}.cls-12{fill:#cecece;}.cls-13{fill:#bababa;}.cls-14{fill:#f1f1f1;}.cls-15{fill:#a7a7a7;}.cls-16{fill:#c7c7c7;}.cls-17{fill:#f2f2f2;}</style></defs><title>bg_1</title><g id="Layer_2" data-name="Layer 2"><g id="Layer_1-2" data-name="Layer 1"><path class="cls-1" d="M146,115.53c-2.41-.64-4.21-2.29-6.16-3.7-.52-.37-1-.76-1.52-1.14a12,12,0,0,0-1.24-1.42c-1.69-1.4-1.69-3.3-1.59-5.22a2.9,2.9,0,0,1,1.2-2c3.14-2.79,9.73-3.1,12.76-1.09,1.38.93,2.87,1.7,4.26,2.62a6.56,6.56,0,0,1,2.42,2.23c.16.46-.11.64-.47.77a3.68,3.68,0,0,1-2.33-1.1c-2.95-2.24-6-4.29-9.95-3.95-.29,0-.65,0-.78-.24a18.18,18.18,0,0,1,3.61,1.7c.6.41,1.3.94.84,1.74s-1.28.38-1.93.11A19.55,19.55,0,0,1,142,103a2.59,2.59,0,0,0-3.32-.07,3.1,3.1,0,0,0-1,3.45,6.28,6.28,0,0,0,2.31,3.27,26.91,26.91,0,0,0,10,5.54c.46.37,1.21.61.68,1.45a1.73,1.73,0,0,1-2.23-.22A6.25,6.25,0,0,0,146,115.53Z"/><path class="cls-2" d="M155.56,106.38a.78.78,0,0,0,.56-.56c.51.49,1,1,1.55,1.46a3.41,3.41,0,0,1,1.28,3.39,1.56,1.56,0,0,0-1.3,1.4,6.62,6.62,0,0,1-1.06,2c-1.53,2.15-3.57,3-5.8,2.36l-1-.86c.4-.61,1.06-.57,1.67-.68,4.16-.77,5.68-3.41,4.21-7.36A1.64,1.64,0,0,1,155.56,106.38Z"/><path class="cls-3" d="M153.28,131.2c-.1.05.6.25.41.14-.38-.82.73-.9.76-1.4-2.4,2.08-5.43,3.29-8.14,5-11,7-22.38,13.19-33.48,20-2.72,1.66-5.51,3.22-8.24,4.87a2.38,2.38,0,0,1-2.23.52,3,3,0,0,1-.73-2.3,1.13,1.13,0,0,1,.32-.61c10.37-6.1,20.77-12.13,31.09-18.3,5.4-3.23,10.85-6.38,16.2-9.69a4.73,4.73,0,0,1,.56-.35c.88-.52,1.95-.77,2.48-1.76-.24-.93-1.45-1.23-1.46-2.29C152,123,155.9,129.8,153.28,131.2Z"/><path class="cls-4" d="M143.53,119.45l5.45,4.16a7.1,7.1,0,0,0,1.84,1.38,7.27,7.27,0,0,0,2,1.51.69.69,0,0,1,.34,1,4.14,4.14,0,0,1-2-.06c-5.82-4-11.2-8.61-16.72-13a1.14,1.14,0,0,1-.4-.84c.28-.64.7-.48,1.14-.2l1.18.78a13.37,13.37,0,0,1,5.7,4.29A3.25,3.25,0,0,0,143.53,119.45Z"/><path class="cls-5" d="M102.34,160.11c2.67-.89,4.9-2.6,7.29-4,14.26-8.33,28.45-16.78,42.7-25.11,1.21-.71,2-1.4,1.77-3,1.42,1.48,1.38,1.72-.41,3.38A67.76,67.76,0,0,0,144,137a18.75,18.75,0,0,1-7.19,4.28,5.32,5.32,0,0,0-1.85,1c-2,1.74-4,3.4-6.68,3.94a1.37,1.37,0,0,0-1,.84c-2.61,1.86-5.17,3.79-8.27,4.8a1,1,0,0,0-.93.44,17.12,17.12,0,0,1-7.54,4.46,3.24,3.24,0,0,0-1.53.86c-1.78,2.15-4.37,3-6.73,4.3a1.81,1.81,0,0,1-2.28-.48,19.12,19.12,0,0,0-5.79-4.28c-2-1.33-4.47-2.06-5.78-4.32l-1.93-1.44c-2.09-.64-2.31-1-1.64-2.53,1.24,0,2,.91,2.88,1.57,4.07,3.08,8.38,5.84,12.39,9C100.72,160.23,101.66,159.67,102.34,160.11Z"/><path class="cls-3" d="M192.07,154.93c-3.79,2.27-4.79,2.27-8.29,4.09a.57.57,0,0,0-.82.11c-.85.71-1.46.31-2-.45a1.82,1.82,0,0,1,.07-2.22,4.93,4.93,0,0,1,1.7-1.27c4.75-2.69,9.34-5.66,14-8.53a5.15,5.15,0,0,1,.58-.37c2.5-1.16,4.61-3,7.26-3.9h0c2.21-1.59,4.31-3.36,7-4.2,1.95.42,2.57,1.52,1.69,3.36-3.06,2.12-6.29,4-9.47,5.92-5.41,3.29-10.91,6.42-16.34,9.66-.33.29-.79.39-1.07.76a10.1,10.1,0,0,1,1.08-.77C189,156.51,190.12,154.8,192.07,154.93Z"/><path class="cls-6" d="M212.78,141.49c.55-1.8.46-2-1.47-2.94a.45.45,0,0,1-.59,0c-.07-.78.43-.95,1.05-1l1.49-.93a16.29,16.29,0,0,1,7.58-4.44,1.9,1.9,0,0,0,1.11-.79c1.83-.57,3.19-1.89,4.7-3a4.81,4.81,0,0,0,1.14,0,2.61,2.61,0,0,1,3.26,1.47c.44,1.16-.24,1.78-1.11,2.31a1.6,1.6,0,0,0-.28,1.31,2.7,2.7,0,0,1-1.11,2.57c-2,1.63-4.05,3.33-6.72,3.86a4.29,4.29,0,0,0-1.93,1.37c-1.32,1.57-3.2,2.31-4.9,3.31a1.31,1.31,0,0,1-2.12-.71c-.22-1.21.63-1.64,1.49-2.13,3.36-1.9,6.59-4,9.94-5.91-3.73,2-7.08,4.54-10.95,6.25C213,142.07,212.7,142,212.78,141.49Z"/><path class="cls-4" d="M148.4,160.61a1.73,1.73,0,0,0,1.54-.86,16.12,16.12,0,0,1,7.14-4.38,4.6,4.6,0,0,0,1.82-1,14.68,14.68,0,0,1,7.2-4.4,3.19,3.19,0,0,0,1.47-.86,16.31,16.31,0,0,1,6.88-4.29.91.91,0,0,0,.88-.46,17.48,17.48,0,0,1,7.58-4.45,3.8,3.8,0,0,0,1.47-.88,21.64,21.64,0,0,1,7.34-4.77c.49,0,1,0,1.32-.5a1.73,1.73,0,0,1,2.3-1.08c.64.66.22,1.13-.31,1.54s-.37,1,0,1.41c.61.67,1.14.13,1.63-.24s.5-.88.07-1.41-1.49-.71-1.18-1.76c2.91-.62,4.17.69,3.31,3.43-.81,1.16-2.15,1.57-3.24,2.33a10.36,10.36,0,0,0-2.15,1.44c-4.07,2.35-8.16,4.65-12.19,7.06q-14.14,8.44-28.23,17l-3.28,1.45c-1.27.72-2.71,2.32-4,1-1.1-1.11.39-2.61,1-3.83C147.13,161.43,147.3,160.46,148.4,160.61Z"/><path class="cls-7" d="M212.19,142.79l-1.82,1.08a1.58,1.58,0,0,0-1,.82c-2.56,1-4.73,2.72-7.14,4l-2,1.29-6.64,3.95a2.62,2.62,0,0,0-1.49,1c-1.75.46-2.95,2-4.8,2.3l0,0c0-.48.39-.66.72-.86l24.33-14.73a3.34,3.34,0,0,1,.44-.17l.41.38C213.5,142.87,212.52,142.48,212.19,142.79Z"/><path class="cls-8" d="M180.53,156.25l6.25-3.83a3.91,3.91,0,0,0,1.48-.91l7.28-4.27c.38-1,1.09-.94,1.89-.54-.09.69-.74.76-1.18,1q-6.7,4.1-13.41,8.15l-.61.38c-.61.38-1.37.76-1.21,1.59a1.61,1.61,0,0,0,1.94,1.28v.51a3.6,3.6,0,0,1-2.87-.51c0-.3,0-.69-.11-.9C179.26,157.29,179.77,156.75,180.53,156.25Z"/><path class="cls-9" d="M82.66,143.81q16.5-9.74,33-19.48,8.14-4.83,16.24-9.71c.55-.33,1.06-.71,1.59-1.07h.57L151.23,127c.78.39.84.88.16,1.39-.49.37-1.1.58-1.57,1l0,0c-16,9.44-32.09,18.81-48,28.36l0,0c-1,.76-1.81-.06-2.57-.53-2.9-1.83-5.55-4-8.3-6a69.86,69.86,0,0,0-6.23-4.4C83.78,146.14,82,145.73,82.66,143.81Z"/><path class="cls-3" d="M155.56,106.38c.18.26.36.52.52.8a5.27,5.27,0,0,1-4.12,8.23c-.71.08-1.43.1-2.14.14-4.43-.78-7.79-3.49-11.1-6.25a5.14,5.14,0,0,1-1.8-4c0-2.91,2.54-4.42,5.05-3,1.24.72,2.44,1.49,3.69,2.2.38.21.77.64,1.38.18-1.06-1.94-3.55-1.87-4.89-3.37,4.35-1.22,7.69.84,10.94,3.2C153.92,105.12,154.74,105.76,155.56,106.38Z"/><path class="cls-8" d="M197.38,146.71l0-.52,6.67-4,.57.17A25.05,25.05,0,0,1,197.38,146.71Z"/><path class="cls-8" d="M205,141.36a13.12,13.12,0,0,0,3.33-1.76,5.38,5.38,0,0,1,2.31-1.1l.63.05c-2.16,1.43-4.23,3-6.73,3.85C204.41,141.91,204.91,141.71,205,141.36Z"/><path class="cls-10" d="M101.82,157.74a9.11,9.11,0,0,1,3.23-2.38q14.28-8.49,28.6-16.91c4.54-2.66,9.08-5.32,13.64-7.94.8-.46,1.51-1.22,2.57-1.13-.74,1.24-2.13,1.63-3.25,2.3Q127,143.37,107.33,154.93A23.66,23.66,0,0,1,101.82,157.74Z"/><path class="cls-1" d="M82.66,143.81c.14,1.44,1.46,1.9,2.4,2.39,3,1.61,5.52,4,8.31,6,2.21,1.55,4.37,3.18,6.55,4.77a2.68,2.68,0,0,0,1.93.78,5.87,5.87,0,0,1,.49,2.41c-.81.41-1.61.95-2.42,0,.49-1.6-.88-2-1.77-2.64-5-3.69-9.94-7.48-15.14-10.91-.61-.4-1.45-.78-1.37-1.78C82.1,144.58,82.11,143.92,82.66,143.81Z"/><path class="cls-10" d="M149.82,129.41c.1-.74.8-.83,1.3-1.11.7-.4.41-.81.11-1.26a2.31,2.31,0,0,1,2,.42A5.76,5.76,0,0,1,149.82,129.41Z"/><path class="cls-11" d="M81.64,144.78a104.82,104.82,0,0,0,8.91,6.33c3,2.13,5.74,4.76,9,6.55a2.28,2.28,0,0,1,1.16,2c.06.65-.49.44-.83.5-1.84-1.37-3.65-2.79-5.53-4.1-3.19-2.22-6.29-4.56-9.35-7a1.3,1.3,0,0,0-1.16-.85c-1.12,0-2.24,0-3.06-1S80.24,145.55,81.64,144.78Z"/><path class="cls-7" d="M187.27,157.23c0,.48-.46.58-.77.77a2.77,2.77,0,0,1-1.24.42c.57-.6,1.08-1.28,2-1.17Z"/><path class="cls-12" d="M212.19,142.79l1-.92c4.38-2.24,8.3-5.29,13-7.48-.12,1.28-.93,1.43-1.5,1.77-3.25,2-6.53,3.91-9.78,5.88-.73.44-1.65.71-1.75,1.77Z"/><path class="cls-13" d="M214.33,140.37,212.74,138C214.18,138.32,214.69,139,214.33,140.37Z"/><path class="cls-3" d="M191.62,139c-5.29,3.23-10.57,6.48-15.88,9.7-7.75,4.71-15.51,9.4-23.21,14.06-.9,0-.5-1.21-1.28-1.26l.05,0c.09-.58-.71-.63-.64-1.32L189.59,137C191.15,136.77,192.07,137.23,191.62,139Z"/><path class="cls-14" d="M195.43,132.81a5.26,5.26,0,0,1,1.13.33c1.9,1,1.93,1.8.15,2.94-.52.34-1.06.64-1.53.91-.67-.29-.44-.91-.72-1.27s-.52-.77-.77-1.14c.5-.76,1.72-.72,1.79-1.81Z"/><path class="cls-3" d="M151.25,161.52c-.18.58.62,1.4-.09,1.72a4.6,4.6,0,0,1-2.7.67c-.23,0-.47-.28-.38-.5a8.14,8.14,0,0,1,1.08-2.07c.54-.64,1.14-.05,1.69.22.12.06.3,0,.45,0Z"/><path class="cls-15" d="M191.62,139a2.5,2.5,0,0,0-2-2.07,2.18,2.18,0,0,1,2-.82c.77-.23.68.35.74.79C192.91,137.9,192.71,138.62,191.62,139Z"/><path class="cls-12" d="M192.36,136.92c-.2-.3-.31-.7-.74-.79.29-.87.81-1.18,1.5-.44a2.87,2.87,0,0,1,.79,2.07C193.05,137.94,193.05,136.85,192.36,136.92Z"/><path class="cls-16" d="M105.85,133.87a75,75,0,0,1-15,7.86C95.75,139,100.78,136.39,105.85,133.87Z"/><polygon class="cls-17" points="49.28 114.2 24.28 128.2 44.28 141.2 67.28 127.2 49.28 114.2"/><polygon class="cls-17" points="76.28 90.2 4.28 133.2 3.28 139.2 77.28 97.2 76.28 90.2"/><path class="cls-17" d="M89.84,6.56,17.28,48.2l1,9L92.91,13c.8-.47.42-.52,1.37-1.81l-.45-3.68A3,3,0,0,0,89.84,6.56Z"/><rect class="cls-17" x="91.28" y="8.2" width="3" height="74"/><path class="cls-9" d="M90.59,15.37l.91.06,2.12-1.12V61.4l-3.26-.6c.19-.61.63-1.27.5-1.79a3.86,3.86,0,0,0-1.25-1.86c-.64-.51-1.06-.25-1.22.68,0,.31-.92.32-1.13-.49-.5-1.88-1.43-2.33-3.2-1.6-.8.33-1.57.75-2.39,1.06a2.28,2.28,0,0,0-1.58,3c1.31-.42,2.14,2.18,3.73.38l1.46,2c-.91,2.45-2.48,4.73-.81,7.32.85-1.18.85-1.18,2-1.66.59,2.42.29,3-1.94,4-.24.1-.38.44-.63.73l1.67.14C84,75,86.32,75.6,86.94,77c.42-.34.74-.81,1-.79,1.74.16,3.53.25,4.82,1.71s2.54,2.86,3.89,4.38a5.9,5.9,0,0,1-3.74,4.09l.53-4.69a14.47,14.47,0,0,0-1.2,4.3c-.51,3.47-1,7-.41,10.47.21,1.27-.47,1.76-1.39,2.17a26.06,26.06,0,0,1-9.29,2.12,10.36,10.36,0,0,1-1.8-.28c-.12-2.87-.2-5.65-.35-8.43a2.9,2.9,0,0,1,1.14-2.68,4,4,0,0,0,2-3l-3.77,3.45-2.87-2.48-.16.12,1,1.83-1.61,1.16A19.92,19.92,0,0,0,73,91.68a2.82,2.82,0,0,1-4.39-.42A13.64,13.64,0,0,1,67,88.62c-.67-1.36-1.21-2.78-1.85-4.16-.23-.49-.57-1.29-.9-1.31-1.44-.1-1.87-1.33-2.64-2.13l-.94.66a2.21,2.21,0,0,1,.89-3.25c1.17-.71,1.2-1.5.77-2.62a16.89,16.89,0,0,1-.56-2.36c2,1,2.33,3,3.67,4.32a28.74,28.74,0,0,0-2.17-4.42,1.53,1.53,0,0,0-1.39-.45,1.52,1.52,0,0,0-.6,1.32A19.07,19.07,0,0,0,62.12,77a27.75,27.75,0,0,0-2.32,2.57A1.82,1.82,0,0,0,60,82.18c.91.74,1.95,1.76,3,1.81,1.67.07,1.91,1.18,2.39,2.2.75,1.59,1.39,3.22,2.11,4.82a3.07,3.07,0,0,0,2.93,2.09c.38,0,.75.34,1.39.65l-3.36,2.57.11-.08a21,21,0,0,0-2.16,1q-15.5,9.07-31,18.18L11.06,129.75a20.32,20.32,0,0,1-2,.91c0-.8-.09-1.27-.09-1.74q0-15.45.11-30.9l.09-33.51a5,5,0,0,1,.88-.79c3.68-2.13,7.38-4.23,11.08-6.34l1.42-.64c.16.26.31.38.32.52.25,3,.88,5.89.46,8.93A4.38,4.38,0,0,0,25,70.63c.81.62,1.26,1.85,2.38,2.31,1.43.59,2.46.19,2.6-1.34a2.46,2.46,0,0,1,1.81-2.2,5.42,5.42,0,0,0,.78-.5l2-.58A9.44,9.44,0,0,0,36.33,68a10.86,10.86,0,0,0,1.75-1c.07,4,.13,7.89.2,11.75H39c.33-3.59-.11-7.23.29-11,1.88.27,3.59.16,4.77-1.88-1.46-1.29-2.92-2.62-4.43-3.89a4.15,4.15,0,0,1-1.27-4.94c.12-.37.25-.74.38-1.12l2.64-2.51,1.15,1.37,2-3.17,1.73-1.32.63,2.18,2.81-5.29,1.53,2a4.07,4.07,0,0,0,1.88-2.41c.77-.63,1.54-1.26,2.32-1.88.09-.06.27,0,.47,0l-.23,1.68.35.07,1.14-3.41c-1.78.89-3.26,1.87-4,3.6l-1.92,1.35.23-2.2-.39-.22-1.33,1.5c-.56.53-1,1.31-1.7,1.55-2.33.87-2.54,1-3.46,2.88l-1.74,1.14-.21-2.28L38.75,56c-.69-.56-.24-2.13-1.75-2-.08,0-.21-.4-.27-.62-.35-1.45-.69-2.91-1-4.37.47-.32.78-.56,1.12-.76q16.92-10,33.84-19.92c4.39-2.6,8.92-5,12.75-8.4l-.1.07,4.9-3-.1.08A3.09,3.09,0,0,0,90.59,15.37ZM23.53,87.77a18.52,18.52,0,0,0,1.58-1c.43-.33.38-.64-.22-.72.38,0,.84.25,1.12.11q4.81-2.6,9.58-5.29a7.91,7.91,0,0,0,1.27-1.13,1.23,1.23,0,0,0-1,0C31.21,82,26.57,84.28,22,86.59a9.09,9.09,0,0,0-1.41,1.1L17.31,89l.26.49,2.93-1.88,3.48-1c-.13.4-.26.79-.41,1.18l-2,.63.15.35ZM76.65,54.06c-1.07.31-2.52-.31-3.26,1.31A4.09,4.09,0,0,0,76.61,54l1.66-.81-.37-.49ZM75,84.65c-.89.32-1.48.85-2.82,2.52,1.63-.18,1.85-1.76,2.77-2.56l1.07-2.21C75.05,83.21,74.53,83.75,75,84.65Zm-53.49-18-1-1.57c-1.55,1.09-.2,1.83.06,3.08.46-.77.69-1.17.92-1.57l1.13-1.28L22.21,65Zm55.6-16.39c-1.13.11-2.28.18-3.4.38-.27,0-.46.53-.69.81.38.16.78.47,1.13.43s1-.68,1.15-.57c1.46.93,1.34-.49,1.76-1.1a7.06,7.06,0,0,0,4.48-2.34c-1.57.22-3.11.49-4.24,1.74C77.2,49.75,77.21,50,77.15,50.25Zm-.08-4.44,1.89.52c.38-.39,1-1.46,1.46-1.41,2.1.21,2.27-1.69,3.34-2.62-1.08,1.2-3.17.41-4,2.06,0,.07-.32.11-.43,0-1.64-.88-1.8.49-2.22,1.45-1.18.43-2.35,1.16-3.53,1.17-.75,0-1.19.1-1.52.63-.42.7-.74,1.46-1.1,2.2l.27.12L72.53,48l.83,1.25c.55-.52,1-1.29,1.44-1.3C76.33,48,76.66,46.9,77.07,45.81ZM28.32,77.33a8.1,8.1,0,0,1,.93-.83c1,.89,1.34-.08,1.79-.67l.88-1.13,1,1c.59-.67,1.09-1.76,1.73-1.85,2-.26,1.62-1.54,1.76-3.34l-2.51,2.82-1-.81c-.44.48-.83,1-1.26,1.39a2.42,2.42,0,0,1-.87.71c-1.95.6-2.21.87-2.39,2.76L27,75.54l-.92,1.35,1.1,1.91ZM64.06,41l3-2.39.4,1.75c1.76-1.56,2.22-3.95,4.33-5l.54,1.93,3.09-3.79.66,1.65.29-.09.16-3.18-3.17,2.89c-1.54-1-1.8-.57-4.94,3.2l-1.14-.72c-.77.84-1.59,1.7-2.36,2.59A8.55,8.55,0,0,0,64.12,41l-1.39,1.12L62.3,39.9c-1.34,1.46-.47,2.33.28,3.72Zm16.63,38.7,3.85-1.21-.11-.35-2.4.36-.83-1.66c-3.72-.74-4.6-1.63-4.35-4.35,2.48.13,2.48.13,3.49-1.2-1.26.38-2.33,1.27-3.58.24-.7-2.29.56-4.57.51-6.93A24.17,24.17,0,0,0,76,73.45a3.66,3.66,0,0,0,2.85,3.67c.58.19,1.15.42,1.71.62.09.74.16,1.35.21,2a2.29,2.29,0,0,0-2.54.54Zm-28,10.86,0,0L55.34,88c-5,2.47-6.31,3-8.2,2.88-.09-.2-.32-.43-.29-.62.39-2.56-.93-4.15-2.91-5.49a4.87,4.87,0,0,1-2-3.91,14.52,14.52,0,0,1,1.48-7.42,21,21,0,0,1,9.37-9.91,14.17,14.17,0,0,1,3.29-1.35c3.35-.73,5.76,1.28,5.85,4.75,0,.92,0,1.84,0,3.32A6.15,6.15,0,0,0,57.47,61a11.1,11.1,0,0,0-7.32,2.49,24.88,24.88,0,0,0-8.68,13.44c-1,3.51-.62,6.63,2.65,8.93A3.72,3.72,0,0,1,46,89.5c-.07.55.4,1.16.59,1.76a9.46,9.46,0,0,1,.31,1.3c.28,1.6.49,3.22.85,4.81a1.59,1.59,0,0,0,1,.9,12,12,0,0,0,2.79.37A3.49,3.49,0,0,0,54.76,97a13.24,13.24,0,0,0,2.09-8.12Zm-37.9,33.1,1.36-.68c.72-.35,1.45-.65,2.14-1,2.21-1.28,4.39-2.61,6.59-3.89,4.83-2.81,9.66-5.59,14.22-8.23,0-3,0-5.78,0-8.55,0-.82-.07-1.64-.12-2.66-9.34,3.38-17.42,8.32-25.4,13.14v12.9Zm23.5-40.85V96.41h.61c.42-4.74.13-9.5.18-14.63A219.79,219.79,0,0,0,17.43,93.17ZM50.86,76.3l-1.55,3.31-2.26-.85c1.66,3.41,3.06,6.31,4.47,9.22l.47-.22a33.42,33.42,0,0,0-2.71-6.31l1.63-2.79,1,.93C53.24,78,53.24,78,55,78c-.19,2.76-1.27,5.45-.77,8.28.42-1.7.7-3.41,1-5.13s.89-3.49.58-5.41c-1.58.47-3.17.39-3.68,2.33Zm17.46-15,18.59-9.46a3,3,0,0,0-2.24.18c-4.32,2.24-8.6,4.54-12.9,6.81-.53.28-1.09.5-1.64.74l-.65-2.2c-1.54,1.11-3,2.09-4.32,3.13A2.76,2.76,0,0,0,64,63l4.3-3.43Zm14-31c.84-3.2.85-3.19,3.28-5.82a18,18,0,0,0,1.32-1.87c-2.58-.94-4.63.09-6.29,3.11.92-.67,1.51-1.17,2.17-1.55s1.37-.61,2.58-1.13C84,25.59,81.15,26.86,82.29,30.28ZM13.32,109H14V95.13h-.52C13.13,99.76,13.37,104.4,13.32,109Zm3.57-8.26.37.1.9-1.3,1.13.87,1.34-2.15c.73.59,1.17.51,1.65-.17a7.72,7.72,0,0,1,1.51-1.28V94.79c-.68.39-.91,1-1.36,1.34s-1,.22-1.52.44c-.25.11-.39.48-.56.75l-.92,1.41-1.1-1.33Zm-3-9.77a16.49,16.49,0,0,0,.29-4.09c0-1.52,0-3,0-4.56,0-1.32.37-2.71-.46-4.21C13.11,80.22,13.18,89.4,13.87,91Zm17.39,1.58-1.12-1-1.93,2.25-.75-1.42L26,95.11c.74,0,1.56.3,2,0a8.63,8.63,0,0,0,1.69-2l1,.89c1.26-.33,1.28-2.35,3.09-1.71l-.24-2.54Zm56.28-44.9.72.05c0-2-.08-3.92,0-5.87.24-4.7.27-4.7-.66-6.11C87.5,40,87,43.82,87.54,47.69ZM23.37,78.13l.56,2.6.95-1.3L23.71,77l-2.3,3.12-.85-1.42-1,1.76L21.5,81ZM66.43,57.65c2.78-3.75,3.39-7,1.92-9.33a24,24,0,0,1-.07,4.74A27.2,27.2,0,0,1,66.43,57.65ZM19.36,105.34l.22.47,8.17-4.12-.23-.46ZM66.88,81a12.32,12.32,0,0,0,4.26,6.15ZM56.57,85.48l.46.11,1.43-5.25C56.6,82,56.68,83.75,56.57,85.48Zm23.18-17.8c1.37-1,1.43-1.22.83-3.4A2.81,2.81,0,0,0,79.75,67.68ZM18.06,83.31c.35-.4,1.49-.64.42-1.33-.33-.21-.33-.93-.52-1.4,0-.07-.25-.08-.52-.16l-.58,1.46ZM33.91,98.55l-.2-.37-3.25,1.59.18.4Z"/><path d="M32.54,68.9a5.42,5.42,0,0,1-.78.5A2.46,2.46,0,0,0,30,71.6c-.14,1.53-1.17,1.93-2.6,1.34-1.12-.46-1.57-1.69-2.38-2.31a4.38,4.38,0,0,1-1.63-4.44c.42-3-.21-6-.46-8.93,0-.14-.16-.26-.32-.52l-1.42.64.42-1.5-7.84-3.67-1.11-4.32c-.91,2.87-.77,3.26,1.19,4.24L12,57l-1.35-.93-.77,1a2.91,2.91,0,0,1,1.48-3.3l.78.71.46-.25-1-3.18C8.23,51.78,7.93,51.92,6,55a9.39,9.39,0,0,0-.7,2.79l3.22.35a8,8,0,0,1-3.68.77c-1.23-.12-2.35-.11-3,.95a7.42,7.42,0,0,0-.95,3.11C.75,65.16.82,67.41.83,69.65q0,20.37.05,40.74c0,7.19,0,14.39,0,21.58a8.14,8.14,0,0,0,4.81,6.91A6.21,6.21,0,0,0,6,137.53c0-4.07-.14-8.14-.14-12.2q0-25.17,0-50.34c0-1.17.16-2.34.25-3.51l.41,0v60.37c1.94-.12,1.94-.82,1.93-2.67q-.08-24.68-.09-49.37c0-4.39-.06-8.78,0-13.17,0-.75-.52-1.86.82-2.16L9.09,98q0,15.45-.11,30.9c0,.47,0,.94.09,1.74a20.32,20.32,0,0,0,2-.91L35.4,115.4q15.48-9.11,31-18.18a21,21,0,0,1,2.16-1c-2,1.3-3.91,2.69-6,3.9Q45,110.61,27.31,121l-19,11.2c-.61.36-1.21.76-1.85,1.16V140A11.61,11.61,0,0,1,4,139.23a8.14,8.14,0,0,1-4-7.43q.09-20.49.14-41L.23,67.11c0-1.67-.14-3.35,0-5A4.54,4.54,0,0,1,3.08,58a2.74,2.74,0,0,0,1.2-1c1-1.85,2-3.73,3.13-5.78-.84-.69-.87-1.72-.69-3,.7-5.15,1.22-10.32,1.8-15.48.3-2.67,1.2-5,3.8-6.21a4.06,4.06,0,0,0,.41-.25c2.68-1.68,3-2.36,2.44-5.42a31.58,31.58,0,0,0,1.92,3.23c2.23,2.92,5.89,3,7.61.15a18.91,18.91,0,0,0,2.43-7.72c-1.35-1-2.17-.09-3,.86L23.77,17l.77-3.24c.77,1.55,1.45,2.26,2.78,1.66V10.89c-1.51-1.11-2.88-.38-4.17-.54a24.83,24.83,0,0,1-4-1.17l-.93,4-.71.43-.67-2.06-.57.4-.4,1.5L17.72,15l-.4,1.63-1.78-2.12-.95,1.22-1.4-.64c-1.1,2.58-.79,3.31,1.81,4.42l.23,1.39c-.56-.39-1.1-.82-1.69-1.17a3,3,0,0,1-1.73-3.37,6.64,6.64,0,0,0-.22-3.73,3.4,3.4,0,0,1-.18-.94,8,8,0,0,0-1.58-5c-1.44-2.17-.77-4.18,1.49-5.45a15.41,15.41,0,0,1,2.9-1l0-.06C15,1.81,16.51,1.9,18.37,2.68L17.14.73l0,.07c1.4.12,1.1,1.61,1.83,2.27l-.05,0-.69,1.42a4.66,4.66,0,0,0,1.66.15c1.22-.42,2.38-.82,3.62-.08a.62.62,0,0,0,.6-.1c.69-1.39,1.75-.66,2.43-.24,1.63,1.05,3.66,1.76,4.17,4,.29,1.26.65,2.3-1,3.22s-1.53,3.38-.27,5c-1.82,1.45-1.64,3.79-2.69,5.83,1.81.47,2.32,1.91,2.9,3.33,1.58,3.93,3.17,7.84,4.77,11.76.18.43.38.86.7,1.56.86-.39,1.65-.69,2.38-1.1q9-5.2,18-10.44c3.73-2.16,7.48-4.29,11.19-6.48a31.15,31.15,0,0,0,2.62-2,24.68,24.68,0,0,1,2.85-2.08c4.34-2.37,8.72-4.67,13.1-7a3.72,3.72,0,0,1,1.75-.44C71.24,19.09,55.41,28.76,38.91,38l2.24,1.35,0,.22c-.77-.23-1.54-.5-2.32-.68a2.7,2.7,0,0,0-3.38,1.73c-.64,1.48-1.83,1.86-3.26,1.95a7.06,7.06,0,0,0-2.21.39c.94.9,1.5,2.31,3.13,1.69h0l2.3,3.49c.72-.4,1.4-.74,2.06-1.13Q59.34,34,81.26,20.89a18,18,0,0,1,2.15-1c-3.83,3.42-8.36,5.8-12.75,8.4q-16.89,10-33.84,19.92c-.34.2-.65.44-1.12.76.34,1.46.68,2.92,1,4.37.06.22.19.63.27.62,1.51-.12,1.06,1.45,1.75,2l0,0c-.13.38-.26.75-.38,1.12A4.15,4.15,0,0,0,39.6,62c1.51,1.27,3,2.6,4.43,3.89-1.18,2-2.89,2.15-4.77,1.88-.4,3.73,0,7.37-.29,11h-.69c-.07-3.86-.13-7.72-.2-11.75a10.86,10.86,0,0,1-1.75,1,9.44,9.44,0,0,1-1.78.28,4.36,4.36,0,0,0,.36-1.51c-.27-1.72-.65-3.41-1-5.11-.06-.28-.26-.76-.4-.76-1.2,0-.78-1.33-1.49-2.1l-3,4.54-.66-1c-1.31,2-.78,4.53,1.52,7.29ZM26.67,49.18a9.57,9.57,0,0,0-4.29,4.57,8.32,8.32,0,0,1,1-2.55,26.76,26.76,0,0,1,3.68-3.37c1.08-.85,2.31-1.51,3.82-2.48a50.68,50.68,0,0,1-5.52-3,3.89,3.89,0,0,0-4.36,0c-2.44,1.35-4.79,2.79-7.64,2.57-.59,4.29,0,5.6,3.44,7.48,1.46.79,3,1.52,4.51,2.32l1.05-.87,1.11-.69c.12,1.26.25,2.53.37,3.79.27,2.62.48,5.24.81,7.84a6,6,0,0,0,3.06,4.45,7.57,7.57,0,0,0-.29-1.45,8.17,8.17,0,0,1-.17-5.6q.7-2.77,1.21-5.6c.4-2.24.08-4.27-2-5.68l-3,2.34,3.36-3.93h.82l-.22,1.07,2,.33c-.2.42-.5.75-.43.94,1,2.49.4,4.91-.14,7.38a8.51,8.51,0,0,0,.48,2.67c.89-1.16,1.42-2,2-2.66a2.27,2.27,0,0,0,.35-2.83c-.57-1.19-.94-2.46-1.4-3.7l.44-.17c1.58,3.53,4.26,6.58,4.39,10.74,4.7,2.35,4.7,2.35,6.18,1.7-.72-.72-1.36-1.39-2.05-2a5.82,5.82,0,0,1-1.76-3c-.84-3.57-1.76-7.12-2.67-10.67-.54-2.12-1.13-2.49-3.23-1.71a39,39,0,0,0-4,2.05l.9-1.37-.32-.23Zm-1.45-24c2.12,1.19,2.3,3.27,2.41,5.36a8,8,0,0,0,.11,2.6,74.62,74.62,0,0,0,4.61,8.49c2.61-1.12,2.76-1.54,1.55-3.53a13.42,13.42,0,0,1-.84-1.7C31.5,32.82,30,29.23,28.4,25.65c-.43-1-.83-2.07-2.36-2.36-.26.68-.52,1.31-.76,1.94a1.37,1.37,0,0,0-.89,2A15.14,15.14,0,0,1,24.88,29l.07.24-.21-.11-.7-.36-1.5,4.45-2.78-3.54-1.11,1.83-.38-.3.93-2L16,25.42C12.32,27,9.54,29.07,9.3,33.7S8.15,43.19,7.56,47.94a16.21,16.21,0,0,0,0,2.09c2.58,1,3.37.45,3.85-2,.84-4.22,1.87-8.4,2.85-12.59.06-.25.42-.44.64-.66l.37.19-2.1,8.79c.62.1,1,.19,1.39.21,2.59.14,4.6-1.31,6.5-2.7,1-.75,2.53-1.45,2.48-3.26,0-.41.63-.87,1-1.27A8.1,8.1,0,0,0,26,27.35c-.39.57-.76,1.12-1.14,1.66A5,5,0,0,0,25.22,25.19ZM23.73,40.85A33,33,0,0,1,27,42.2c1.63.91,2.86.38,4.12-.88l-3.72-6.68C25.77,36.53,24.26,38.26,23.73,40.85ZM22.5,31.4l.89-4.22-5-.59ZM12.35,7.65l.36.42Q15,6.45,17.23,4.82s-.09-.27-.19-.55C14.83,4.53,13.46,5.91,12.35,7.65Z"/><path d="M68.42,96.32l3.36-2.57c-.64-.31-1-.65-1.39-.65A3.07,3.07,0,0,1,67.46,91c-.72-1.6-1.36-3.23-2.11-4.82-.48-1-.72-2.13-2.39-2.2-1,0-2.06-1.07-3-1.81a1.82,1.82,0,0,1-.19-2.61A27.75,27.75,0,0,1,62.12,77a19.07,19.07,0,0,1-.82-2.78,1.52,1.52,0,0,1,.6-1.32,1.53,1.53,0,0,1,1.39.45,28.74,28.74,0,0,1,2.17,4.42c-1.34-1.31-1.63-3.35-3.67-4.32a16.89,16.89,0,0,0,.56,2.36c.43,1.12.4,1.91-.77,2.62a2.21,2.21,0,0,0-.89,3.25l.94-.66c.77.8,1.2,2,2.64,2.13.33,0,.67.82.9,1.31.64,1.38,1.18,2.8,1.85,4.16a13.64,13.64,0,0,0,1.62,2.64,2.82,2.82,0,0,0,4.39.42,19.92,19.92,0,0,1,1.73-1.29l1.61-1.16-1-1.83.16-.12,2.87,2.48,3.77-3.45a4,4,0,0,1-2,3A2.9,2.9,0,0,0,79,92c.15,2.78.23,5.56.35,8.43a10.36,10.36,0,0,0,1.8.28,26.06,26.06,0,0,0,9.29-2.12c.92-.41,1.6-.9,1.39-2.17-.6-3.51-.1-7,.41-10.47a14.47,14.47,0,0,1,1.2-4.3l-.53,4.69a5.9,5.9,0,0,0,3.74-4.09c-1.35-1.52-2.63-2.94-3.89-4.38S89.7,76.36,88,76.2c-.28,0-.6.45-1,.79C86.32,75.6,84,75,85.53,72.71l-1.67-.14c.25-.29.39-.63.63-.73,2.23-1,2.53-1.55,1.94-4-1.11.48-1.11.48-2,1.66-1.67-2.59-.1-4.87.81-7.32l-1.46-2c-1.59,1.8-2.42-.8-3.73-.38a2.28,2.28,0,0,1,1.58-3c.82-.31,1.59-.73,2.39-1.06,1.77-.73,2.7-.28,3.2,1.6.21.81,1.08.8,1.13.49.16-.93.58-1.19,1.22-.68A3.86,3.86,0,0,1,90.86,59c.13.52-.31,1.18-.5,1.79l3.26.6V14.31L91.5,15.43c.41-1.09,1.32-1.44,2.61-1.74.07,1.09.17,2,.17,3q.09,29.86.17,59.73c0,1-.37,2.25,1.18,3.11.06-.7.14-1.2.14-1.7q0-33.33.06-66.66c0-3.68-1.22-4.64-4.88-3.76a8.12,8.12,0,0,1-1,.1c.64-1.56,1.45-2.06,2.81-1.83a3.81,3.81,0,0,1,3.62,4.05c.13,2.63.15,5.27.15,7.9q0,22.05,0,44.11c0,5.84,0,11.67.12,17.51a10,10,0,0,0,1.62,6.07,2.59,2.59,0,0,1,.09,3.33,52.34,52.34,0,0,1-3.69,4.68,7.17,7.17,0,0,0-2,6.75c.65,3.68.76,7.46,1.15,11.19.35,3.41.77,6.82,1.15,10.23a7.18,7.18,0,0,1-.91-2.06c-.58-5.64-1.06-11.29-1.61-16.93-.11-1.22-.36-2.43-.59-3.94-3.83,2.39-7.78,2.7-11.94,2.48,0,2.23,0,4.21,0,6.2s0,3.84.19,5.74c.45,4.35,1.53,8.64,1,13a3.88,3.88,0,0,0,4.42-.07,13.88,13.88,0,0,0,.12-1.41,74.24,74.24,0,0,1,.59-13.82c.32-1.94.58-3.88.92-6.18l2.27-1.06.22.43-2.09,1.5a32.55,32.55,0,0,0,.06,5.93c.62,3.21,1.66,6.33,2.5,9.49a7.1,7.1,0,0,1,.12,1.14l-.45.07c-.82-3.15-1.63-6.31-2.45-9.46l-.66.07c-.25,3.35-.5,6.69-.75,10a55.78,55.78,0,0,1,5.68,0A3.05,3.05,0,0,0,95,121.4c.13.44.44.93.36,1.33-.27,1.37-3.76,3.42-5.18,3s-2.54-.82-4-1.31c0,1.27.08,2.46,0,3.62-.13,1.38-2.4,2.86-3.73,2.47s-2.74-.88-4.07-1.4a2.58,2.58,0,0,1-1.72-3.48l3.91.4c0-.92.07-1.77,0-2.6-.29-2.93-.75-5.86-.92-8.8a65.91,65.91,0,0,1-.06-9.32,10.09,10.09,0,0,0-1.66-6.95l-26,14.73c.26,1.72,1.46,2.49,2.68,3.24,3.66,2.27,7.33,4.53,11,6.81a7.79,7.79,0,0,1,1.77,1.48,181.81,181.81,0,0,1-17.63-10.24c-2.94,1.7-6.1,3.56-9.29,5.37a19.64,19.64,0,0,1-2.14,1l0,0a18.23,18.23,0,0,1,2-1.55Q58.85,108.2,77.45,97.18A3.93,3.93,0,0,0,78,96.7V91.57l-1.39-.12,0,.06,1.17-1.36c-1.46.2-2.69.62-3.13,2.09l-.47.5C72.71,94.6,70.53,95.41,68.42,96.32ZM96.66,84.4c-1.73,1.16-2.34,3-3.24,4.58s-2,3.18-.92,5.66c1.75-2,3.35-3.54,4.63-5.32C98.62,87.25,98.46,86.76,96.66,84.4ZM93.5,68.85,93,68.61c-.33,3.46-2.84,5-5.44,6.26l6,1.84Zm-3.83-4.4L89.11,67C90.39,66.38,90.19,65.45,89.67,64.45Z"/><path d="M44,138c-1.89-1-3.79-2-5.66-3-2.51-1.4-5.06-2.74-7.48-4.28a33,33,0,0,1-3.64-3.1,6.55,6.55,0,0,0,3.05,4.12c3.79,2.37,7.62,4.7,11.42,7,.85.52,1.69,1.06,2.54,1.59l-.27.44c-2.25-1.28-4.52-2.53-6.76-3.84s-4.18-2.66-6.37-3.8a8.31,8.31,0,0,1-3.94-3.69,8,8,0,0,0-.8-1.11l-4.15,1.93,0,0L30,125.52l-.05-.06L28.84,127A3.58,3.58,0,0,0,31,129.82c3.57,2.1,7.12,4.22,10.65,6.39A23.2,23.2,0,0,1,44,138.09Z"/><path d="M47.18,140.44c2.6-1.59,5.19-3.2,7.81-4.76,4-2.41,8-4.85,12.16-7.13,1.16-.64,1.32-1.59,1.51-2.78,1.07,1.67,1,2.25-.22,3q-6.15,3.69-12.34,7.31c-2.2,1.28-4.42,2.54-6.64,3.78-.66.37-1.37.66-2.06,1Z"/><path d="M44,138.09a4.33,4.33,0,0,0,3.33-.68c5.53-3.31,11.11-6.56,16.67-9.82a15,15,0,0,1,3.58-1.6,6.15,6.15,0,0,1-1,1q-9.63,5.76-19.29,11.47c-1.66,1-1.67,1-3.22-.37Z"/><path d="M39.29,43.05l-.67-1.14,2.85-.73.11.3Z"/><path d="M88.21,17l-4.9,3Z"/><path d="M33.06,44.66l1.21-1L36,44.1l.05.25-3,.32Z"/><path d="M32.56,124.19l3.28-2,0,0-3.29,2Z"/><path d="M18.93,3.07l3.12-.49,0,.45h-3.2Z"/><path d="M21.93,130.34l-1.7,1.31-.25-.46,2-.8Z"/><path d="M30,125.52l2.54-1.33-.05,0L30,125.47Z"/><path d="M35.84,122.23l2.44-1.43,0,0-2.44,1.43Z"/><path d="M90.59,15.37a3.09,3.09,0,0,1-2.48,1.75C88.93,16.53,89.76,16,90.59,15.37Z"/><path d="M74.23,92.74l.47-.5,2-.73,0-.06Z"/><path d="M14.22.31A2.32,2.32,0,0,1,17.1.8l0-.07L14.2.25Z"/><path class="cls-9" d="M9.18,64.51c-1.34.3-.81,1.41-.82,2.16,0,4.39,0,8.78,0,13.17q0,24.69.09,49.37c0,1.85,0,2.55-1.93,2.67V71.51l-.41,0C6,72.65,5.87,73.82,5.87,75q0,25.17,0,50.34c0,4.06.11,8.13.14,12.2a6.21,6.21,0,0,1-.27,1.35A8.14,8.14,0,0,1,.91,132c0-7.19,0-14.39,0-21.58Q.85,90,.83,69.65c0-2.24-.08-4.49.06-6.71a7.42,7.42,0,0,1,1-3.11c.62-1.06,1.74-1.07,3-.95a8,8,0,0,0,3.68-.77l-3.22-.35A9.39,9.39,0,0,1,6,55c2-3,2.26-3.19,5.64-3.88l1,3.18-.46.25-.78-.71a2.91,2.91,0,0,0-1.48,3.3l.77-1L12,57l1.81-4.88-.08.08,7.84,3.67-.42,1.5c-3.7,2.11-7.4,4.21-11.08,6.34A5,5,0,0,0,9.18,64.51Z"/><path class="cls-9" d="M16.13,123l-1.36.68c-.72-.26-.87-.75-.83-1.5.11-2.55.25-5.1.15-7.64A3,3,0,0,1,16,111.32c5.07-2.68,10-5.56,15.09-8.27,2.22-1.18,4.55-2.15,7.07-3.32v9.87c-.58.32-1.15.6-1.7.92-6.13,3.55-12.28,7.1-18.39,10.69A12.34,12.34,0,0,0,16.13,123Zm15.65-15.83c.36-.45.75-.94,1.16-1.43s.8-.94,1.2-1.41a21.28,21.28,0,0,1-3.24,1c-1.82.68-3.35,2.19-5.21,3.5l-.87-.27c-1.09,2.46-4.33,2.55-5.5,5,0,0-.14,0-.36.06l-1-1.41-1.43,2.23,1.28-.82,1.2.95c1.35-.59,1.58-2.86,3.51-1.87a14.35,14.35,0,0,1,.89-1.3c.3-.36.83-1,1-.95,1.59.77,1.8-.69,2.47-1.42.32-.34.78-1,1-.9,1.48.45,1.61-1,2.51-1.58Zm-12.39,8.55c.78,1.48,1.4,1.29,2.15.73.59-.44,1.33-1.12,1.9-1a1.49,1.49,0,0,0,1.57-.7c.36-.42.8-1.16,1.16-1.13,1.73.14,2.25-1.43,3.4-2.1-1,.09-2.22,0-2.83.58a14.36,14.36,0,0,1-4,2.62C21.77,115.09,20.94,115.87,19.39,115.67Z"/><path d="M52.67,90.53l4.18-1.68A13.24,13.24,0,0,1,54.76,97a3.49,3.49,0,0,1-3.26,1.67,12,12,0,0,1-2.79-.37,1.59,1.59,0,0,1-1-.9c-.36-1.59-.57-3.21-.85-4.81a9.46,9.46,0,0,0-.31-1.3c-.19-.6-.66-1.21-.59-1.76a3.72,3.72,0,0,0-1.85-3.65c-3.27-2.3-3.62-5.42-2.65-8.93a24.88,24.88,0,0,1,8.68-13.44A11.1,11.1,0,0,1,57.47,61a6.15,6.15,0,0,1,4.43,9.22c0-1.48,0-2.4,0-3.32-.09-3.47-2.5-5.48-5.85-4.75a14.17,14.17,0,0,0-3.29,1.35,21,21,0,0,0-9.37,9.91,14.52,14.52,0,0,0-1.48,7.42,4.87,4.87,0,0,0,2,3.91c2,1.34,3.3,2.93,2.91,5.49,0,.19.2.42.29.62,1.89.09,3.21-.41,8.2-2.88l-2.63,2.62-4.26,1.3c-1.13.34-1.07,1.15-.89,2.25a10.22,10.22,0,0,0,1.3-.43c-.27-1.41,1-1.34,1.67-1.78S52,91,52.67,90.53Zm-.33,6.61c1.38-.29,1.46-.25,2.72-2.65a9.57,9.57,0,0,0,1-4.59l-5.26,3.17A3.2,3.2,0,0,0,52.46,93c.49-.1,1-.17,1.53-.25l-.79,2.17-3.33.84.34-1.49-1.88.63.2,2.55,4.81-1.63.13.27Z"/><path d="M16.13,123A12.34,12.34,0,0,1,18,121.21c6.11-3.59,12.26-7.14,18.39-10.69.55-.32,1.12-.6,1.7-.92V99.73c-2.52,1.17-4.85,2.14-7.07,3.32C26,105.76,21,108.64,16,111.32a3,3,0,0,0-1.86,3.17c.1,2.54,0,5.09-.15,7.64,0,.75.11,1.24.83,1.5l-1.22,1v-12.9c8-4.82,16.06-9.76,25.4-13.14,0,1,.12,1.84.12,2.66,0,2.77,0,5.53,0,8.55-4.56,2.64-9.39,5.42-14.22,8.23-2.2,1.28-4.38,2.61-6.59,3.89C17.58,122.3,16.85,122.6,16.13,123Z"/><path class="cls-9" d="M32.54,68.9l-2.69.73c-2.3-2.76-2.83-5.27-1.52-7.29l.66,1,3-4.54c.71.77.29,2.06,1.49,2.1.14,0,.34.48.4.76.37,1.7.75,3.39,1,5.11a4.36,4.36,0,0,1-.36,1.51Z"/><path d="M38.27,82.78,17.43,93.17A219.79,219.79,0,0,1,39.06,81.78c-.05,5.13.24,9.89-.18,14.63h-.61Z"/><path d="M50.86,76.3l1.24,1.75c.51-1.94,2.1-1.86,3.68-2.33.31,1.92-.32,3.65-.58,5.41s-.53,3.43-1,5.13c-.5-2.83.58-5.52.77-8.28-1.78,0-1.78,0-3.11,1.61l-1-.93-1.63,2.79A33.42,33.42,0,0,1,52,87.76l-.47.22c-1.41-2.91-2.81-5.81-4.47-9.22l2.26.85Z"/><path d="M68.32,61.3V59.58L64,63a2.76,2.76,0,0,1,1.14-2.51c1.37-1,2.78-2,4.32-3.13l.65,2.2c.55-.24,1.11-.46,1.64-.74,4.3-2.27,8.58-4.57,12.9-6.81a3,3,0,0,1,2.24-.18Z"/><path d="M20.54,87.69A9.09,9.09,0,0,1,22,86.59c4.62-2.31,9.26-4.58,13.9-6.85a1.23,1.23,0,0,1,1,0,7.91,7.91,0,0,1-1.27,1.13q-4.77,2.7-9.58,5.29c-.28.14-.74-.06-1.11-.11l-.92.59-3.48,1Z"/><path d="M80.74,79.7l-.23-2c-.56-.2-1.13-.43-1.71-.62A3.66,3.66,0,0,1,76,73.45a24.17,24.17,0,0,1,1.32-8.88c0,2.36-1.21,4.64-.51,6.93,1.25,1,2.32.14,3.58-.24-1,1.33-1,1.33-3.49,1.2-.25,2.72.63,3.61,4.35,4.35L82,78.47l2.4-.36.11.35-3.85,1.21Z"/><path d="M64.12,41a8.55,8.55,0,0,1,.77-1.18c.77-.89,1.59-1.75,2.36-2.59l1.14.72c3.14-3.77,3.4-4.15,4.94-3.2l3.17-2.89-.16,3.18-.29.09-.66-1.65L72.3,37.29l-.54-1.93c-2.11,1-2.57,3.41-4.33,5L67,38.58l-3,2.39Z"/><path d="M82.29,30.28C81.15,26.86,84,25.59,85.35,23c-1.21.52-1.93.76-2.58,1.13S81.52,25,80.6,25.7c1.66-3,3.71-4.05,6.29-3.11a18,18,0,0,1-1.32,1.87C83.14,27.09,83.13,27.08,82.29,30.28Z"/><path d="M28.35,77.4c.17-1.91.43-2.18,2.38-2.78a2.42,2.42,0,0,0,.87-.71c.43-.44.82-.91,1.26-1.39l1,.81,2.51-2.82c-.14,1.8.21,3.08-1.76,3.34-.64.09-1.14,1.18-1.73,1.85l-1-1L31,75.83c-.45.59-.75,1.56-1.79.67a8.1,8.1,0,0,0-.93.83Z"/><path d="M13.32,109c0-4.64-.19-9.28.15-13.92H14V109Z"/><path d="M16.89,100.78l1.44-3.38,1.1,1.33.92-1.41c.17-.27.31-.64.56-.75.48-.22,1.13-.15,1.52-.44s.68-.95,1.36-1.34v2.06a7.72,7.72,0,0,0-1.51,1.28c-.48.68-.92.76-1.65.17l-1.34,2.15-1.13-.87-.9,1.3Z"/><path d="M13.87,91c-.69-1.61-.76-10.79-.16-12.86.83,1.5.44,2.89.46,4.21,0,1.52,0,3,0,4.56A16.49,16.49,0,0,1,13.87,91Z"/><path d="M31.26,92.59l2.21-2.8.24,2.54c-1.81-.64-1.83,1.38-3.09,1.71l-1-.89a8.63,8.63,0,0,1-1.69,2c-.45.29-1.27,0-2,0l1.5-2.71.75,1.42,1.93-2.25Z"/><path d="M87.54,47.69c-.55-3.87,0-7.72.08-11.93.93,1.41.9,1.41.66,6.11-.1,2,0,3.91,0,5.87Z"/><path d="M77.12,45.86c.42-1,.58-2.33,2.22-1.45.11.06.4,0,.43,0,.82-1.65,2.91-.86,4-2.06-1.07.93-1.24,2.83-3.34,2.62-.48-.05-1.08,1-1.46,1.41l-1.89-.52Z"/><path d="M77.07,45.81C76.66,46.9,76.33,48,74.8,48c-.45,0-.89.78-1.44,1.3L72.53,48,71.24,50,71,49.86c.36-.74.68-1.5,1.1-2.2.33-.53.77-.62,1.52-.63,1.18,0,2.35-.74,3.53-1.17Z"/><path d="M49.68,47.22l-2.81,5.29-.63-2.18-1.73,1.32.05.05c.92-1.93,1.13-2,3.46-2.88.67-.24,1.14-1,1.7-1.55Z"/><path d="M38.75,56l3.86-5.45.21,2.28,1.74-1.14-.05-.05c-.62,1-1.25,2-2,3.17l-1.15-1.37L38.71,56Z"/><path d="M23.37,78.13,21.5,81l-1.93-.54,1-1.76.85,1.42L23.71,77l1.17,2.39-.95,1.3Z"/><path d="M66.43,57.65a27.2,27.2,0,0,0,1.85-4.59,24,24,0,0,0,.07-4.74C69.82,50.63,69.21,53.9,66.43,57.65Z"/><path d="M19.36,105.34l8.16-4.11.23.46-8.17,4.12Z"/><path d="M53.13,46.84c.75-1.73,2.23-2.71,4-3.6L56,46.65l-.35-.07.23-1.68c-.2,0-.38,0-.47,0-.78.62-1.55,1.25-2.32,1.88Z"/><path d="M66.88,81l4.26,6.15A12.32,12.32,0,0,1,66.88,81Z"/><path d="M77.11,50.2c-.43.61-.31,2-1.77,1.1-.18-.11-.74.53-1.15.57s-.75-.27-1.13-.43c.23-.28.42-.76.69-.81,1.12-.2,2.27-.27,3.4-.38Z"/><path d="M56.57,85.48c.11-1.73,0-3.53,1.89-5.14L57,85.59Z"/><path d="M77.15,50.25c.06-.22,0-.5.19-.65,1.13-1.25,2.67-1.52,4.24-1.74A7.06,7.06,0,0,1,77.1,50.2Z"/><path d="M53.09,46.79a4.07,4.07,0,0,1-1.88,2.41l-1.53-2,0,.05,1.33-1.5.39.22-.23,2.2,1.92-1.35Z"/><path d="M79.75,67.68a2.81,2.81,0,0,1,.83-3.4C81.18,66.46,81.12,66.69,79.75,67.68Z"/><path d="M64.06,41l-1.48,2.65c-.75-1.39-1.62-2.26-.28-3.72l.43,2.24L64.12,41Z"/><path d="M28.32,77.33,27.18,78.8l-1.1-1.91L27,75.54l1.34,1.85S28.32,77.33,28.32,77.33Z"/><path d="M18.06,83.31l-1.2-1.43.58-1.46c.27.08.48.09.52.16.19.47.19,1.19.52,1.4C19.55,82.67,18.41,82.91,18.06,83.31Z"/><path d="M21.5,66.59l-.93,1.56c-.26-1.25-1.61-2-.06-3.08l1,1.57Z"/><path d="M33.91,98.55l-3.27,1.62-.18-.4,3.25-1.59Z"/><path d="M75,84.63c-.94.78-1.16,2.36-2.79,2.54C73.56,85.5,74.15,85,75,84.65Z"/><path d="M20.5,87.64l-2.93,1.88L17.31,89l3.23-1.34Z"/><path d="M76.61,54a4.09,4.09,0,0,1-3.22,1.36c.74-1.62,2.19-1,3.26-1.31Z"/><path d="M24,86.62,24.9,86c.59.08.64.39.21.72a18.52,18.52,0,0,1-1.58,1l.06,0Z"/><path d="M23.53,87.77l-1.8,1-.15-.35,2-.62Z"/><path d="M75,84.65c-.51-.9,0-1.44,1-2.25-.48,1-.77,1.6-1.06,2.22Z"/><path d="M80.69,79.67l-2.51.56a2.28,2.28,0,0,1,2.55-.53Z"/><path d="M21.55,66.64l.66-1.6.41.26-1.13,1.28Z"/><path d="M76.65,54.06l1.25-1.35.37.49L76.61,54Z"/><path class="cls-9" d="M24.87,29,26,27.35a8.1,8.1,0,0,1-1.47,9.43c-.38.4-1,.86-1,1.27,0,1.81-1.45,2.51-2.48,3.26-1.9,1.39-3.91,2.84-6.5,2.7-.38,0-.77-.11-1.39-.21L15.26,35l-.37-.19c-.22.22-.58.41-.64.66-1,4.19-2,8.37-2.85,12.59-.48,2.41-1.27,2.93-3.85,2a16.21,16.21,0,0,1,0-2.09c.59-4.75,1.49-9.48,1.74-14.24s3-6.68,6.68-8.28l3.22,3.84-.93,2,.38.3,1.11-1.83,2.78,3.54L24,28.78l.7.36.21.11L24.88,29Z"/><path class="cls-9" d="M15.23,20.92,15,19.53c-2.6-1.11-2.91-1.84-1.81-4.42l1.4.64.95-1.22,1.78,2.12.4-1.63-1.83-1.59.4-1.5.57-.4.67,2.06.71-.43.93-4a24.83,24.83,0,0,0,4,1.17c1.29.16,2.66-.57,4.17.54v4.57c-1.33.6-2-.11-2.78-1.66L23.77,17l.39.32c.8-.95,1.62-1.82,3-.86a18.91,18.91,0,0,1-2.43,7.72C23,27.05,19.32,27,17.09,24.07a31.58,31.58,0,0,1-1.92-3.23Zm4.33-.21h.06l-.76-1.32c-.18,2.5.63,4.14,2,4.46,1.07.25,2.19-.75,2.6-2.26Zm.74-4c1.33-1.13,1.33-1.13.57-2.76l-1.81.91Z"/><path class="cls-9" d="M22.39,53.84l-1.05.87c-1.56-.8-3.05-1.53-4.51-2.32-3.41-1.88-4-3.19-3.44-7.48,2.85.22,5.2-1.22,7.64-2.57a3.89,3.89,0,0,1,4.36,0,50.68,50.68,0,0,0,5.52,3c-1.51,1-2.74,1.63-3.82,2.48a26.76,26.76,0,0,0-3.68,3.37,8.32,8.32,0,0,0-1,2.55Z"/><path class="cls-9" d="M27.54,49.39a37.16,37.16,0,0,1,4-2.06c2.1-.78,2.69-.41,3.23,1.71.91,3.55,1.83,7.1,2.67,10.67a5.82,5.82,0,0,0,1.76,3c.69.64,1.33,1.31,2.05,2-1.48.65-1.48.65-6.18-1.7-.13-4.16-2.81-7.21-4.39-10.74l-.44.17c.46,1.24.83,2.51,1.4,3.7A2.27,2.27,0,0,1,31.31,59c-.63.71-1.16,1.5-2,2.66A8.51,8.51,0,0,1,28.78,59c.54-2.47,1.12-4.89.14-7.38-.07-.19.23-.52.43-.94l-2-.33c.07-.36.15-.71.23-1.07Z"/><path class="cls-9" d="M23.42,53.24l3-2.34c2.1,1.41,2.42,3.44,2,5.68q-.51,2.82-1.21,5.6a8.17,8.17,0,0,0,.17,5.6,7.57,7.57,0,0,1,.29,1.45,6,6,0,0,1-3.06-4.45c-.33-2.6-.54-5.22-.81-7.84-.12-1.26-.25-2.53-.37-3.79Z"/><path class="cls-9" d="M25.27,25.23,26,23.29c1.53.29,1.93,1.37,2.36,2.36,1.57,3.58,3.1,7.17,4.66,10.76a13.42,13.42,0,0,0,.84,1.7c1.21,2,1.06,2.41-1.55,3.53a74.62,74.62,0,0,1-4.61-8.49,8,8,0,0,1-.11-2.6c-.11-2.09-.29-4.17-2.41-5.36Z"/><path class="cls-9" d="M23.73,40.85c.53-2.59,2-4.32,3.68-6.21l3.72,6.68c-1.26,1.26-2.49,1.79-4.12.88A33,33,0,0,0,23.73,40.85Z"/><path class="cls-9" d="M22.5,31.4l-4.14-4.81,5,.59Z"/><path class="cls-9" d="M12.35,7.65C13.46,5.91,14.83,4.53,17,4.27c.1.28.23.52.19.55Q15,6.46,12.71,8.07Z"/><path class="cls-9" d="M13.8,52.13c-2-1-2.1-1.37-1.19-4.24l1.11,4.32Z"/><path class="cls-9" d="M23.42,53.24l.08-.09-1.11.69v-.09a9.57,9.57,0,0,1,4.29-4.57l.11.13Z"/><path class="cls-9" d="M14.2.25l2.94.48c.31.48.61,1,1.23,2C16.51,1.9,15,1.81,14.2.25Z"/><path class="cls-9" d="M24.88,29a15.14,15.14,0,0,0-.49-1.75,1.37,1.37,0,0,1,.88-2l-.05,0A5,5,0,0,1,24.87,29Z"/><path class="cls-9" d="M26.67,49.18l1.45-1.4.32.23-.9,1.37.07-.07h-.83Z"/><path class="cls-9" d="M95,121.4a3.05,3.05,0,0,1-3.3,1.31,55.78,55.78,0,0,0-5.68,0c.25-3.36.5-6.7.75-10l.66-.07c.82,3.15,1.63,6.31,2.45,9.46l.45-.07a7.1,7.1,0,0,0-.12-1.14c-.84-3.16-1.88-6.28-2.5-9.49a32.55,32.55,0,0,1-.06-5.93l2.09-1.5-.22-.43-2.27,1.06c-.34,2.3-.6,4.24-.92,6.18a74.24,74.24,0,0,0-.59,13.82,13.88,13.88,0,0,1-.12,1.41,3.88,3.88,0,0,1-4.42.07c.52-4.4-.56-8.69-1-13C80,111,80,109.11,80,107.2s0-4,0-6.2c4.16.22,8.11-.09,11.94-2.48.23,1.51.48,2.72.59,3.94.55,5.64,1,11.29,1.61,16.93a7.18,7.18,0,0,0,.91,2.06S95,121.4,95,121.4Z"/><path class="cls-9" d="M96.66,84.4c1.8,2.36,2,2.85.47,4.92-1.28,1.78-2.88,3.34-4.63,5.32-1.06-2.48,0-4.09.92-5.66S94.93,85.56,96.66,84.4Z"/><path class="cls-9" d="M93.5,68.85v7.86l-6-1.84c2.6-1.29,5.11-2.8,5.44-6.26Z"/><path class="cls-9" d="M76.66,91.51l-2,.73c.44-1.47,1.67-1.89,3.13-2.09Z"/><path class="cls-9" d="M89.67,64.45c.52,1,.72,1.93-.56,2.57Z"/><path d="M31.78,107.12l-1.41-.65c-.9.53-1,2-2.51,1.58-.23-.07-.69.56-1,.9-.67.73-.88,2.19-2.47,1.42-.14-.07-.67.59-1,.95a14.35,14.35,0,0,0-.89,1.3c-1.93-1-2.16,1.28-3.51,1.87l-1.2-.95-1.28.82L18,112.13l1,1.41c.22,0,.34,0,.36-.06,1.17-2.47,4.41-2.56,5.5-5l.87.27c1.86-1.31,3.39-2.82,5.21-3.5a21.28,21.28,0,0,0,3.24-1c-.4.47-.81.93-1.2,1.41S32.14,106.67,31.78,107.12Z"/><path d="M19.39,115.67c1.55.2,2.38-.58,3.36-1a14.36,14.36,0,0,0,4-2.62c.61-.57,1.84-.49,2.83-.58-1.15.67-1.67,2.24-3.4,2.1-.36,0-.8.71-1.16,1.13a1.49,1.49,0,0,1-1.57.7c-.57-.08-1.31.6-1.9,1C20.79,117,20.17,117.15,19.39,115.67Z"/><path class="cls-9" d="M52.34,97.14l1.13-1-.13-.27-4.81,1.63-.2-2.55,1.88-.63-.34,1.49,3.33-.84L54,92.75c-.54.08-1,.15-1.53.25a3.2,3.2,0,0,1-1.61.07l5.26-3.17a9.57,9.57,0,0,1-1,4.59C53.8,96.89,53.72,96.85,52.34,97.14Z"/><path class="cls-9" d="M52.67,90.53c-.71.47-1.41,1-2.14,1.39s-1.94.37-1.67,1.78a10.22,10.22,0,0,1-1.3.43c-.18-1.1-.24-1.91.89-2.25l4.26-1.3Z"/><path d="M19.56,20.71l3.94.89c-.41,1.51-1.53,2.51-2.6,2.26-1.41-.32-2.22-2-2-4.46.32.56.54.94.77,1.32a1.61,1.61,0,0,0,1,2.1c.55.24,1.21.41,1.51-.57L21,21.54Z"/><path d="M20.3,16.71l-1.24-1.85L20.87,14C21.63,15.58,21.63,15.58,20.3,16.71Z"/><path class="cls-9" d="M19.56,20.71l1.41.83,1.19.71c-.3,1-1,.81-1.51.57a1.61,1.61,0,0,1-1-2.1Z"/><line x1="18.28" y1="131.2" x2="3.28" y2="139.2"/><line x1="42.28" y1="141.2" x2="45.28" y2="141.2"/></g></g></svg>