<svg xmlns="http://www.w3.org/2000/svg" viewBox="0 0 289.13 173.11"><defs><style>.cls-1{fill:#fff;}.cls-2{fill:#444;}.cls-3{fill:#616161;}.cls-4{fill:#161616;}.cls-5{fill:#b2b2b2;}.cls-6{fill:#fbfbfb;}.cls-7{fill:#f3f3f3;}.cls-8{fill:#282828;}.cls-9{fill:#6b6b6b;}.cls-10{fill:#1b1b1b;}.cls-11{fill:#959595;}.cls-12{fill:#848484;}.cls-13{fill:#1f1f1f;}.cls-14{fill:#292929;}.cls-15{fill:#626262;}.cls-16{fill:#1c1c1c;}.cls-17{fill:#666;}.cls-18{fill:#7a7a7a;}.cls-19{fill:#939393;}.cls-20{fill:#595959;}.cls-21{fill:#818181;}.cls-22{fill:#777;}.cls-23{fill:#0a0a0a;}.cls-24{fill:#1a1a1a;}.cls-25{fill:#bcbcbc;}.cls-26{fill:#898989;}.cls-27{fill:#383838;}.cls-28{fill:#8c8c8c;}.cls-29{fill:#989898;}.cls-30{fill:#7d7d7d;}.cls-31{fill:#8a8a8a;}.cls-32{fill:#565656;}.cls-33{fill:#606060;}.cls-34{fill:#575757;}.cls-35{fill:#949494;}.cls-36{fill:#3f3f3f;}.cls-37{fill:#686868;}.cls-38{fill:#979797;}.cls-39{fill:#9a9a9a;}.cls-40{fill:#a0a0a0;}.cls-41{fill:#353535;}.cls-42{fill:#6d6d6d;}.cls-43{fill:#3b3b3b;}.cls-44{fill:#cacaca;}.cls-45{fill:#9c9c9c;}.cls-46{fill:#454545;}.cls-47{fill:#7b7b7b;}.cls-48{fill:#535353;}.cls-49{fill:#6e6e6e;}.cls-50{fill:#858585;}.cls-51{fill:#aaa;}.cls-52{fill:#9f9f9f;}.cls-53{fill:#8d8d8d;}.cls-54{fill:#d0d0d0;}.cls-55{fill:#4c4c4c;}.cls-56{fill:#545454;}.cls-57{fill:#4d4d4d;}.cls-58{fill:#868686;}.cls-59{fill:#9e9e9e;}.cls-60{fill:#b9b9b9;}.cls-61{fill:#767676;}.cls-62{fill:#838383;}.cls-63{fill:#555;}.cls-64{fill:#757575;}.cls-65{fill:#464646;}.cls-66{fill:#737373;}.cls-67{fill:#adadad;}.cls-68{fill:#4f4f4f;}.cls-69{fill:#b8b8b8;}.cls-70{fill:#4a4a4a;}.cls-71{fill:#474747;}.cls-72{fill:#727272;}.cls-73{fill:#333;}.cls-74{fill:#707070;}.cls-75{fill:#525252;}.cls-76{fill:#e1e1e1;}.cls-77{fill:#9b9b9b;}.cls-78{fill:#999;}.cls-79{fill:#fefefe;}.cls-80{fill:#fdfdfd;}.cls-81{fill:#fcfcfc;}.cls-82{fill:#f5f5f5;}.cls-83{fill:#e9e9e9;}.cls-84{fill:#fafafa;}.cls-85{fill:#7f7f7f;}.cls-86{fill:#f9f9f9;}.cls-87{fill:#dadada;}</style></defs><title>bottompic</title><g id="Layer_2" data-name="Layer 2"><g id="Layer_1-2" data-name="Layer 1"><path class="cls-1" d="M21.78,80.16c-1.07.39-1.2,1.21-.87,2.14A7.17,7.17,0,0,1,21.25,86a3,3,0,0,0,.61,2.49,4.08,4.08,0,0,1,.56,4,24.41,24.41,0,0,1-.58,2.8c-.33.71.05,1.35.46,2a1.92,1.92,0,0,1-.25,2.59c-.93,1-.8,2.07-.6,3.33.28,1.84.88,3.67.32,5.61a2.88,2.88,0,0,0,.45,2.73c.71.84.27,1.33-.47,1.92-1.29,1-2.89,1.31-4.32,2a1.54,1.54,0,0,1-1.91-.6,7.68,7.68,0,0,1-.93-1.65c-.73-1.84-.71-1.85,1.08-2.79s2.88-2.9,3.93-4.66a1.63,1.63,0,0,0-.52-2.14,1.4,1.4,0,0,0-2.12-.08,2,2,0,0,1-1.52.52c-1.52-.56-.9-1.89-.9-2.86,0-15.18,0-30.36,0-45.55,0-2.79.07-5.59,0-8.39-.05-1.63.39-2.8,2-3.37,3.64-1.6,7.25-3.26,10.79-5.09,1.73-1,3.56-1.79,5.37-2.6.75-.34,1.77-1.14,2.44.24.17,4.19,0,8.37.07,12.55a11,11,0,0,1,0,1.28c-.53,4.28-.17,8.57-.23,12.86,0,2.7-.06,5.41-.18,8.11a2.4,2.4,0,0,1-.9,2.07c-3.44,2.57-7.4,4.3-10.88,6.8A1,1,0,0,1,21.78,80.16Z"/><path class="cls-1" d="M38,91.65c1.62-.45,1-1.55.65-2.48-.18-.49-.7-.85-.94-1.34s0-.93.5-.77c2.2.72,3.83-.73,5.59-1.47,2.4-1,4.68-2.32,7.19-3.6v2.87q0,18,0,36a13.82,13.82,0,0,0,.12,2.14c.26,1.63,0,2.61-1.39,3.38A70.32,70.32,0,0,1,38,132.17V128a1.91,1.91,0,0,1-.65-1.35c-.08-11.27.37-22.54.18-33.81C37.5,92.36,37.48,91.91,38,91.65Z"/><path class="cls-1" d="M33.16,114.87c-.3-1.33-1.37-1.24-2.3-1.1-1.16.18-2.46.45-2.86,1.77-.27.92-.77,1.06-1.56,1.07-1.84,0-2.25-.47-1.39-2.08a2.64,2.64,0,0,0,.19-2.7,6,6,0,0,1-.06-5.68c.14-.3.33-.62.12-.89-1.27-1.65-.55-3.56-.7-5.34-.09-1.12,0-2.24,0-3.36a3.48,3.48,0,0,1,.63-2.49,1.49,1.49,0,0,0,.2-1.8c-1.54-1.59-.38-3.5-.73-5.22a2.11,2.11,0,0,1,3-2.08c2.27,1.09,4.81,1.61,6.84,3.23a4.83,4.83,0,0,1,2.07,4c0,12.32,0,24.64,0,37,0,.32,0,.65,0,1-.11,1.17-.93,1.79-1.95,1.19a38.87,38.87,0,0,0-3.54-1.91c-.55-.25-.55-.72-.26-1.2a.62.62,0,0,1,1-.25,3,3,0,0,0,1.27.62c1.33.16,1.82-.32,1.95-1.66a6.28,6.28,0,0,0-1.12-4.69,2.75,2.75,0,0,1-.1-3.32,2.84,2.84,0,0,0-.29-3.69A.48.48,0,0,1,33.16,114.87Z"/><path class="cls-2" d="M214.27,117.1c-.23-1.1.16-2.34-.68-3.32a5.83,5.83,0,0,0,.93-4.57c-.53-2.92-.08-5.93-.91-8.79a34.07,34.07,0,0,1-.43-7.8c.36-6.58.12-13.15,0-19.72,0-1,0-1.9.06-2.85,1.49,1.68.63,3.73.69,5.56.16,5,.05,10.12.15,15.17a2.09,2.09,0,0,1,.39,1.91,2.05,2.05,0,0,0,0-1.61c-.93-1.93-.29-4-.38-6-.25-5.65.06-11.31-.45-16.95-.18-2.05.64-3.85,1.19-5.72.33-1.11.93-.9,1.59-.32a1.74,1.74,0,0,0,.46.3c1.17-.45,1.71-2.36,3.43-1.49.51.15.62.55.35.91a5.32,5.32,0,0,0-.69,3.21c-.09,3.41-.49,6.83-.46,10.22s-.7,6.76-.11,10.18a15.86,15.86,0,0,1-.3,3.21c-.22,4-.45,8-.7,12.41,1.89-1.94,2.71-4.16,3.83-6.18a3.68,3.68,0,0,1,0,3.11c-.46-.1-.69.08-.88.52a13,13,0,0,1-2.91,4.51c-.51-.07-.78.19-.74.66a22.29,22.29,0,0,1-2,11.09,3,3,0,0,0-.19,1.41,1.61,1.61,0,0,1-.3,1A.76.76,0,0,1,214.27,117.1Z"/><path class="cls-3" d="M67.29,151.15a4.49,4.49,0,0,0,1-1.91c.21-1.93,1.47-2.94,3.08-3.63a18.88,18.88,0,0,1,6-1.65,21.42,21.42,0,0,0,6.28-1.44c2.41-1,4.34-2.34,4.36-5.35,0-1.77,1.44-2.41,2.87-2.74,2.24-.52,4.53-.89,6.8-1.3,3.15-.56,6-1.52,7.68-4.6a9.16,9.16,0,0,1,3.28-3.08,4.57,4.57,0,0,0,1.19-.79c1.39-1.82,3.35-2,5.39-2,1.6,0,3.2,0,4.8,0a5.22,5.22,0,0,0,4.17-1.92c2.9-3.5,10-5.39,14.51-3.37a11.15,11.15,0,0,0,8.83.33c4.63-1.74,9.27-1,13.83.35a7.32,7.32,0,0,1,3.57,2.33,7.52,7.52,0,0,0,5.46,2.57c3.47.34,7,.34,10.34,1.65,2,.81,4,1.55,4.95,3.78a5.39,5.39,0,0,0,3.7,2.84,41.64,41.64,0,0,0,5.36,1.21c2.76.4,5.5,1,8.24,1.5a4.66,4.66,0,0,1,3.1,2.43,32.07,32.07,0,0,0,5.32,6.45c2.75,2.6,6.35,3.55,9.94,4.41a44.43,44.43,0,0,1,6.83,2.08c2.08.87,3.18,2.11,3,4.53s.62,3.42,3,4.19a14.6,14.6,0,0,0,3.74.74,12.76,12.76,0,0,1,5.91,1.78,4.1,4.1,0,0,1,2.1,3.28c.28,2.53.56,2.79,3.14,3.27a3.47,3.47,0,0,1,.9.27c.11.06.15.26.26.48a4.38,4.38,0,0,1-3.81-.69,2.58,2.58,0,0,1-1.44-2.54c.17-1.86-.77-2.92-2.39-3.71a14,14,0,0,0-5.05-1.33,10.54,10.54,0,0,1-5.82-1.92,3.08,3.08,0,0,1-1.51-3c.06-.47,0-1,0-1.43a2.47,2.47,0,0,0-1.71-2.8A38,38,0,0,0,222,148.3c-3.8-.92-7.66-1.78-10.77-4.35a33,33,0,0,1-6-7.1,5.26,5.26,0,0,0-3.67-2.35l-10.58-2c-2.88-.53-5.26-1.71-6.59-4.56-.73-1.56-2.43-2-3.91-2.56-3.17-1.28-6.55-1.29-9.87-1.55a9,9,0,0,1-6.34-2.85,8.22,8.22,0,0,0-4.05-2.44c-4.23-1.17-8.47-1.52-12.72,0a11.42,11.42,0,0,1-8.87-.24c-4.36-2-11.52-.33-14.2,3.34a4.78,4.78,0,0,1-4,1.77c-1.76,0-3.52,0-5.28,0a7.52,7.52,0,0,0-4.78,1.73,28.88,28.88,0,0,0-5.72,5.65c-1.55,2-4.12,2.64-6.55,3.15-2,.41-4.09.64-6.13,1-2.47.46-2.66.82-3.17,3.31-.56,2.82-2.71,4.27-5.19,5.15a26.62,26.62,0,0,1-6.76,1.44A14.12,14.12,0,0,0,72,146.22c-1.5.7-2.77,1.55-3,3.38a3.47,3.47,0,0,1-1.19,2C67.34,151.75,67.14,151.62,67.29,151.15Z"/><path class="cls-3" d="M171.46,146.86a1.51,1.51,0,0,0,1.58-.76c-.27-.33-.94-.11-1-.58a.56.56,0,0,1,.86-.47c1.16.86,2.56.71,3.84,1a7.53,7.53,0,0,1,2.75,1.39,24.55,24.55,0,0,0,4.83,3.08c2.52,1.19,4.17,3.27,6,5.25s4,3.68,5.92,5.52a28.51,28.51,0,0,1,4.58,5.17c.92,1.42.85,1.52-.52,2.63a30.78,30.78,0,0,1-3.41,2.22h2.53a11.61,11.61,0,0,1-7.95.54c.18-.33.5-.32.81-.32s.63-.09.69,0a4.51,4.51,0,0,1-1.35-.1c-.25-1,.56-1,1.12-1.11a32,32,0,0,1,4-.54c.32,0,0-.56,0-.24,0,.06,0,.1-.12.1a28.45,28.45,0,0,1-11.18-2.29c-5.25-2.09-10.36-4.53-15.73-6.34a16.37,16.37,0,0,1-5.87-4c1.91,2.25,4.76,3.77,7.16,5.84,0,.71-.63.55-1,.69-2.76-1.33-4.94-3.48-7.3-5.35-1.49-1.18-1.84-3.29-2.38-5.12-.13-.44-.19-.92-.32-1.38-.17-.62-1.09-.9-.85-1.58s1-1,1.57-1.4c1-.63,2-1.25,3.1-1.8a4,4,0,0,1,3.81-.3c1.09.47,2.51,1,3.82.18Z"/><path class="cls-1" d="M14.16,5.27a.8.8,0,0,1,.32.22c3,2.64,6.74,4,10.16,5.93A8,8,0,0,1,27,13l0,0c.23,1.3-.87,1.54-1.65,2-1.88,1-3.88,1.84-5.68,3a2.76,2.76,0,0,1-2.95.05c-3.54-1.79-7.09-3.56-10-6.3C6.28,9.53,8,9,9.29,8.17c.63-.44,1.6-.57,1.39-1.69C11.79,5.92,12.68,4.75,14.16,5.27Z"/><path class="cls-1" d="M46.19,75.38a2.49,2.49,0,0,0,1.1,2.25c.69.64.82,1.25-.29,1.49A10.79,10.79,0,0,0,41.63,82c-1.25,1.23-3.22,1.25-4.5,2.55-.21.21-1.21-.21-1.75-.51-2.4-1.35-4.76-2.76-7.24-4.2a10.38,10.38,0,0,1,4.34-2.92,3.14,3.14,0,0,0,2.19-3.51h0c2.32-.2,4.57-.33,6.68,1.12a3,3,0,0,0,3.57.24C45.58,74.48,46,74.74,46.19,75.38Z"/><path class="cls-4" d="M257.41,120.92a8.34,8.34,0,0,1-.52-7c1-3.1,3.87-4.06,6.65-2.36s4.46,4,4.39,7.4c-.07,3-2.43,5.83-5.14,5.9a3.89,3.89,0,0,1-3.08-1c.24-1.41-1.13-2.15-1.43-3.35C258.26,120.49,257.86,121.17,257.41,120.92Z"/><path class="cls-5" d="M256.47,151.09a5.18,5.18,0,0,1-2.65-1c-4.62-2.7-9.21-5.42-13.65-8.41-5.69-3.83-11.36-7.73-17.29-11.16-7.07-4.1-13.44-9.18-20.29-13.56-2.29-1.46-4.53-3-6.67-4.63,1-.84,1.75.08,2.53.46s1.29,1.14,2.26,1c3.83,2.59,7.68,5.16,11.49,7.78s7.56,5.34,11.42,7.89a29,29,0,0,0,3.9,1.69A5.35,5.35,0,0,1,230,132.9a51,51,0,0,0,5.34,3.37h0c3.82,2.59,7.59,5.36,11.59,7.54,3.34,1.82,6.68,3.71,10.11,5.4,1.51.74,2.66,2,4.13,2.81.37.2.73.55.55.94-.27.59-.78.32-1.22.1a18.07,18.07,0,0,1-1.68-.9h0a16.49,16.49,0,0,0-2.87-1.95,9.91,9.91,0,0,0-1-.67c.2,0,.49.4.88.56S256.6,150.52,256.47,151.09Z"/><path class="cls-6" d="M85.92,81.62l.53,0c.72-1.81-1-1.92-1.83-2.71-.54-.54-2-.55-1.37-1.79s1.61-.71,2.52-.34a2.39,2.39,0,0,1,1,.57c1.16,1.5,2.38,2.06,4.25,1a1.89,1.89,0,0,1,2.4,1c-.32.49-.13.81.45,1a9.69,9.69,0,0,1,4.3,2.9,1.6,1.6,0,0,1,.41,1.77c-.4.75-1.14.34-1.71.19-1.3-.34-2.64-.56-3.92-1s-1.78,0-1.71,1.31,0,2.87,0,4.31c0,.7.12,1.57-.71,1.86s-1.47-.38-2-1c-.36-.42-.59-1-.91-1.41a2.27,2.27,0,0,1-.27-.71,19.2,19.2,0,0,1,0-3.79,8.07,8.07,0,0,1,.29-1c0-.22.21-.39.23-.63a1.57,1.57,0,0,0-.27.62,2.82,2.82,0,0,1-2.1,1.55c-.8,0-1.49.49-2.28.61-.62.1-1.28.43-1.67-.31s0-1.24.35-1.78C82.83,82.43,84.59,82.39,85.92,81.62Z"/><path class="cls-7" d="M29.92,21.55c-2.85,1.42-5.68,2.86-8.53,4.26-1.15.56-2.33,1.12-3.49,0a3.36,3.36,0,0,0,.62-2.94c-.62-1.82,1.15-3,.89-4.7-.06-.41.72-.79,1.21-1.06,2-1.06,4-2,5.92-3.1,1.24-.74,1.48-.22,1.43,1a23.62,23.62,0,0,1-.42,5c-.08.31,0-.11.08.19,0,.1.29,0,.42-.07.64.05,1.35-.2,1.82.47C29.91,20.91,30.06,21.22,29.92,21.55Z"/><path class="cls-8" d="M63.42,21.11l.49.56c.24.61.64,1.22,0,1.85l-.77.06c-.47.15-.32.7-.63,1l-1.12.38c-3,1.13-5.64.75-7.6-2.31a43.9,43.9,0,0,0-5.8,6,7.79,7.79,0,0,1-4.28,3,5.32,5.32,0,0,1,1.52-2.05q4.53-4.61,9.1-9.17c2-2,2-2,4.69-2.73.32-.17.49-.72,1-.41l0,0A7.05,7.05,0,0,0,63.42,21.11Z"/><path class="cls-9" d="M59.64,99.29c-.3.26-.62.54-1,.29-.26-.14,0-1-.65-.59-1.62.91-1.27-.29-1.27-1.14l0-41.69c0-2.79,0-5.59,0-8.39a3.72,3.72,0,0,0-1-2.77,21.19,21.19,0,0,1-3.45-6.67,4.47,4.47,0,0,1,1.73,2.22c.61,1,1.15,2.1,1.73,3.15.31.57.66,1.18,1.38,1.17s.69-.77.94-1.23c1.16-2.16,2.31-4.32,3.66-6.39a8.5,8.5,0,0,1-1.68,4.5c-2,2.79-2.52,5.8-2.48,9.2.14,15,.06,30,.06,45.05a7.67,7.67,0,0,1,0,1c-.12,1.12.29,1.68,1.48,1.51a7.46,7.46,0,0,1,1,0C60.37,98.93,59.9,99.06,59.64,99.29Z"/><path class="cls-10" d="M85.56,85,87.5,83.5a.28.28,0,0,1,.5,0l-.11,1a10.83,10.83,0,0,0,0,4.32.47.47,0,0,1,.1.44c.17.54-.11.65-.57.58l0,0c-.6-.28-.72-1-1.24-1.53-.41,1,1.16,1.62.39,2.52a43.2,43.2,0,0,0-2.52,10c-.2.66-.62,1.27-.32,2a2.05,2.05,0,0,1,0,1.63c-.41.89-.66,2.31-1.9,2s-1.74-1.46-1.66-2.79c.13-2.27.64-4.49.64-6.76.61-4,2.52-7.33,4.59-10.64C86.08,86,85.16,85.37,85.56,85Z"/><path class="cls-11" d="M286.69,5.75l.9.9a12.61,12.61,0,0,1-2.73,3c-6.33,6.07-12.6,12.19-18.33,18.84-1,1.16-1.53,2.87-3.3,3.29a.37.37,0,0,1-.07-.6l9.28-10.64c-3.32,2.35-6,5.47-9.08,8.2-.56-1,.07-1.28.43-1.62,6.85-6.47,13.41-13.23,20.39-19.56A11.61,11.61,0,0,1,286.69,5.75Z"/><path class="cls-12" d="M213.2,106.07A9.3,9.3,0,0,1,210,108a36.5,36.5,0,0,1-7.22,2.21,4.68,4.68,0,0,1-3.46-.31c-.3-.59-1.52.29-1.44-.9.45-.26.24-.52,0-.69-2.86-1.77-3.71-4.64-4.33-7.68-1.57-7.61-.69-15.08,1.25-22.49.91-3.47,1.78-7,2.66-10.43,1.31.31.57,1.22.55,1.91a60.83,60.83,0,0,0-3.45,18c0,2.3-.6,4.58-.58,6.91a23.9,23.9,0,0,0,2,9.78,8.1,8.1,0,0,0,4.79,4.29c3.4,1.38,6-.5,8.89-1.28a20.63,20.63,0,0,0,3.62-1.79.39.39,0,0,1,.13.36C213.27,106,213.24,106.07,213.2,106.07Z"/><path class="cls-13" d="M60.2,101.79c-.64-.21-1.41.18-2-.43a3.77,3.77,0,0,1,2.09-1,59.44,59.44,0,0,0,6.36-2c.32-.26.78-.12,1.1-.38a21.72,21.72,0,0,1,6.43-1.84,13.18,13.18,0,0,1-5.7,3.33c-1.23.42-1.7,1.07-1,2.39a16,16,0,0,0,4.68-2.29c.57-.39,1.13-.88,1.59.18.06.12.59-.09.83-.32.94.92-.53.82-.56,1.33-1.77,2.47-4.74,3-7.18,4.34a8.86,8.86,0,0,1-4.57,1.19c-1.38-.15-2.87.41-4.1-.66-.11-1.7,1.29-1.81,2.37-2.15a17.55,17.55,0,0,0,5.11-1.91C63.81,101.69,62.07,103.07,60.2,101.79Z"/><path class="cls-14" d="M247.27,131c-.84-1.71-.26-3.53-.4-5.29-.09-1.16.12-2.36-.57-3.42a4,4,0,0,1-.71-3q0-9.95,0-19.9a4.1,4.1,0,0,1,.69-3,2.74,2.74,0,0,1,1.51.92c-.7.32-.44,1-.44,1.47,0,1.68,0,3.36,0,5,0,.82-.26,1.68.7,2.34.52.35.23,1.2.23,1.83,0,4.21,0,8.42,0,12.57.81.39,1.37-.74,2.31,0-2.75.78-2.31,3-2.32,4.94,0,.24,0,.48,0,.72C248.32,128,248.4,129.61,247.27,131Z"/><path class="cls-3" d="M220.38,61c-1.44,0-2.08,1.13-2.84,2.11-.38.5-.86.82-1-.22a2.44,2.44,0,0,0,.68-1.19c0-.41,1.78-1.22-.23-1.26-.09-.32,0-.76.23-.82,2.08-.45,2.22-2.44,3.11-3.83.65-1.53.35-2.84-1.14-3.61s-1.14-2.54-2.16-3.59c-.8.5-.71,1.39-1,2.09s-.5,1.43.9,1.76c1.13.26,1.7,2.13,3.45,1.49.15-.05.26,1.1,0,1.7a1.73,1.73,0,0,1-2.82.51,36.94,36.94,0,0,0-3.31-1.7c-1.52,3.65-1.33,4.06,2.77,6.13-.14,1-.93.51-1.4.62s0,.46-.05.14c0-.11.21-.11.39-.11,1.74.07.91.95.54,1.69-.51-.06-.61-1.38-1.44-.48-.05.49-.22,1-.77,1s-.65-.58-.73-1.06.8-1.25-.25-1.8c-1.62-.84-1.59-2.44-1.47-4a7.85,7.85,0,0,1,1-3.4,20.41,20.41,0,0,0,2.81-7.52c2.62.71,3.44,1.78,3.79,4.83.63,0,.66-1,1.3-.78s.49.73.64,1.17a9.57,9.57,0,0,1-1.41,8.6C219.45,60.37,220.09,60.5,220.38,61Z"/><path class="cls-15" d="M77.87,120c1.7-1.4,3.9-1.76,5.81-2.75,4.16-2.16,8.36-4.28,12.63-6.21a196.62,196.62,0,0,1,26.58-9.34A84,84,0,0,1,134.28,99c.68-.1,1.39-.39,2,.2-.07.14-.12.37-.19.38-6.54.72-12.74,2.84-19,4.71a118,118,0,0,0-12.68,4.26,183,183,0,0,0-17,7.69c-2.92,1.61-6.06,2.82-9.1,4.21C77.85,120.66,77.77,120.41,77.87,120Z"/><path class="cls-16" d="M21.72,129.09c.65-.07.86-.33.26-.77s-1-.59-.25-1.16c1.62-1.19,3.11-2.61,5.24-2.88.43.18.83-.37,1.27,0,0,.57-.7.54-.77,1l-1.92,1.92c-.49.36,0,1.08-.49,1.43a19.69,19.69,0,0,0-2,9.18c.07,1.46-.59,2.3-1.93,2.4-.88.07-1.42-.31-1.43-1.19C19.71,135.56,19.73,132.12,21.72,129.09Z"/><path class="cls-17" d="M4.38,9.93c.25.19.56.59.74.53,1-.3,1.17.65,1.7,1a56.22,56.22,0,0,0,9.56,5.89,2.69,2.69,0,0,0,3.26-.17,28.31,28.31,0,0,1,5.27-2.81c.77-.39,1.62-.64,2.06-1.49.75-.18,1.44-.53,1.56.82a24.42,24.42,0,0,1-.48,6.39c-.2.6.29,1.44-.92,2.11l.48-8.33-8,4.39c.06,1,1.21.75,1.43,1.41.11.18,0,.31-.19.27-1.59-.25-1.92-.09-1.72,1.34a16.11,16.11,0,0,1-.16,4.05c-.08.78-.56.56-1,.46,0-1.92,0-3.83.07-5.74a1.34,1.34,0,0,0-.83-1.51A57.93,57.93,0,0,1,5.89,11.85a.58.58,0,0,0-.75-.06c-.4,2.2.18,4.56-.37,7.06C3.88,17.09,3.73,12.25,4.38,9.93Z"/><path class="cls-18" d="M217.07,32.13l1.5-.84a22.77,22.77,0,0,1,6.18-2.88c-2.23,1.72-4.8,2.86-7,4.6a56.19,56.19,0,0,0-11.86,12.67,83.63,83.63,0,0,0-11.37,25.15c-.22.76-.54,1.49-.81,2.24-.34-.06-.38-.39-.55-.6a74.55,74.55,0,0,1,3.15-10,86.06,86.06,0,0,1,6.11-12.91A67.84,67.84,0,0,1,217.07,32.13Z"/><path class="cls-19" d="M250.15,20.25c6-7.52,13.33-13.67,20.51-20.25.47,1.21-.16,1.8-.76,2.41-1.78,1.82-3.54,3.66-5.33,5.48-3.91,4-7.52,8.24-11.56,12.09C252.1,20.85,251.29,21.33,250.15,20.25Z"/><path class="cls-3" d="M29.92,21.55c0-.32-.59-.62-.05-1,.49.25,1,.55,1.48.76,1,.4.92.79.71,1.9a50,50,0,0,0-.43,7.85.85.85,0,0,0,.81,1,10.11,10.11,0,0,1,2.43.94c.6.2,1.27.18.84,1.17-.19.42.35.35.64.39s.54.2.32.3c-2,.94-1,2.7-1,4-.09,9.32,0,18.65,0,28,0,.92.3,1.9-.32,2.76a.61.61,0,0,1-.24-.15c-.29-5.82,0-11.65-.14-17.47a5.68,5.68,0,0,0-.2-2.59q-.08-6.68-.14-13.33c-.81-.64-.29-1.77-.92-2.48a3.3,3.3,0,0,0-.41-.23c-3-1.39-3.06-1.39-2.84-4.69a46.87,46.87,0,0,1,.54-5.43C31.12,22.24,30.85,21.78,29.92,21.55Z"/><path class="cls-20" d="M193.12,72.47l.55.6c-.67,2.94-1.75,5.79-2.14,8.8-.32,2.52-.39,5.07-.61,7.57a40.63,40.63,0,0,0,.83,11.36c.7,3.58,2.34,6.75,6.11,8.17.27.63,1.11.36,1.44.9a6,6,0,0,1-5.87-2.88c-2.22-3.14-2.82-6.71-3.22-10.37-.22-2-.31-4.11-.47-6.4H186.3c-.93-.11-.79-.73-.64-1.35.48-.6,1.14-.42,1.75-.34,1.34.18,2.17-.22,2.16-1.73s-1-1.94-2.39-1.78c-.71.08-1.39.28-2.09.43s-.88-.18-1-.74c0-.36.14-.68.6-.66,1.63-.17,3.21-.88,4.9-.46.89.22.79-.53.88-1A73.47,73.47,0,0,1,193.12,72.47Z"/><path class="cls-21" d="M77.87,120l.5.5c-4.49,2-8.41,5-12.89,7.08a118.44,118.44,0,0,0-10.89,5.94c-1.85,1.1-4,1.65-5.73,2.89-5.6,3.9-11.67,7.09-17,11.33a6.09,6.09,0,0,1-2.92,1.52l0,0a.84.84,0,0,1,.46-.77c2.86-1.9,5.38-4.28,8.42-5.89a69.29,69.29,0,0,0,6.23-4,84.83,84.83,0,0,1,8.85-5.17c3.17-1.64,6.36-3.31,9.45-5.14,3.62-2.15,7.56-3.73,11-6.15A15.13,15.13,0,0,1,77.87,120Z"/><path class="cls-22" d="M80.35,164.64c4-2.71,7.08-5.78,10.36-8.64a20,20,0,0,1,4-2.68,7.17,7.17,0,0,1,3.93-.85c1.27.09,2.56.06,3.83.17a8.2,8.2,0,0,0,7-3,15.47,15.47,0,0,1,5.84-4.48,2.64,2.64,0,0,1,2.53,0c1.49,1,2.85.5,4.3-.15s2.86-1.41,4.9-.91l-6.51,2.43a3.18,3.18,0,0,1-2.54-.37,3.33,3.33,0,0,0-3.19.21,13.59,13.59,0,0,0-3.61,2.73,21,21,0,0,1-2.74,2.67,9.31,9.31,0,0,1-7.74,1.68c-3.65-.78-6.4.68-9,2.82s-5.06,4.4-7.63,6.56A6.35,6.35,0,0,1,80.35,164.64Z"/><path class="cls-23" d="M15.1,117.91a1.89,1.89,0,0,0,.37,1.1l0,7.61a3.37,3.37,0,0,1-.24,1.63,1.61,1.61,0,0,1-1.53.93,1.44,1.44,0,0,1-1.4-1.08,2.35,2.35,0,0,1-.07-1.63c.64-1.75.37-3.62.76-5.39.34-1.53-.68-2.91-.41-4.43,0-.7-1.27-.58-.92-1.48.28-1.54.36-3-1.24-4-.42-.26-.22-.67.13-.94a1.16,1.16,0,0,1,1.57.59A5.16,5.16,0,0,0,13,112.9c.29,1.17.37,2.42,1.41,3.25C14.3,116.87,15.14,117.22,15.1,117.91Z"/><path class="cls-24" d="M185.85,88.8c.12.48-.15,1.09.45,1.42A5.54,5.54,0,0,1,187.65,94a26.71,26.71,0,0,1-.16,5.72c-.17.87-.4,1.78-1.46,1.94-.7.11-1.47.19-1.94-.56s-1-1.62-.25-2.62a6.59,6.59,0,0,0,1-4.33,24.28,24.28,0,0,0-.93-3.26c-.16-1-.41-2-.66-3-.19-.7-.29-1.49.5-1.86,1-.48,1.13.52,1.46,1.06A3.19,3.19,0,0,1,185.85,88.8Z"/><path class="cls-25" d="M268.92,47c-1.37,0-1.29-.72-.68-1.49,1.44-1.8,2.91-3.58,4.46-5.29,3.06-3.36,6-6.85,9.31-9.95a47.86,47.86,0,0,1,5-3.63,2.83,2.83,0,0,1-1.29,1.92,82.38,82.38,0,0,0-7.56,8.28c-2.52,3-5.37,5.67-8.09,8.48-.49.51-1.14.9-1.2,1.71Z"/><path class="cls-15" d="M155.68,149.19a10.66,10.66,0,0,1,4.38,4.33c-1.22-.24-1.68-1.12-2.3-1.69a7.45,7.45,0,0,0-2.69-1.93,2.52,2.52,0,0,0-3.15,1,2.43,2.43,0,0,0,.56,3.24,5.61,5.61,0,0,0,4.65,1.74.83.83,0,0,1-.36,1.29,2,2,0,0,0-1.09,2.42c.32,1,1.38,1,2.22,1.09,1.34.15,2.69.15,4.09.21a2.84,2.84,0,0,1,0,.72c-.57,2.28-.13,2.82,2.21,2.61a4.69,4.69,0,0,0,1.39-.32,2.48,2.48,0,0,1,3.21.71c1,1.22,2.64,1.32,3.93,2.09a3.71,3.71,0,0,1-3.83-1,2.78,2.78,0,0,0-3.94-.74.9.9,0,0,1-.23.08c-2.54.57-3.91-.5-3.91-3.12a7.91,7.91,0,0,0-2.57-.24c-3.47-.35-4.2-1.45-3-4.65a8.29,8.29,0,0,0-2.06-1.09c-1.9-1-2.89-2.55-2.62-4.16a3.6,3.6,0,0,1,3.49-3.06C154.76,148.42,155.13,149.06,155.68,149.19Z"/><path class="cls-26" d="M210.51,148.39a9.8,9.8,0,0,1-6.23-2.38,20.55,20.55,0,0,1-4.86-5.24,6.54,6.54,0,0,0-6.56-3.42,24.59,24.59,0,0,1-4.54-.07c-3.73-.4-6.52-2.5-8.74-5.33-1.76-2.24-3.82-3.5-6.73-3.33-1.67.09-3.35,0-5,0a5.57,5.57,0,0,1-3.49-1,55.18,55.18,0,0,0,9.84.37c2.55,0,4.32,1.34,5.83,3.24,2.25,2.83,5,4.88,8.73,5.3a22.23,22.23,0,0,0,4.54.07,6.69,6.69,0,0,1,6.75,3.53c1.27,2.1,3.16,3.58,4.81,5.29a4.9,4.9,0,0,0,1.63,1C207.83,147,209.16,147.73,210.51,148.39Z"/><path class="cls-22" d="M258.8,152.15c1-.16,1.65.84,3,.91a43,43,0,0,0-7.37-4.95c-1.78-1.05-3.7-1.9-5.36-3.1-.84-.61-1.59.76-2.34-.33a9.08,9.08,0,0,0-2.42-1.92c-.77-.56-1.58-1.07-2.38-1.6l-2.59-1.72c-.86-.57-1.76-1.1-2.6-1.69-.57-.4-1.31-.67-1.45-1.49a9.44,9.44,0,0,1,3.23,1.45q10.84,6.54,21.63,13.2a36.61,36.61,0,0,0,5.11,3.07c.47.2,1,.42,1.19,1.06l0,0c-2.29-.79-4.94-.31-6.95-2.05C259.29,152.7,258.83,152.63,258.8,152.15Z"/><path class="cls-27" d="M87.4,89.79l.57-.58c.77.86,1.11,2.15,2.64,2.48a28.22,28.22,0,0,0,.07-5.88c0-2.13.37-2.53,2.47-2,1.76.4,3.49.93,5.63,1.51a7.82,7.82,0,0,0-7-4.58c-.31-1.32,1.62-.28,1.33-1.47a.66.66,0,0,1,.6-.51l.55.45a1.64,1.64,0,0,0,.89.9,22.28,22.28,0,0,1,3.8,3.25,7.62,7.62,0,0,1,1.48,3,.8.8,0,0,1-.27.86.69.69,0,0,1-.87-.12c-2.17-1.7-4.82-1.79-7.54-2.29v6.11c0,.64.05,1.37-.63,1.68a1.88,1.88,0,0,1-2-.51A5.53,5.53,0,0,1,87.4,89.79Z"/><path class="cls-28" d="M158.21,146.91c-1.86-1.11-3.78-2-5.7-2.94a13.71,13.71,0,0,0-10-.69c-6,1.66-11.64,4.35-17.36,6.79a46.8,46.8,0,0,0-9.36,5.18,4.45,4.45,0,0,1,2.14-2.3c4-2.61,8.54-4.31,12.94-6.18a72.22,72.22,0,0,1,12.34-4.48c5.3-1.19,9.92.42,14.16,3.5a3.61,3.61,0,0,1,.66.69A1.52,1.52,0,0,1,158.21,146.91Z"/><path class="cls-29" d="M206.5,77.73c1.06,1.47.39,2.93-.22,4.25a14.93,14.93,0,0,1-3.6,5,2.7,2.7,0,0,1-4.17-.14c-1.54-1.58-1.5-3.5-1-5.36a13.68,13.68,0,0,1,3.39-5.68,2.91,2.91,0,0,1,3.23-1c1.28.48,2.47,1.22,2.36,2.91a.84.84,0,0,1-.86-.22c-2.52-1.89-3.61-1.61-5,1.29a17.09,17.09,0,0,0-1.14,4.62,1.59,1.59,0,0,0,.72,1.86,1.92,1.92,0,0,0,2-.33c1.76-1.16,2.57-3,3.32-4.84C205.9,79.34,205.8,78.38,206.5,77.73Z"/><path class="cls-30" d="M210.29,155.36a34.49,34.49,0,0,1,10.78,1.52,5.4,5.4,0,0,1,3,2.94c1.82,3.49,4.43,6.08,8.45,6.8a30.51,30.51,0,0,0,5.23.43c3.9,0,5.4,1.52,5.6,6.06-1.12-.17-.85-1.17-1.06-1.82-.88-2.73-1.4-3.1-4.22-3.29a40.9,40.9,0,0,1-6.36-.75,11.79,11.79,0,0,1-8.07-6.57,6.55,6.55,0,0,0-5.39-3.79C215.57,156.5,212.93,155.88,210.29,155.36Z"/><path class="cls-31" d="M202.46,100.62c1.19,1.24,2.49.54,4,.2a3.18,3.18,0,0,1-3.72,1.31c-1.21-.32-1.59-1.44-1.76-2.61a11.81,11.81,0,0,1,3.2-10.31c1-1,2.08-2,3.55-1.19s2.82,1.89,2.6,3.7a11.5,11.5,0,0,1-5.18,8.73C204.29,101,203.38,100.68,202.46,100.62Z"/><path class="cls-32" d="M184.32,90.56a4.46,4.46,0,0,1,.55,3.54c-.45-.42-.14-1.18-1.17-1.5-1.49-.45-1.62-2.17-1.8-3.73a29.68,29.68,0,0,1-6.06,2.82,9.41,9.41,0,0,1-1.1.45c-1.54.38-2.08-.1-1.88-1.67a8.58,8.58,0,0,1,2.54-5c.32-.32.84-.47.88-1l.23-.33c2.86-1.38,5-1,6.22,1-.58,1.08-1.54.61-2.34.5-2.41-.36-4,.84-5.15,2.7-.33.51-.81,1.15-.27,1.74s1,0,1.55-.12a11.07,11.07,0,0,0,6-4.47c1.58.57.38,1.84.66,2.74S182.63,90.37,184.32,90.56Z"/><path class="cls-33" d="M108.55,134.82a11,11,0,0,1,9.32-7.54,8.06,8.06,0,0,1,3.28.4,5.72,5.72,0,0,0,6.39-2.06c.46-.55,1-1,1.52-1.52a5.73,5.73,0,0,1,5.92-1.65c2.15.51,4.24,1.31,6.77,2.11-1.93.4-3.28-.21-4.66-.56-.93-.24-1.82-.61-2.75-.8a4.81,4.81,0,0,0-4.23,1.1,5.27,5.27,0,0,0-.87.83c-2.44,3.21-5.45,4-9.48,3.21s-7.3,1.07-9.44,4.67c-.44.76-.85,1.53-1.28,2.3C108.6,135.42,108.37,135.33,108.55,134.82Z"/><path class="cls-34" d="M262.71,34l-.24,0h-.23a15.4,15.4,0,0,1-.1-1.66,1.46,1.46,0,0,0-.94-1.49,60.17,60.17,0,0,1-11.27-7.46c-.1-.09-.3-.05-.52-.08,0,1-.11,2-.16,3-.15.22-.31.23-.48,0a8,8,0,0,1-.07-2.62c.15-1.52.46-1.72,1.78-1.1a10.1,10.1,0,0,1,1.66.94,49.5,49.5,0,0,0,5.4,3c1.12.62,2.79.52,3.06,2.54.09.75,1.66,1.31,2.56,1.95l.07.6C262.6,32.4,263,33.31,262.71,34Z"/><path class="cls-35" d="M209.36,57.07c1.19.15,1.45,1.15,1.74,2,1.16,3.48-2.08,9-5.71,9.76a5.56,5.56,0,0,1-1.4-.06l.27,1.08c-.18,0-.39.07-.47,0a5.27,5.27,0,0,1-1.56-5,13.35,13.35,0,0,1,4.54-7.64c.77-.72,1.7-1.21,2.62-.12A11.84,11.84,0,0,0,204,64.59c-.25.94-.4,2,.64,2.55s1.66-.1,2.37-.63c2.41-1.8,3.66-5.47,2.47-8.07A1.45,1.45,0,0,1,209.36,57.07Z"/><path class="cls-36" d="M80.78,96.93a1.61,1.61,0,0,1,.38,1.76,5.41,5.41,0,0,0-.12,3.7.86.86,0,0,1-.19.88c-1,1.27.69,1.81.79,2.81,0,.23.61.21.74-.14a11,11,0,0,1,1.17-2.29c.07-.11.07-.4,0-.44-2.22-1.32.59-1.58.5-2.44.26,1.48,0,3,.53,4.49a2.55,2.55,0,0,1-1.3,2.87,2.35,2.35,0,0,1-2.7-.25,2.28,2.28,0,0,1-1-2.71c.54-1.94.05-4,.62-5.94A8.75,8.75,0,0,1,80.78,96.93Z"/><path class="cls-37" d="M184.74,84.05l-.31.4c-.85,1-1.24.7-1.1-.46s.81-2.25.63-3.48a4.51,4.51,0,0,0-.56-1.8c-.34-.54-.79-1.19-1.49-.9s-.22,1-.09,1.47a28.37,28.37,0,0,0,1.2,3.1c.19.5.49,1.11-.07,1.53s-.86-.13-1.29-.29c-1.95-.74-3.85-1-5.41.86l0,0c-.73,0-1.36-.14-.92-1.05a3,3,0,0,1,2.57-1.87,6.77,6.77,0,0,1,3.31.43c-.57-1.78-1.09-3.3-1.57-4.84-.25-.83-.09-1.31,1-1.35,3.35-.12,5.52,2.65,4.82,6.3A12.31,12.31,0,0,1,184.74,84.05Z"/><path class="cls-38" d="M199.29,61.88a27.36,27.36,0,0,1,2.93-6.27c3.43-6.24,7.12-12.32,12.26-17.36.74-.72,1.53-1.41,2.31-2.09.08-.07.28,0,.78,0a75.93,75.93,0,0,0-15.88,22.37c-.45,1.45-.61,3.07-2.19,3.89,0,0-.14-.07-.19-.12A.37.37,0,0,1,199.29,61.88Z"/><path class="cls-39" d="M286.83,51.17c-6.39,7-13.54,13-19.41,20.36-.6-.77-.09-1.1.16-1.43a75.5,75.5,0,0,1,8.79-9.44c3.14-2.94,6.14-6,9.22-9A1,1,0,0,1,286.83,51.17Z"/><path class="cls-40" d="M33.64,33.62a2.28,2.28,0,0,1,.92,2.48l-7.1,3.22a14.1,14.1,0,0,0-5.05,1.25c-.64.3-1.51,1.09-2.06-.21A72.18,72.18,0,0,1,29,36.48c1.31-.56,2.58-1.18,3.87-1.8C33.31,34.48,33.73,34.22,33.64,33.62Z"/><path class="cls-41" d="M93.7,78.72l-.6.51c-2.26-.88-2.33-.86-4,1-.21.24-.4.49-.78.37s-.26-.5-.35-.78c-.66-2-2.18-2.92-4.63-2.59.21.91,1.1,1,1.67,1.45a5.26,5.26,0,0,1,2.17,2.43c.23.66-.49.35-.77.5,0-1.35-1.21-1.72-2-2.39-.49-.39-1.11-.63-1.63-1s-1.32-.43-.92-1.36a1.74,1.74,0,0,1,1.77-1.3,6.4,6.4,0,0,1,4.69,2c.52.58.78,1,1.69.5A2.91,2.91,0,0,1,93.7,78.72Z"/><path class="cls-37" d="M288.18,72.45c.67.76.38,1.68.39,2.53,0,5.11,0,10.22,0,15.33,0,.76-.26,1.61.4,2.27.18,4,.13,8.07,0,12.13-.94-.13-.82-.7-.82-1.14Z"/><path class="cls-42" d="M71.54,153c1.29-4.13,2.19-4.85,6.45-4.8a16.28,16.28,0,0,0,8.27-1.88,8.05,8.05,0,0,0,3.9-4.34c.23-.63.32-1.42,1.32-1.71-.55,4-3,6.21-6.42,7.62a17,17,0,0,1-6.54,1.19c-.56,0-1.11,0-1.66,0-2,.17-3.7.86-4.24,3.1a7.63,7.63,0,0,1-.57,1.32C71.63,153.6,71.41,153.49,71.54,153Z"/><path class="cls-43" d="M170.06,163.56c.24-.41.68-.38,1.06-.49a1.56,1.56,0,0,1,1.57.22,70.62,70.62,0,0,0,16,6.67,2.62,2.62,0,0,1,1.62.92c0,.45-.18.73-.7.54a20.23,20.23,0,0,1-6.23-1.51A54.38,54.38,0,0,1,170.06,163.56Z"/><path class="cls-44" d="M20.35,40.36c.4.57.79.18,1.2,0,1-.43,2-.85,3-1.24a3,3,0,0,1,2.9.2A61,61,0,0,1,17.35,44.1c0-.32.74-.54.25-.89s-.78.32-1.23.35c-.34-.62-.1-1,.47-1.32Z"/><path class="cls-14" d="M213.2,106.07l0-.55c.38-1.68-.09-3.43.44-5.1.33-.44.88-.36.75.09-.33,1.11,1,2.19-.17,3.33-.56.53,1,.31.79,1-.18.57-1.47,1.14,0,1.68-.31.72.33,1.52.24,1.91-.41,1.7.22,3.61-1,5.11-.12.16-.44.15-.67.21Z"/><path class="cls-45" d="M286.28,55.76a5.23,5.23,0,0,1-.56.75A171.09,171.09,0,0,0,268.5,75.4a2.31,2.31,0,0,1-1.69,1.12,43.69,43.69,0,0,1,2.73-3.84,202.64,202.64,0,0,1,15.2-16.22c.4-.38.76-.84,1.37-.89Z"/><path class="cls-3" d="M171.51,146.81c-.59.09-1.15.18-1-.75a4.39,4.39,0,0,0-1-3.35c-.35-.49-.76-.85-1.39-.68-.78.21-.57.85-.52,1.38s.39.9-.11,1.54c-1.39-.58-1.54-2-2.15-3.13s-1-2.34-2-3.24c-.56,1.8-.56,1.8,1.5,5.91a6.32,6.32,0,0,1-2.64-5.58c0-.46.06-1,.6-1.19a1.2,1.2,0,0,1,1.28.43,11.55,11.55,0,0,1,1.91,3.29c.15.27.24.56.37.86,2.09-1.58,3.31-1.27,4.43,1.08a6.62,6.62,0,0,1,.63,3.48Z"/><path class="cls-46" d="M233.78,43.63a1.39,1.39,0,0,1-.45-1.06c.08-1.59.11-3.19.24-4.77a13.6,13.6,0,0,0-.61-5.2c-.89-2.9-2.33-4-5.4-4.14a2.36,2.36,0,0,1-1.4-.28c0-.72.5-.66,1-.7,3.34-.27,5.73,1.41,6.79,4.79,1,3.14.66,6.32.25,9.5C234.08,42.4,233.91,43,233.78,43.63Z"/><path class="cls-41" d="M261.85,89.14c3.15,2,6.27,4,9.55,5.83.41.22.93.43.6,1a.68.68,0,0,1-1,.25,83,83,0,0,1-10.5-6.55c-.2-.15-.11-.41.14-.54A1.37,1.37,0,0,1,261.85,89.14Z"/><path class="cls-47" d="M1.06,36l.12.46c1.37-.7,2.12.47,3,1.06a75.44,75.44,0,0,0,7.24,3.65A11.59,11.59,0,0,1,14.53,43c-1.53,0-2.46-1-3.63-1.2-.17.5.35.69.36,1.17a12.2,12.2,0,0,1-3.61-2.16,29.35,29.35,0,0,0-5.57-3.2c-.86-.41-.9.24-1.06.76-.13.19-.26.2-.39,0L.51,36A.38.38,0,0,1,1.06,36Z"/><path class="cls-48" d="M238.86,129.06c-4.69-1.51-13.81-6.78-15.11-8.73C226.54,121.12,237.48,127.45,238.86,129.06Z"/><path class="cls-49" d="M37.1,127.63l.47-.48.4.87c-.51,2.34-.27,4.71-.53,7-2.17.26-4-1.13-5.94-2.32-2.17-1.34-4.3-2.74-6.44-4.11,0-.54-.12-1.11.49-1.43,0,.37-.19.84.26,1.07,3.65,1.87,6.91,4.47,10.8,5.91.07,0,.16,0,.43-.07C37.27,132,36.72,129.78,37.1,127.63Z"/><path class="cls-50" d="M199.44,157.77a20.33,20.33,0,0,0,7.64,2.52,22.31,22.31,0,0,1,11.54,4.78c.41.35.43.33,1,1.86-.66-.51-1.12-.83-1.53-1.19-3.58-3.14-8-4.14-12.5-4.88-2.37-.39-4.71-.89-6.39-2.85C199.13,157.78,199.22,157.7,199.44,157.77Z"/><path class="cls-51" d="M155.68,149.19a3.44,3.44,0,0,1-1.59-.52c-2.69-2-5.59-1.22-8.47-.62-4.13.86-8.1,2.27-12.14,3.43-.3.09-.59.25-.91.08,0-.68.65-.65,1.08-.81A92.46,92.46,0,0,1,146.92,147a12.9,12.9,0,0,1,5-.11A5.72,5.72,0,0,1,155.68,149.19Z"/><path class="cls-21" d="M24.17,80.71c0-.42-.08-.86.45-1C28,82,31.73,83.5,35.2,85.59c.59.35,1.21.65,2,1.07-1.14.62-1.83.13-2.6-.22A59.42,59.42,0,0,1,24.17,80.71Z"/><path class="cls-52" d="M71.54,153l.51.52c-2.13,3-5.36,3.77-8.69,4.33-.7.11-1.46-.07-2.15.06-1.75.32-3.5.64-3.64,3a2,2,0,0,1-1.18,1.67c.09-1.16,1-2.06.6-3.2-.12-.38.49-.77.9-1a7.9,7.9,0,0,1,4.49-1.43A11.83,11.83,0,0,0,71.54,153Z"/><path class="cls-38" d="M67.29,151.15l.49.49c-1.81,2.55-4.53,3.5-7.42,3.71a7.29,7.29,0,0,0-4.48,1.92c-1.49,1.3-2.91,2.69-4.36,4l-.13-.14A17.4,17.4,0,0,1,58,154.88a2.31,2.31,0,0,1,1.11-.36A11,11,0,0,0,67.29,151.15Z"/><path class="cls-17" d="M17.3,6.8l1.55.82c2.23,1.22,4.48,2.42,6.71,3.66.67.37,1.53.62,1.45,1.67-3.82-1.69-7.73-3.17-11.1-5.72-.6-.46-1.43-.76-1.43-1.74Z"/><path class="cls-53" d="M128.81,138.51a4.91,4.91,0,0,1,3-.1,4.38,4.38,0,0,0,3.83-.75c.86-.56,1.75-1.08,2.65-1.59a7,7,0,0,1,5.76-.49c1.5.46,3,.89,4.92,1.45a3.84,3.84,0,0,1-3.21-.05,8.78,8.78,0,0,0-9.59,1.29,4.88,4.88,0,0,1-4.32.8A18.93,18.93,0,0,0,128.81,138.51Z"/><path class="cls-54" d="M199.29,61.88c.8,0,.73-.79,1-1.22.5-.68.65-1.59,1.36-2.14a1.78,1.78,0,0,1,.21,1.55c-1.29,3.18-2.44,6.42-4,9.52-.21-.63.32-1.47-.55-1.91Z"/><path class="cls-42" d="M259.06,86.71c-.07-.39.05-.61.26-.72,2.49-1.29,5-2.57,7.47-3.83a17.36,17.36,0,0,1,1.78-.71c.38-.14.81-.28,1,.26.11.36-.21.58-.48.72-1.42.74-2.86,1.44-4.28,2.17-1.21.62-2.4,1.26-3.6,1.9A2,2,0,0,1,259.06,86.71Z"/><path class="cls-55" d="M54,125.19c.32,0,1-.1.54.49a8,8,0,0,1-2,1.63c-3.1,1.95-6.47,3.44-9.53,5.48a1.41,1.41,0,0,1-1.94-.14c1.45-.79,2.83-1.51,4.19-2.29,2.62-1.5,5.45-2.64,7.77-4.64C53.21,125.3,53.41,124.86,54,125.19Z"/><path class="cls-27" d="M85.56,85c.81,1.19.81,1.19-.19,1.3-1.18-.55-2.09.39-3.13.58-1.39.24-1.82-.14-1.5-1.5a4.41,4.41,0,0,1,2.64-3.2,10.12,10.12,0,0,1,2.54-.55c.42.34,1.16.85,0,.93a4.27,4.27,0,0,0-4,2.41,4.51,4.51,0,0,0-.16.79C83.11,86,84.25,85,85.56,85Z"/><path class="cls-56" d="M.63,38.38H1q.28,12.47,0,24.94H.57c0-6.49-.07-13-.07-19.48C.5,42,.58,40.2.63,38.38Z"/><path class="cls-57" d="M54,125.19l-1,.53V109.9c.53.33.25,1.11.8,1.43a.88.88,0,0,1,.29.67,10,10,0,0,0,.31,4.1c.1,1.79.6,3.61-.5,5.28l-.08.12a1.67,1.67,0,0,0,.08,1.84Z"/><path class="cls-58" d="M74.44,38.78v1.11a2.12,2.12,0,0,1-2.31-.81,3.4,3.4,0,0,0-1.69-1.43c-.88,1.77-.61,4-2,5.55a25.52,25.52,0,0,1,1.74-7.92c.76,1.86,2.17,2.56,3.2,3.65C73.64,39.23,74.11,39,74.44,38.78Z"/><path class="cls-59" d="M108.55,134.82l.49.49c-.87,2.06-3,2.61-4.67,2.75A23.49,23.49,0,0,0,97,139.58a9.06,9.06,0,0,1,6.1-2.33A6.67,6.67,0,0,0,108.55,134.82Z"/><path class="cls-21" d="M189.24,107.47a30.21,30.21,0,0,0-8.76-3.38,1.08,1.08,0,0,1-1-1.32,44.41,44.41,0,0,1,8.23,2.74,2.32,2.32,0,0,1,1.45,2Z"/><path class="cls-21" d="M200.71,113.77c-.85.88-1.41-.09-2-.4-.9-.48-1.68-1.18-2.8-1.06a61.85,61.85,0,0,0-6.14-4.16c-.28-.15-.54-.31-.54-.68l0,0c2.84.72,5.08,2.61,7.61,3.92C198.16,112.13,199.42,113,200.71,113.77Z"/><path class="cls-60" d="M269.33,47,278.79,38c-.34.74-.13.3,0,.6a.23.23,0,0,1,0,.2c-2.85,3-5.77,5.9-8.85,8.65A.62.62,0,0,1,269.33,47Z"/><path class="cls-61" d="M273.77,107c-.6-.44-1.55-.06-2-.84.87,0,1-.49,1-1.21q0-2.85,0-5.7a2.82,2.82,0,0,1,.68-2.2C274,100.63,273.55,103.81,273.77,107Z"/><path class="cls-62" d="M250.08,125.49c.74,2,.79,6.66.23,9.18C249.58,133.4,249.39,128.37,250.08,125.49Z"/><path class="cls-63" d="M11.63,115.17c.23.54,1.2.63.92,1.48-1.11-.78-1.06.5-1.47.88-.78.73-1.1.74-1.49-.28-.62-1.68-1.15-3.39-1.9-5.61,1.9,1.36,2,3.13,2.66,4.58C11.06,116.15,11.12,115.39,11.63,115.17Z"/><path class="cls-64" d="M2.39,111.2A8.22,8.22,0,0,1,6,108.73c-.09-1.36-1.15-1.69-2-2.23-.34-.22-1-.44-.63-1s.85,0,1.22.18a4.17,4.17,0,0,1,1.57,1c1.08,1.28.93,2-.53,2.9-.86.53-1.66,1.18-2.49,1.77A.5.5,0,0,1,2.39,111.2Z"/><path class="cls-65" d="M257.41,120.92c.72-.36.19-1.35,1-2a4.58,4.58,0,0,0,1.57,3.24c1.15.83.09,1.2-.28,1.73A4.41,4.41,0,0,1,257.41,120.92Z"/><path class="cls-66" d="M2,112.78c-.41,1-1.25,1.87-.74,3.21,1,.11,1.83-.7,2.85-.65.17.38-.2.56-.38.64-1.08.51-2.33,1.83-3.36.77s-.12-2.39.49-3.51a2.84,2.84,0,0,1,.49-.49A.39.39,0,0,1,2,112.78Z"/><path class="cls-67" d="M286.28,77.92a22.39,22.39,0,0,1-5.86,5.5C281.93,81.11,284.2,79.62,286.28,77.92Z"/><path class="cls-14" d="M214.27,117.1h.86c.36-.38.85-1.28,1.08-1,.59.75.93-.39,1.34,0a4.69,4.69,0,0,1-.08,1.41c-.55,1.49-1.46,1.65-2.58.49C214.64,117.77,214.19,117.6,214.27,117.1Z"/><path class="cls-68" d="M257.45,98.81c-.63-.36-1.56-.12-2-.93.64.05,1.28.21,1.26-.84,0-1.75,0-3.5,0-5.25a6.47,6.47,0,0,1,.43-2.66C257.57,92.45,257.4,95.63,257.45,98.81Z"/><path class="cls-62" d="M67.22,44.7A17.29,17.29,0,0,1,62.9,39,12.74,12.74,0,0,1,67.22,44.7Z"/><path class="cls-27" d="M86.57,90.81l-.25-.91c-.16-.64-1.19-.12-1.19-.83,0-.94.8-1.42,1.46-2.48l.83,3.23Z"/><path class="cls-69" d="M269.33,47l.54.5a25.63,25.63,0,0,1-3.61,3.65c.3-2.15,2.07-2.76,2.66-4.14l0,0A1.57,1.57,0,0,0,269.33,47Z"/><path class="cls-69" d="M143.41,151.22c1.71-.52,3.36-1.39,5.41-.77C147.71,151.16,146.55,151.35,143.41,151.22Z"/><path class="cls-70" d="M63.42,21.11c-.35.13-.71.4-1.07.05-1.11-1.07-2.26-2.13-2.27-3.86C61.23,18.53,62.62,19.56,63.42,21.11Z"/><path class="cls-22" d="M235.34,136.27A11.34,11.34,0,0,1,230,132.9,16.07,16.07,0,0,1,235.34,136.27Z"/><path class="cls-17" d="M10.73,6.81c-.5.2-1,.39-1.5.61s-.73.29-.94-.23C9.74,6.45,11.21,5.75,12.63,5c.67-.38,1.14-.39,1.53.31A10.11,10.11,0,0,0,10.73,6.81Z"/><path class="cls-71" d="M14.43,116.15c-1.67-1-1.78-1.22-1.41-3.25A7,7,0,0,1,14.43,116.15Z"/><path class="cls-21" d="M217.55,116.13c-.65.72-1.76.27-2.42,1,0-.34-.07-.68-.1-1,.33-.2.82-.31,1-.6.72-1.39,1.09-.39,1.55.16Z"/><path class="cls-72" d="M44.29,36.48a.86.86,0,0,0-1-.5,3.93,3.93,0,0,1,.12-.92,4.61,4.61,0,0,1,.59-.87,13.16,13.16,0,0,1,1.73,3.64l-.13.12C44.9,37.73,45.05,36.69,44.29,36.48Z"/><path class="cls-73" d="M2,112.78l-.65,0c.62-.93-.8-1.07-.7-1.86.65-.45,1.14.18,1.7.31l.77.15A2.46,2.46,0,0,1,2,112.78Z"/><path class="cls-27" d="M7.77,115.67l-2.38-1.14c.16-.64.65-.89,1.22-1.15C6.73,114.17,7.81,114.35,7.77,115.67Z"/><path class="cls-74" d="M247.05,137.43c0-.22,0-.34,0-.36.74-.5,1.47-1.11,2.45-.65a.44.44,0,0,1,0,.39A2.87,2.87,0,0,1,247.05,137.43Z"/><path class="cls-37" d="M282.7,88.86l.57-.5c1,.64,2.1.27,3.12.57,0,0,.05.12,0,.17s-.11.11-.16.16a4.76,4.76,0,0,0-3,.45C283.32,89.27,282.86,89.17,282.7,88.86Z"/><path class="cls-22" d="M256,150.17a4.67,4.67,0,0,1,2.84,2c-1,.15-1.48-.91-2.35-1.07l-.59-.81Z"/><path class="cls-21" d="M28.89,149.23c-.49,1.06-1.68,1.2-2.46,1.86a3.17,3.17,0,0,1,2.5-1.82Z"/><path class="cls-56" d="M1.06,36,.51,36C0,35.52.38,35.2.73,34.9a2.2,2.2,0,0,1,1.81-.34l0,0C2.37,35.35,1.28,35.22,1.06,36Z"/><path class="cls-75" d="M222.68,77c-.7-1.09-.33-2.2-.2-3.31A4.41,4.41,0,0,1,222.68,77Z"/><path class="cls-38" d="M51.52,161.31c-.63,1-1.65.95-2.62,1.06a6.54,6.54,0,0,1,2.49-1.2Z"/><path class="cls-71" d="M12.09,110.85l-1.57-.59c.75-.93,1.92-.14,2.79-1C13.21,110.31,12.45,110.39,12.09,110.85Z"/><path class="cls-42" d="M261.85,89.14l-1.23,0c-.2-.67-1-.92-1.18-1.93A7,7,0,0,1,261.85,89.14Z"/><path class="cls-43" d="M191.49,171.23l2.25.29c-.83.52-1.59.18-2.24.38l-.83-.11c-.22-.34,0-.52.26-.66A.78.78,0,0,1,191.49,171.23Z"/><path class="cls-3" d="M213.65,62.32c0,1.15.25,2.33-.36,3.42C213.26,64.58,212.9,63.39,213.65,62.32Z"/><path class="cls-62" d="M67.26,47.51h-.4A3.93,3.93,0,0,1,67,45.19,3.36,3.36,0,0,1,67.26,47.51Z"/><path class="cls-3" d="M191.3,171.22l-.63.57a1,1,0,0,1-1.08-.37l.58-.51C190.69,170.49,191.06,170.61,191.3,171.22Z"/><path class="cls-50" d="M199.18,158a4,4,0,0,1-.54-.46c-.21-.23-.46-.52-.07-.78.06,0,.36.22.51.39a4.08,4.08,0,0,1,.36.61Z"/><path class="cls-76" d="M230,63.42c.4-.39.81-.76,1.44-.57C231.09,63.3,230.93,64.28,230,63.42Z"/><path class="cls-70" d="M60.06,17.28l-1,.41c0-.07,0-.15,0-.22.05-.37.08-1,.17-1C59.79,16.38,60,16.81,60.06,17.28Z"/><path class="cls-45" d="M286.11,55.57a1.66,1.66,0,0,1,1.12-.82c-.07.73-.52.85-1,1A1.54,1.54,0,0,0,286.11,55.57Z"/><path class="cls-55" d="M53.9,123.34a1.09,1.09,0,0,1-.08-1.84c0,.31,0,.62.07.94Z"/><path class="cls-76" d="M229,59c-.09.53.21,1.13-.31,1.58C228.56,60,228.44,59.45,229,59Z"/><path class="cls-22" d="M266.48,155a1.77,1.77,0,0,1,.45,0,4.35,4.35,0,0,1,.61.2c-.2.38-.5.25-.77.14-.11-.05-.17-.22-.25-.34Z"/><path class="cls-6" d="M95.14,80.07c-.62,0-1.13-.06-.89-.9A1.74,1.74,0,0,1,95.14,80.07Z"/><path class="cls-70" d="M62.55,24.54c0-.44,0-.9.63-1C63.4,24.18,63.38,24.63,62.55,24.54Z"/><path class="cls-58" d="M214,99.09c1.15-2.5,3.26-4.08,3.52-6.7C218.28,96.2,217,98.67,214,99.09Z"/><path class="cls-77" d="M214.23,91.67a1.46,1.46,0,0,0,1-.91c.12.09.35.2.33.26-.27,1.13-1,2.16-.67,3.43,0,0-.23.17-.57.4A7,7,0,0,1,214.23,91.67Z"/><path class="cls-6" d="M278.13,130a24.23,24.23,0,0,1-.2-5.45c.15-3,.09-6.07,0-9.11,0-1.41.34-2.31,2-2.54a23.48,23.48,0,0,1,.11,4.43c0,3.28-.05,6.56,0,9.83C280.14,128.66,279.72,129.65,278.13,130Z"/><path class="cls-65" d="M247.21,94.94c.59-.7,1.37-.23,2-.34.16.35.4.7,0,1a.53.53,0,0,1-.82,0C248.11,95.13,247.64,95.1,247.21,94.94Z"/><path class="cls-65" d="M251.32,97.06c-.1.07-.21.21-.31.21a.67.67,0,0,1-.61-.53s.19-.2.29-.2A.68.68,0,0,1,251.32,97.06Z"/><path class="cls-6" d="M278.48,112.66c-.23.15-.41.09-.39-.11a1.16,1.16,0,0,1,.3-.58.42.42,0,0,1,.38,0C279,112.38,278.57,112.5,278.48,112.66Z"/><path class="cls-76" d="M232,62.32c-1.13.29-1.74-.47-2.63-1.41,3.54-1.11,5.18-4.16,7.47-6.51.59-.6,1-1.52,2.39-.79-2.57,2.88-5,5.76-7.28,8.76Z"/><path class="cls-78" d="M250.66,71.65c-.23.76-.91,1.09-1.49,1.45-2.83,1.76-5.68,3.48-8.54,5.19-.42.25-.84.77-1.45.41a.55.55,0,0,1,.19-.65,95.66,95.66,0,0,1,9-5.84c.76-.41,1.62-.74,1.88-1.7C250.75,70.74,250.72,71.19,250.66,71.65Z"/><path class="cls-79" d="M179.66,158.35c-.65-.08-1,.08-1.09.85-.1,1.12.42,2.14.5,3.28-.85-.09-1.38-.34-1.24-1.17.6-3.53-1.41-5-4.42-5.91a16.11,16.11,0,0,1-5-2.68c-1-.79-1.06-1.22-.05-2a21.05,21.05,0,0,1,6-3.83,1.91,1.91,0,0,1,1.77,0c3.27,1.81,6.55,3.58,10,5.79-1.78,1.81-3,4-5.49,4.8a1.31,1.31,0,0,0-1,.93Z"/><path class="cls-79" d="M189.21,156.47a1,1,0,0,1,1.11.23c2.93,3.38,6.45,6.21,9.14,9.81.32.43,1,.8.66,1.41s-1,.51-1.51.54a27.56,27.56,0,0,1-11.89-2.27c-2.12-.86-4.15-1.95-6.63-3.14,3.48-.61,6.37-1.51,7.71-4.72l.06-.29a5.83,5.83,0,0,1,1.09-1.43Z"/><path class="cls-80" d="M191.3,171.22a1.14,1.14,0,0,0-1.13-.31,66.41,66.41,0,0,1-19-7.84,25,25,0,0,1-7.27-5.27,5,5,0,0,1-1.58-3,35.18,35.18,0,0,0,5.57,4.6c2.28,1.35,4.57,2.61,7.29,2.81a6.13,6.13,0,0,1,2.41,1,53.39,53.39,0,0,0,15.22,5.55c1.62.3,3.25.49,5.17.78-2.18,1.23-4.36,1.27-6.44,1.7Z"/><path class="cls-80" d="M169.64,148.07c-.63.56-1,.9-1.34,1.18a3.48,3.48,0,0,0-1.47,3.69,5.5,5.5,0,0,1-.29,3.55c-2.06-1.63-4.59-2.5-5.45-5.3-.34-1.11-.3-1.55.77-1.82a9.15,9.15,0,0,1,1.66-.15c.49,0,.95-.06,1-.72.11-1.42,1.16-1.29,2-1S168.39,147.77,169.64,148.07Z"/><path class="cls-81" d="M179.61,158.4a5.6,5.6,0,0,0,4.42-2c.81-.87,1.61-1.76,2.54-2.78a8.05,8.05,0,0,1,2.64,2.89l0,0c-.47.67-1,1.27-1.48,2l0-.06a20.83,20.83,0,0,1-4.91,3.25c-2.36,1-3,.67-3.25-1.81a11.24,11.24,0,0,1,0-1.42Z"/><path class="cls-81" d="M168,153.6a25.92,25.92,0,0,0,6.86,3.33c1.54.52,2.26,1.3,2,2.94a10.14,10.14,0,0,0,0,1.7,55,55,0,0,1-8.48-3.95c-.62-.35-.61-.77-.44-1.38A3.52,3.52,0,0,0,168,153.6Z"/><path class="cls-82" d="M27,124.28c-1.7,1-3.13,2.59-5.24,2.88.35-3,1.47-4,4.8-4.56.4-.07.85,0,.89-.54s-.37-.67-.79-.7a4,4,0,0,0-1.42,0c-1.65.49-2.92-.19-4.33-1.27,2.56-1.27,4.77-1.4,7,1.37-.26-3.71,1.8-4.93,4.65-5.73-.48,2.51-2.23,4-3.89,5.52,2.95.72,3.89,1.89,4.35,5.29a4,4,0,0,1-2.31-.11,2.2,2.2,0,0,1-1.8-1.69C28.38,123.07,28.35,123.07,27,124.28Z"/><path class="cls-83" d="M261.21,119.62v-3.77c1.19.41,1.6,1.4,2.44,2A8.2,8.2,0,0,1,261.21,119.62Z"/><path class="cls-1" d="M53.79,111.82v-.49c0-1.57.09-3.14.11-4.72,0-.62.08-1.1.87-1,1.67-.17,2.52.42,2.47,2.26-.1,3.31,0,6.62,0,9.93,0-3,0-6,0-8.92s0-3,3-3.07a6.31,6.31,0,0,0,2.37-.16,13.93,13.93,0,0,0,4.93-1.55c2.21-1.06,4.34-2.27,6.51-3.41.45.17.51.55.52,1,.13,3.73-.19,7.47.3,11.18.09.64-.33.84-.75,1-5.11,2.45-9.69,5.75-14.4,8.85a2,2,0,0,1-2,.09l-3.78-1.43-.09-5.74A9.28,9.28,0,0,1,53.79,111.82Z"/><path class="cls-22" d="M255.88,150.28a3.75,3.75,0,0,1-2.51-1.75,6.27,6.27,0,0,1,2.61,1.64Z"/><path class="cls-79" d="M15.39,40.58a75.84,75.84,0,0,0-11-6.16,1.91,1.91,0,0,1-1.3-2c.07-2.77,0-5.55,0-8.58l11.43,6.23a1.43,1.43,0,0,1,.88,1.3Z"/><path class="cls-27" d="M87.87,88.77a4.62,4.62,0,0,1,0-4.32C87.88,85.89,87.88,87.33,87.87,88.77Z"/><path class="cls-27" d="M88,83.5h-.5A1.71,1.71,0,0,1,88.73,82,1.68,1.68,0,0,1,88,83.5Z"/><path class="cls-84" d="M60.2,101.79a8.85,8.85,0,0,0,5.25-1.29c.4-.24,1.14-.67,1.42.09a1.24,1.24,0,0,1-.66,1.79,26.51,26.51,0,0,1-6,1.67,3.85,3.85,0,0,0-2.08,1,2.32,2.32,0,0,1-2.89.1C53.06,104.65,54,103,54,101.58,56.09,102,58.13,102.65,60.2,101.79Z"/><path class="cls-85" d="M55.27,105.16l2.89-.1c.46.75,1.22.5,1.87.54.84.06,1.69,0,2.54.05a5.53,5.53,0,0,1-3.49.34c-1.08-.09-1.4.3-1.39,1.31,0,3.18,0,6.36-.06,9.53,0,.76.09,1.55-.78,2.18,0-1.22-.1-2.43-.12-3.65,0-2.22-.14-4.45,0-6.67.08-1.56-.15-2.74-1.91-3.08Z"/><path class="cls-6" d="M217,60.39c-3.35.21-4.65-1.33-3.88-4.59A6.42,6.42,0,0,1,214.31,53c.57.68.81,2.1,2.15,1.22.23-.14.43.36.63.59,1.34,1.57,1.35,1.56,3.38.9l0,0c.23,1.15-.83,2-.81,3.1,0,.38-.65.58-1.11.7a2,2,0,0,0-1.52.94Z"/><path class="cls-86" d="M220.47,55.69c0-.54.24-1.1-.12-1.63-1.8,1.77-2.18,1.59-3.11-1.43-.8-.29-.87.87-1.71.78-1.15-2.3.88-4.12.95-6.39,1.45.65,1.65,1.79,1.87,2.94.19,1,.26,2.1,1.84,1.63.45-.13.56.45.61.83a5.3,5.3,0,0,1-.36,3.24Z"/><path class="cls-2" d="M216.59,62.86c.68-1.59-.48-1.54-1.81-1.5.87-.7,1.87-.12,2.25-1h0l1.61.1c-1,.57-1,1.9-2,2.34Z"/><path class="cls-87" d="M252.81,18.78a50.83,50.83,0,0,1,7.72-8.33A49.18,49.18,0,0,1,252.81,18.78Z"/><path class="cls-1" d="M176.25,84.48a1.81,1.81,0,0,1,1.89-2c1.66-.14,3.31-.13,4.63,1.3a57.16,57.16,0,0,1-2.17-6.68c2-.38,3.23.34,3.8,2.13a5.61,5.61,0,0,1-.67,4.58c-.47.87,0,.93.7.64.12.3,0,1,.63.57,1.07-.74,2.3-.58,3.45-.74a1.34,1.34,0,0,1,1.58,1.39c0,.08,0,.16,0,.24.32,3.47-.36,3.94-4.26,2.89A3.75,3.75,0,0,1,184.24,86c-.81.22-.73.72-.54,1.31a6.65,6.65,0,0,1,.62,3.23c-.4.38-.75,1.24-1.3.15a3.67,3.67,0,0,1-.21-3.42,1.39,1.39,0,0,0-.32-1.9l0,0c-.2-1.21-1.16-1.33-2.11-1.5A9.54,9.54,0,0,0,176.25,84.48Z"/><path class="cls-79" d="M206.5,77.73a10.17,10.17,0,0,1-2.65,6.71,6.15,6.15,0,0,1-.68.67c-1.27,1.07-2.72,1.48-3.46.92-1.16-.89-.88-2.16-.69-3.31A12.44,12.44,0,0,1,201,77.15c1.67-2.24,3.2-2.28,5-.11l.59.72Z"/><path class="cls-79" d="M206.75,88.56c1.41-.09,3.28,2.22,2.88,3.73A14.11,14.11,0,0,1,206,98.9a2.51,2.51,0,0,1-3,.74A2.27,2.27,0,0,1,201.83,97a12.35,12.35,0,0,1,3.31-7.48A3.35,3.35,0,0,1,206.75,88.56Z"/><path class="cls-1" d="M182.49,85.39a5.45,5.45,0,0,1-3.58,4.1c-1.59.66-3.2,1.26-4.87,1.9-.15-4.21,2.64-7,6.43-6.48a15.2,15.2,0,0,1,2.06.53Z"/><path class="cls-79" d="M209.36,57.07c2.12,3.86,1.14,7.8-2.59,10.35-.8.54-1.66,1-2.65.42a2.46,2.46,0,0,1-.89-2.57,9.56,9.56,0,0,1,1.16-3.62,28.14,28.14,0,0,1,2.46-3.52,2.84,2.84,0,0,1,2.54-1Z"/><path class="cls-55" d="M53.79,111.82a14.37,14.37,0,0,1,0,3.82A4,4,0,0,1,53.79,111.82Z"/><path class="cls-3" d="M187.77,158.39a2.56,2.56,0,0,1,1.48-2A2.34,2.34,0,0,1,187.77,158.39Z"/><path class="cls-1" d="M245.28,96.48a12.28,12.28,0,0,1,.18,4c0,6.64,0,13.27,0,19.91,0,.63-.1,1.26-.16,1.89-2.61,1.16-4.74,3.18-7.64,4.46V79.52c-.92.06-1.4.82-2.29.27-4.07-2.52-8.21-4.91-12.33-7.35a1.37,1.37,0,0,1-.29-.34c0-.38.26-.56.56-.69a81.64,81.64,0,0,0,12.11-7,1.44,1.44,0,0,1,1.72-.05c4,2.1,8.18,3.88,12.08,6.19.23,1-.5,1.46-1.16,1.87-2.83,1.76-5.89,3.14-7.83,5.05a99.91,99.91,0,0,1,9.43-5.78c.67.17.48.72.49,1.15q0,10.45,0,20.91c0,.51.15,1.15-.55,1.42-.47-.16-.66-1-1.38-.53s-1.42-.12-2,.34a7.43,7.43,0,0,0-1,.37C244.3,95.76,244.55,96.15,245.28,96.48Z"/></g></g></svg>