<svg xmlns="http://www.w3.org/2000/svg" viewBox="0 0 294 252.95"><defs><style>.cls-1{fill:none;stroke:#000;stroke-miterlimit:10;}</style></defs><title>bottom</title><g id="Layer_2" data-name="Layer 2"><g id="Layer_1-2" data-name="Layer 1"><circle class="cls-1" cx="3.5" cy="19.5" r="3"/><polyline class="cls-1" points="3.5 22.5 3.5 70.5 12.5 81.5 12.5 107.5 9.5 109.5 9.5 119.5 6.5 121.5 6.5 134.5 5.5 135.5 5.5 211.5 18.5 219.5 27.5 215.5"/><polyline class="cls-1" points="23.5 41.5 23.5 46.5 12.5 61.5 12.5 81.5"/><circle class="cls-1" cx="32.5" cy="62.5" r="2"/><polyline class="cls-1" points="32.5 64.5 32.5 72.5 23.5 83.5 23.5 107.5"/><circle class="cls-1" cx="45.5" cy="101.5" r="2"/><line class="cls-1" x1="45.5" y1="103.5" x2="45.5" y2="171.5"/><circle class="cls-1" cx="54.5" cy="85.5" r="2"/><polyline class="cls-1" points="54.5 87.5 54.5 103.5 45.5 117.5"/><polyline class="cls-1" points="12.5 107.5 17.5 104.5 32.5 112.5 23.5 118.5 23.5 126.5"/><line class="cls-1" x1="9.5" y1="110.71" x2="23.5" y2="118.5"/><polyline class="cls-1" points="32.5 112.5 32.5 121.5 22.5 126.5 9.5 119.5"/><polyline class="cls-1" points="32.5 120.5 36.5 122.5 36.5 132.5 39.5 133.5 39.5 172.5 28.5 179.5 28.5 227.5 41.5 235.5"/><line class="cls-1" x1="6.5" y1="133.5" x2="20.5" y2="140.5"/><polyline class="cls-1" points="36.5 132.5 20.5 140.5 20.5 130.5 6.5 122.43"/><polyline class="cls-1" points="39.5 134.5 19.5 144.5 5.5 136.23"/><line class="cls-1" x1="19.5" y1="144.5" x2="19.5" y2="204.5"/><polyline class="cls-1" points="58.5 177.5 42.5 186.5 42.5 235.5 58.5 226.5 58.5 177.5 43.5 169.5 39.5 172.5"/><line class="cls-1" x1="28.5" y1="179.5" x2="42.5" y2="186.5"/><polyline class="cls-1" points="82.5 41.5 82.5 93.5 73.5 109.5 73.5 127.5 79.5 135.5 79.5 213.5 62.5 223.5"/><polyline class="cls-1" points="73.5 127.5 63.5 116.5 48.5 132.5 48.5 172.17"/><polyline class="cls-1" points="79.5 138.45 78.5 139.5 74.5 135.5 71.5 144.5 66.5 137.5 62.5 145.5 56.5 136.5 52.5 141.5 48.5 134.01"/><line class="cls-1" x1="52.5" y1="141.5" x2="52.88" y2="174.5"/><line class="cls-1" x1="71.5" y1="144.5" x2="71.5" y2="196.5"/><polyline class="cls-1" points="79.5 193.5 62.5 199.5 62.5 145.5"/><line class="cls-1" x1="58.5" y1="198.08" x2="62.5" y2="199.5"/><polyline class="cls-1" points="79.5 195.64 62.5 202.5 58.5 200.5"/><polyline class="cls-1" points="58.5 221.36 62.5 223.5 62.5 205.5 79.5 199.5"/><line class="cls-1" x1="58.5" y1="204.5" x2="62.5" y2="205.5"/><circle class="cls-1" cx="222.5" cy="83.5" r="3"/><path class="cls-1" d="M222.5,86.5v46s-13,10-19,24-11,35-8,43,5,11,14,10c0,0,10-4,9-4v-45s-3-1-1-6,3-6,3-9,5,6,3,6,1,1,2-2,1,9-1,10-6,1-6,1"/><path class="cls-1" d="M227.5,171.5l15,9v48l-15-8v-49s13-8,15-8,2-10,2-10c-2-2-5,1-6,3s-4,3-4,3l4-19c1-23-16-8-16-8"/><polyline class="cls-1" points="242.5 163.5 256.5 170.5 256.5 195.5 285.5 210.5 285.5 250.5 281.5 252.5"/><polyline class="cls-1" points="256.5 195.5 254.5 194.5 251.5 196.5 251.5 237.5"/><path class="cls-1" d="M251.5,222.5l30,17"/><polyline class="cls-1" points="251.5 196.42 281.5 211.5 281.5 252.5"/><line class="cls-1" x1="256.5" y1="170.5" x2="242.5" y2="179.5"/><polyline class="cls-1" points="233.5 41.5 233.5 99.5 222.5 110.71"/><circle class="cls-1" cx="243.5" cy="67.5" r="2"/><polyline class="cls-1" points="243.5 69.5 243.5 80.5 233.5 90.67"/><circle class="cls-1" cx="254.5" cy="87.5" r="3"/><polyline class="cls-1" points="254.5 90.5 254.5 104.5 247.5 119.5 247.5 166"/><circle class="cls-1" cx="290.5" cy="2.5" r="2"/><polyline class="cls-1" points="290.5 4.5 290.5 54.5 281.5 67.5 281.5 99.5 293.5 105.5 293.5 206.5 290.5 208.5 290.5 226.5 285.5 229.12"/><polyline class="cls-1" points="281.5 99.5 277.5 98.5 253.5 121.5 253.5 169"/><polyline class="cls-1" points="253.5 121.5 267.5 129.5 267.5 184.5 263.5 186.5 263.52 199.13"/><polyline class="cls-1" points="263.5 186.5 277.5 195.5 277.5 206.36"/><polyline class="cls-1" points="267.5 184.5 275.5 180.5 290.5 188.5 277.5 195.5"/><line class="cls-1" x1="290.5" y1="188.5" x2="290.5" y2="208.5"/><path class="cls-1" d="M233.5,128.5s-26,8-34,51,19,26,19,26v8c0,5,2,5,2,5l2-1,2-58"/><path class="cls-1" d="M213.5,155.5c1.56.42,2.31,4.71,1,8s-4.59,5.73-6,5-.83-4.63,0-7C209.51,158.62,211.92,155.08,213.5,155.5Z"/><path class="cls-1" d="M204.5,185.5c-1.74-1-1.53-4.21-1-6,.76-2.59,3.13-5.41,5-5,2.08.46,3.61,4.94,2,8C209.31,184.77,206.26,186.49,204.5,185.5Z"/><path class="cls-1" d="M207.5,199.5c-.58-.19-2.14-3.59-1-7,1-3.07,4.25-5.75,6-5,1.53.66,2.15,4,1,8C213.5,195.5,212,201,207.5,199.5Z"/></g></g></svg>