<svg xmlns="http://www.w3.org/2000/svg" viewBox="0 0 293 171.5"><defs><style>.cls-1{fill:none;stroke:#000;stroke-miterlimit:10;}</style></defs><title>bottomnobuildings</title><g id="Layer_2" data-name="Layer 2"><g id="Layer_1-2" data-name="Layer 1"><circle class="cls-1" cx="3.5" cy="19.5" r="3"/><polyline class="cls-1" points="3.5 22.5 3.5 70.5 12.5 81.5 12.5 107.5"/><polyline class="cls-1" points="23.5 41.5 23.5 46.5 12.5 61.5 12.5 81.5"/><circle class="cls-1" cx="32.5" cy="62.5" r="2"/><polyline class="cls-1" points="32.5 64.5 32.5 72.5 23.5 83.5 23.5 107.5"/><circle class="cls-1" cx="45.5" cy="101.5" r="2"/><line class="cls-1" x1="45.5" y1="103.5" x2="45.5" y2="171.5"/><circle class="cls-1" cx="54.5" cy="85.5" r="2"/><polyline class="cls-1" points="54.5 87.5 54.5 103.5 45.5 117.5"/><polyline class="cls-1" points="82.5 41.5 82.5 93.5 73.5 109.5 73.5 127.5"/><circle class="cls-1" cx="222.5" cy="83.5" r="3"/><line class="cls-1" x1="222.5" y1="86.5" x2="222.5" y2="132.5"/><polyline class="cls-1" points="233.5 41.5 233.5 99.5 222.5 110.71"/><circle class="cls-1" cx="243.5" cy="67.5" r="2"/><polyline class="cls-1" points="243.5 69.5 243.5 80.5 233.5 90.67"/><circle class="cls-1" cx="254.5" cy="87.5" r="3"/><polyline class="cls-1" points="254.5 90.5 254.5 104.5 247.5 119.5 247.5 166"/><circle class="cls-1" cx="290.5" cy="2.5" r="2"/><polyline class="cls-1" points="290.5 4.5 290.5 54.5 281.5 67.5 281.5 99.5"/></g></g></svg>