<svg xmlns="http://www.w3.org/2000/svg" viewBox="0 0 228.57 113.69"><defs><style>.cls-1{fill:#fff;}.cls-2{fill:#353535;}.cls-3{fill:#3a3a3a;}.cls-4{fill:#6e6e6e;}.cls-5{fill:#c5c5c5;}.cls-6{fill:#3e3e3e;}.cls-7{fill:#070707;}.cls-8{fill:#616161;}.cls-9{fill:#929292;}.cls-10{fill:#8c8c8c;}.cls-11{fill:#424242;}.cls-12{fill:#7a7a7a;}.cls-13{fill:#f5f5f5;}.cls-14{fill:#5e5e5e;}.cls-15{fill:#adadad;}.cls-16{fill:#a0a0a0;}.cls-17{fill:#1c1c1c;}.cls-18{fill:#4c4c4c;}.cls-19{fill:#8d8d8d;}.cls-20{fill:#4a4a4a;}.cls-21{fill:#909090;}.cls-22{fill:#474747;}.cls-23{fill:#454545;}.cls-24{fill:#bfbfbf;}.cls-25{fill:#464646;}.cls-26{fill:#4d4d4d;}.cls-27{fill:#646464;}.cls-28{fill:#d7d7d7;}.cls-29{fill:#989898;}.cls-30{fill:#8e8e8e;}.cls-31{fill:#787878;}.cls-32{fill:#8a8a8a;}.cls-33{fill:#b0b0b0;}.cls-34{fill:#c7c7c7;}.cls-35{fill:#505050;}.cls-36{fill:#b5b5b5;}.cls-37{fill:#333;}.cls-38{fill:#979797;}.cls-39{fill:#595959;}.cls-40{fill:#939393;}.cls-41{fill:#626262;}.cls-42{fill:#202020;}.cls-43{fill:#3b3b3b;}.cls-44{fill:gray;}.cls-45{fill:#707070;}.cls-46{fill:#545454;}.cls-47{fill:#252525;}.cls-48{fill:#c3c3c3;}.cls-49{fill:#7b7b7b;}.cls-50{fill:#777;}.cls-51{fill:#cbcbcb;}.cls-52{fill:#535353;}.cls-53{fill:#4b4b4b;}.cls-54{fill:#343434;}.cls-55{fill:#767676;}.cls-56{fill:#818181;}.cls-57{fill:#8b8b8b;}.cls-58{fill:#dfdfdf;}.cls-59{fill:#fefefe;}.cls-60{fill:#fbfbfb;}.cls-61{fill:#4e4e4e;}.cls-62{fill:#f7f7f7;}.cls-63{fill:#f6f6f6;}.cls-64{fill:#f4f4f4;}.cls-65{fill:#b7b7b7;}.cls-66{fill:#515151;}.cls-67{fill:#aaa;}.cls-68{fill:#7e7e7e;}.cls-69{fill:#e8e8e8;}.cls-70{fill:#6d6d6d;}.cls-71{fill:#fafafa;}.cls-72{fill:#f9f9f9;}.cls-73{fill:#ebebeb;}.cls-74{fill:#8f8f8f;}.cls-75{fill:#494949;}.cls-76{fill:#f3f3f3;}.cls-77{fill:#c2c2c2;}.cls-78{fill:#e3e3e3;}.cls-79{fill:#e9e9e9;}.cls-80{fill:#f2f2f2;}.cls-81{fill:#ececec;}.cls-82{fill:#414141;}.cls-83{fill:#585858;}.cls-84{fill:#bdbdbd;}.cls-85{fill:#060606;}.cls-86{fill:#404040;}.cls-87{fill:#e7e7e7;}.cls-88{fill:#6b6b6b;}.cls-89{fill:#757575;}.cls-90{fill:#575757;}.cls-91{fill:#1f1f1f;}.cls-92{fill:#565656;}.cls-93{fill:#3c3c3c;}.cls-94{fill:#5c5c5c;}.cls-95{fill:#9e9e9e;}.cls-96{fill:#9c9c9c;}.cls-97{fill:#999;}.cls-98{fill:#747474;}.cls-99{fill:#525252;}.cls-100{fill:#5b5b5b;}.cls-101{fill:#676767;}.cls-102{fill:#292929;}.cls-103{fill:#888;}.cls-104{fill:#d2d2d2;}.cls-105{fill:#878787;}.cls-106{fill:#949494;}.cls-107{fill:#969696;}.cls-108{fill:#dadada;}.cls-109{fill:#fcfcfc;}.cls-110{fill:#f1f1f1;}.cls-111{fill:#d3d3d3;}.cls-112{fill:#d0d0d0;}.cls-113{fill:#0e0e0e;}.cls-114{fill:#cdcdcd;}.cls-115{fill:#fdfdfd;}.cls-116{fill:#ededed;}.cls-117{fill:#cfcfcf;}.cls-118{fill:#cecece;}.cls-119{fill:#cacaca;}.cls-120{fill:#c6c6c6;}.cls-121{fill:#d1d1d1;}.cls-122{fill:#5d5d5d;}</style></defs><title>middlepic</title><g id="Layer_2" data-name="Layer 2"><g id="Layer_1-2" data-name="Layer 1"><path class="cls-1" d="M2.38,30.05,2,29.54c-.44-.25-.77-.54-.51-1.11,2.16-1.87,4.78-3,7.2-4.47,5.24-2.76,10.14-6.07,15.17-9.18a33.15,33.15,0,0,0,2.94-1.57c2.93-2,5.59-1.58,8.24.66a43.28,43.28,0,0,0,6.23,4,2.43,2.43,0,0,0,2.66.33,1.94,1.94,0,0,1,2,1.13,3.63,3.63,0,0,1,.1.93c0,1.94-.28,2.15-2,1.3a70.45,70.45,0,0,0-6.27-3.28,3.87,3.87,0,0,0-1.48-.79,3.71,3.71,0,0,1,1.31.66c4.48,2.22,8.72,4.86,13.07,7.32.83,1.51,1.82,2.8,3.77,2.77.51.13,1,.31,1.5.48a2.93,2.93,0,0,1,.56.28,3.91,3.91,0,0,0,1.64.85,95.47,95.47,0,0,1,12.1,7.69c2.29,1.24,4.37,2.79,6.6,4.13-2.17-1.37-4.25-2.87-6.49-4.12A79.69,79.69,0,0,0,63.41,33c-.46-.26-1.14-.61-.92-1.23.3-.86,1-.36,1.63-.27,1,.16,1.94.8,3,.17C69,30.46,70.36,32,71.22,33c1.79,2.07,4.11,3.28,6.35,4.57,2.85,1.65,5.18,4,8,5.68,1.17.72,1.47,1.49-.12,2.39-3.93,2.23-7.54,5-11.66,6.95-2.3,1.11-2.32,1.11-2.93-1.29a1.75,1.75,0,0,0-2.13-1.39,2.4,2.4,0,0,0-2.35,2c-.24,1.06.76,1.29,1.49,1.47,2.25.55,1.19,1.67.52,2.74-1,.83-2.21,1.38-3.26,2.16a9,9,0,0,1-2.05.93,13.89,13.89,0,0,0-1.77.65,18.47,18.47,0,0,0-3,1.82,5.78,5.78,0,0,1-1.2.64c-2.19,1.06-4,.05-5.81-1-4.39-2.72-8.83-5.33-13.39-7.76-4.26-2.67-8.44-5.48-12.65-8.22S17,39.61,12.64,37A113.6,113.6,0,0,1,2.38,30.05Z"/><path class="cls-2" d="M213.19,72.24c-4.84,2.47-9.42,5.4-14.11,8.14Q173,95.64,147,110.94c-2.48,1.45-5,2.79-8.06,2.75a6.14,6.14,0,0,1-3.18-.88Q108.65,96.93,81.55,81.07A11.51,11.51,0,0,1,78.93,79a2.68,2.68,0,0,1-.6-.75c-1-2.38-.52-4.89-.4-7.32.07-1.49,1.61-2.31,2.84-3,4.75-2.79,9.54-5.52,14.31-8.29l21.13-12.3c-.44-1.37-.73-2.27,1.5-2.17,2.64.12,4.52-2,6.55-3.39.85-1.38,2.37-.62,3.5-1.09,1.24-.71,2.46-1.44,3.72-2.1a1.87,1.87,0,0,0,1.16-1.89c-.27-2.33.9-4.2,1.8-6.16.5,0,1,.14,1.14.7-.68,2.6-1.74,5.11-1.9,7.83a8.81,8.81,0,0,0,.23,3.31c.88,2.76,2.14,3.12,4.48,1.34.61-.47,1.35-1.88,2,0,.15-.12,0-.26,0-.39a2.63,2.63,0,0,0-.06-.47A2.25,2.25,0,0,1,142,41c1.28-.47,1.31-1.39.93-2.47a1.21,1.21,0,0,1,1.68-.82c.9,2.71.62,3.45-2.07,5.36-.22.54.17.84.45,1.2a.66.66,0,0,1,.07.81c-.39.35-.87.57-1.25.92a28.53,28.53,0,0,1-3.31,1.89c-1,.63-2.2,1.23-2.54,2.41-.69,2.48-2.52,4.16-3.93,6.14-.91,1.28-1.75,1.47-2.92.49a3,3,0,0,0-.82-.48c-.56-.22-1.21-.86-1.72-.29s.24,1.11.58,1.6.72.86.59,1.48c-1.76.88-2.29-.84-3.18-1.61s-2.21-1.7-.58-3.07c0,0-.26-.35-.39-.55-.32-.72-.74-1.43-.31-2.25,2.54.81,4.48-.51,6.51-1.73,1.69-1,3.39-2,5.2-3-2.14-1.51-4-1.6-6-.06a16.26,16.26,0,0,1-4.58,2.57c-1.27.44-1.06,1.33-1.13,2.22a1.72,1.72,0,0,1-.64.34c-1,.09-2.11.25-2.46-1.14a2,2,0,0,1,.94-1.54c2.25-1.6,4.77-2.78,7.05-4.33,2.59-.74,3.83-2.35,3.21-5.12-.95,1-2.31,1.45-3.4,2.35-1.77,1.6-4.29,1.84-6.1,3.4.37.28,1,.1,1.38.52.13,1.4-1,1.12-1.72,1.18a9.56,9.56,0,0,0-3.92.74Q99.92,58.49,82.15,68.73a13,13,0,0,0-1.61,1,1.46,1.46,0,0,0-.24,2.44,8.16,8.16,0,0,0,2,1.67c17.72,10.24,35.39,20.58,53.15,30.75a7.71,7.71,0,0,0,8.2,0c26-15.14,52.09-30,78.06-45.19a29.54,29.54,0,0,0,3.2-2.12c1.79-1.4,1.78-2.52-.17-3.69-3-1.8-6.13-3.46-9.12-5.32a5.23,5.23,0,0,1-1.11-.82,1.08,1.08,0,0,1-.1-1,.86.86,0,0,1,.56-.35.67.67,0,0,1,.56.32c2.78,2,5.82,3.48,8.73,5.22a9.89,9.89,0,0,1,2.65,2c1.2,1.44,2.19,3,1.27,4.94a.71.71,0,0,0,.22.86c.28,1.13-.2,2.18-.34,3.27-.64,1.21-1.88,1.69-3,2.33-3.62,2.18-7.28,4.3-10.92,6.44C213.84,71.7,213.68,72.2,213.19,72.24Z"/><path class="cls-3" d="M46.57,18.49a9.44,9.44,0,0,1,3.27-3c1.14-.82,2.5-1.37,3.44-2.64-1.18-1.28-1.08-3.16-2.1-4.56-.44-.62-.06-1.2.28-1.75.73-.72,1.42-.12,2.13.06a2,2,0,0,1,2,1.8c0,.6-.18,1.27-.84,1.19-1.79-.24-.55.79-.59,1.28a9.44,9.44,0,0,0,.32.89c.68,1.32,1.17,3,3,3,1.48,0,2.27-1.25,2.94-2.46.9-1.61.19-2.77-1-3.82C60.63,7,59,5.05,60.77,3.27a9.49,9.49,0,0,1-6.77-1,1.59,1.59,0,0,1-.81-.58A4.27,4.27,0,0,1,58.51.4c1.83.67,3.91,1.37,4.45,3.29.68,2.44,2.27,5,.26,7.67-.65.87-.32,1.75.49,2.52,1.15,1.09,2.2,2.29,3.61,3.79-1.74-.2-2.16-1.53-3.17-2.05-.82.41-.63,1.35-1,2-1.07,2.07-2.18,2.33-4,.84-.42-.35-.71-.14-1,.09-.56.3-.7-.21-.95-.5a2.62,2.62,0,0,0-.17-.42c-1.61.29-1.7.25-2-1.11-.49-1.91-.83-2-2.65-1.33-1.49.53-2.43,1.69-3.61,2.56-.62.46-1.1,1.19-2,.86Z"/><path class="cls-4" d="M73.48,52.09l12.76-7.36c-.13-.31-.16-.62-.32-.72-4.38-2.73-8.34-6.1-12.91-8.51-1.56-.83-2.08-2.57-3.64-3.41a2.09,2.09,0,0,0-2.1-.1c-.23-.18-.58-.24-.63-.61a5.89,5.89,0,0,0,1.07-3.57,6.73,6.73,0,0,1,.57-2.65,5.79,5.79,0,0,1,.17,3.53,2,2,0,0,0,1.24,2.66c5.06,2.67,9.9,5.71,14.77,8.71a14.38,14.38,0,0,1,4,2.94l0,0c-.6.14-1-.42-2-.43a2.14,2.14,0,0,1,1.12,2.69,26.71,26.71,0,0,0-.45,4.5c-.08.89-.09.89-1.26,1.63,0-1.92.82-3.72.62-5.62-.78-.14-1.18.44-1.69.77q-8.44,5.59-16.9,11.19c-.73.48-1.52.84-2.29,1.26a.38.38,0,0,1-.43-.29l-.3-.85c.84-1.07,2.18-1.34,3.28-2C69.51,54.12,72.1,54,73.48,52.09Z"/><path class="cls-5" d="M124.82,42.11c-1.69,1.64-3.85,2.55-5.85,3.68a3.62,3.62,0,0,1-2.73-.14c-.52.54,2.09,1.16,0,1.66-.34-.78-1.08-1.12-1.71-1.58a4.49,4.49,0,0,1-1.63-3c1.8-.47.12-1.92.77-2.74a1,1,0,0,0,.06-.91c-.76-1.4.61-1,1.09-1.31,1.95-2.07,4.39-2.4,7-2a4.12,4.12,0,0,1,2.37,1,1.35,1.35,0,0,1,.38,1.53,1,1,0,0,1-1.41.49,11.51,11.51,0,0,0-5.49-.18,14.91,14.91,0,0,1,3.9-.18c1.15,0,1.86.56,1.74,1.76s-1.07,1.16-2,.95a13.13,13.13,0,0,0-3.82-.33C119.67,41.14,122.38,40.77,124.82,42.11Z"/><path class="cls-6" d="M170,18.18c-1.13-1.1-2.66-1.71-3.77-3a41.68,41.68,0,0,1,7,3.56c.76.63.59,1.46.49,2.21a1.86,1.86,0,0,0,1.07,2.11c5.82,3.3,11.59,6.66,17.39,10a3.5,3.5,0,0,0,.67.22c.13-1-.36-1.77-.42-2.63-.22-.52-.18-.94.41-1.18,1,.22,1.09,1.06,1.26,1.83.24,1.1.51,2.18.79,3.27.81,3.1.9,3.15,3.84,2A2.72,2.72,0,0,1,201,38.21c.1,1.17.63,2.79-1.55,1.26-1.1-.76-2.23.6-3.39.18A3.92,3.92,0,0,1,193.83,38a3,3,0,0,1-.28-.63A4.84,4.84,0,0,0,193,35.8a8.06,8.06,0,0,0-2.81-2.17c-5.24-3-10.47-6.07-15.71-9.1a1.18,1.18,0,0,1-.69-.68c.12,1.46.27,2.87.32,4.29a1,1,0,0,1-1,.84c-1,0-1.58-.77-2.29-1.32-.35-.26-.74-.46-1.1-.72-.54-.57-.25-1,.25-1.39a1.83,1.83,0,0,1,.66-.11c1,.23,1.44-.16,1.57-1.12s0-1.84.17-2.75a1.52,1.52,0,0,0-1-2.17A4,4,0,0,1,170,18.18Z"/><path class="cls-1" d="M218.06,24.29c-2.23-1.22-2.24-1.23-3.64,1-.34.54-.6,1.13-.91,1.68-.86,1.51-.74,2.38.74,3s1.68,1.33,1.61,2.91.15,3.15.22,4.73a2.08,2.08,0,0,1-.89,2.08l-.3-.14c-1-1.11-.61-2.56-.91-3.84s.48-3.29-1.57-4c-1.69-.84-3-1.94-3.09-4,.18-1.62,1.55-2.48,2.37-3.7,1.53-.88,2.92-1.84,3.18-3.83.07-.6.64-1.08,1.07-1.55.72-.81,1.55-.73,1.85.22C218.33,20.58,219.21,22.41,218.06,24.29Z"/><path class="cls-7" d="M135.43,31a1.53,1.53,0,0,1-1-.52,5.93,5.93,0,0,1,8.66-.72c.57.49.92,1.36,1.91,1.12a.88.88,0,0,1,.27.52,10.11,10.11,0,0,0,.25,1.81,12.16,12.16,0,0,0,.59,3.43,1.82,1.82,0,0,1-1.63,1.06,3.48,3.48,0,0,0-1.38,1,1,1,0,0,1-1.18.65,1.28,1.28,0,0,1-.72-1.19c.71-4.75.71-4.75-4.12-6.34A3.37,3.37,0,0,1,135.43,31Z"/><path class="cls-8" d="M218.06,24.29a16.51,16.51,0,0,0-1.12-6.18c-.76,1.37-1.81,2.29-2,3.88-.17,1.74-2,1.81-3.25,2.29L211.5,24c0-2.06.5-4.12.09-6.19,0-.59-.22-1.15-.29-1.73a2.41,2.41,0,0,1,.66-2c.38-.3.77-.58,1.28-.29.81,1.41.8,3.08,1.46,4.94.61-2.25-.23-3.86-.88-5.5-.69-1-2.43-1.16-2.09-2.87,1.34-.23,2,.83,2.75,1.56a2,2,0,0,0,2.49.52c3.28-1.21,6,.27,8.35,2.58l-2.52-1.35a7.59,7.59,0,0,0-4.85-.84c-1.3.21-1.43.49-1,1.88.08.3.13.62.19.93a17.48,17.48,0,0,1,1.42,2.67,24.71,24.71,0,0,1,1.1,7.45c-.22.71.17,1.79-1.11,1.85C218.42,26.5,218.64,25.34,218.06,24.29Z"/><path class="cls-9" d="M2.38,30.05c1.2.1,1.93,1.05,2.85,1.63,6.31,4,12.58,8,18.85,12a3.64,3.64,0,0,1,1.45,1.19c.3.56-.08.81-.49,1-3.64-1.8-6.9-4.23-10.38-6.28S7.83,35.56,4.42,33.53c-.34-.2-.64-.46-1-.72.61-.84,1.15.32,1.77-.15C4.29,31.74,3,31.22,2.38,30.05Z"/><path class="cls-10" d="M195.9,30.57c2,0,2.13,0,2.19-1.8.11-3.27.08-6.54.1-9.81,0-1.58,0-3.16,0-4.74h.52V31.16c1.69-1.89,3.08-3.37,5.67-3.78-1.83-1.05-1.84-2.5-1.86-3.92,0-2.39,0-4.79,0-7.18.61-.49.92,0,1.28.37a7.91,7.91,0,0,1,.16,4.47c-.49,3.57.28,4.76,3.7,5.75a.82.82,0,0,1,.38.56c-.49,1.09-1.64.82-2.47,1.09a9,9,0,0,0-5.41,4.89,7,7,0,0,1-.56.78c-.56.65-1.47.35-2.12.77-.76-.46-.65-1.25-.75-2s-.48-.77-.88-1A1,1,0,0,1,195.9,30.57Z"/><path class="cls-11" d="M145,31.48v-.57c2.69-2,5.72-3.43,8.58-5.15,2.59-1.56,5.24-3,7.86-4.56a6,6,0,0,1,1.88-1c2-.26,2.91-1.28,2.72-3.38.72,1.1.48,2.25.43,3.37a35.59,35.59,0,0,1-.32,3.57c-.23,1.6.33,2.6,1.94,3a2.46,2.46,0,0,0,1.9,0,1,1,0,0,1,.95.4,1.54,1.54,0,0,0,1.8,1.56c.44-.05.87-.11,1.09-.57.42-.08.61.16.71.52a1.32,1.32,0,0,1-.12.65c-1.18,2.25-2.65,1.33-4.14.4-.37-.22-.76-.43-1.15-.62a16.44,16.44,0,0,1-2.91-1.66,2.78,2.78,0,0,1-1.3-3.27c.18-.74.51-1.74-.21-2.25s-1.7.15-2.41.56c-4.26,2.51-8.57,4.91-12.84,7.39C148.13,30.59,146.94,32.14,145,31.48Z"/><path class="cls-12" d="M124.82,42.11a66.14,66.14,0,0,0-9.1-1.24,15.72,15.72,0,0,1,5.68,0c.66.12,1.49.57,1.63-.6a1.27,1.27,0,0,0-1.36-1.56,7.69,7.69,0,0,0-3.31.2c-.89.38-1.85.07-2.71.56a3.49,3.49,0,0,1,3-1.2c1.65,0,3.34-.46,4.95.29a.51.51,0,0,0,.77-.27.91.91,0,0,0-.15-.89A1.91,1.91,0,0,0,123,36.7c-2.44-.66-4.84-.87-7.11.58a8,8,0,0,1-1.08.47c0-1.22,1.37-1.2,1.86-2,1.49.09.11-1,.57-1.36l.87.06c2,.28,3.83,1.18,5.87.73,2.16,1.2,2.84,3.42,3.8,5.46-.79.57-1.55,1.22-2.66.9A3.2,3.2,0,0,0,124.82,42.11Z"/><path class="cls-13" d="M170,26.71c-.65,1.57-1.27.52-1.9,0,.42-.79-.26-1.31-.55-1.88a5.83,5.83,0,0,1-.41-3.46c.15-1.21.59-2.3,2.12-2.37.48,0,.64-.39.72-.8a3,3,0,0,1,1.43.86,10.59,10.59,0,0,1,1.45,2.39,15.1,15.1,0,0,1-.57,5.18c-.92.27-1.2-.65-1.81-.94-.24-1.53.3-3.19-.49-4.14,1.1,1-.38,2.73.09,4.27C170.11,26.11,169.41,26.34,170,26.71Z"/><path class="cls-14" d="M13.13,44.85,11.58,44a62.94,62.94,0,0,0-7.67-4.34,1,1,0,0,0-.84-.59L1.91,38c.53.06,0,0,.25-.15a.33.33,0,0,1,.23,0,3.68,3.68,0,0,1,.9.31c10.3,6.37,21.17,11.76,31.33,18.36,0,.78-.36.83-.93.45C27.52,53.15,21.37,49.34,15,45.85Z"/><path class="cls-15" d="M43.82,18.44c-.43.43-.49,1.32-1.6.67-2.67-1.57-5.3-3.17-7.83-4.94-.52-.36-1.06-.7-1.57-1.07a3.47,3.47,0,0,0-4.2-.18,4,4,0,0,1-1.71.8c-.43-.26-1.06.09-1.4-.45,1.06-1.16,2.53-1.45,3.94-1.84,1.05.29,2.11-.33,3.16,0,3.12,1.8,6.56,3,9.47,5.2C42.75,17.16,43.64,17.46,43.82,18.44Z"/><path class="cls-16" d="M211.73,10.36c.22,1.4,1.83,1.43,2.42,2.46l-.12.25a3.08,3.08,0,0,1-.57.57l-.25.11-.91.52c-3-4.11-5.73-3.77-8.12,1a1.36,1.36,0,0,1-1.29.18c-.94-.85,0-1.55.14-2.28a5.3,5.3,0,0,0-.76,2,1.48,1.48,0,0,1-1.16.5c-.11-.1-.34-.23-.32-.3,1.22-4.38,4.1-7.27,8.76-6.3A3.92,3.92,0,0,1,211.73,10.36Z"/><path class="cls-17" d="M24,15.12A127.68,127.68,0,0,1,13.27,22,28.81,28.81,0,0,1,8.86,24.4c-.46.09-1,.37-1.06-.46a118.94,118.94,0,0,1,15.31-9.23C23.63,14.38,24,14.39,24,15.12Z"/><path class="cls-18" d="M60.09,25.17c.51.7,1.5.34,2,.95-.06.36-.42.41-.64.62h-.24L61,26.67a4.5,4.5,0,0,0-2.9,0,1.78,1.78,0,0,0-1,1.47c-.3.32.07,1.23-.87,1h0a1.79,1.79,0,0,1-.37-.54C55.43,27.4,57,26,55.49,25c-1.06-1.31-3-1.33-4-2.62-1.26-1.54-3.32-1.52-4.88-2.49l0-.34c1.38.35,2.8-.11,4.22.3.88.26,1.58-1,2.59-.84.11.14.29.26.28.37-.19,2.1.85,3.3,2.77,3.94,1.1.36,1.85,1.42,3.08,1.54.31.54-.34.52-.47.8C59.39,25.42,59.77,25.37,60.09,25.17Z"/><path class="cls-19" d="M193,29.61c-.53.16-.48.64-.56,1-3.6-1.72-7.19-3.46-10.8-5.16-.48-.22-.88-.45-.82-1,.5-4.53.07-9.07.16-13.61-.13-.49.07-.63.53-.5l.09.43a5.16,5.16,0,0,1,0,2.5c-.07,3.32-.11,6.65-.2,10a1.58,1.58,0,0,0,1.06,1.64c2.3,1.05,4.57,2.17,6.88,3.21,1.15.52.53-.54.71-.88a.35.35,0,0,1,.6-.11h0A4.53,4.53,0,0,1,193.12,29,.62.62,0,0,1,193,29.61Z"/><path class="cls-20" d="M66.64,31.38a.92.92,0,0,1,.63.61c-.49.14-.78.7-1.49.36a19.07,19.07,0,0,0-3-.91,2.9,2.9,0,0,0,2.05,1.82c2.26.92,3.92,2.65,5.8,4.07.1.42,0,.67-.48.45-3.32-2.12-6.64-4.23-10-6.37a10.69,10.69,0,0,0-2.48-1.36c-.1-.5.07-.73.59-.58l.83,0c.35.12.7-.19,1,0C62.27,30.27,64.23,31.61,66.64,31.38Z"/><path class="cls-21" d="M33.69,56.93c.37,0,.77,0,.93-.45,3.76,2.3,7.81,4.16,11.15,7.12a6,6,0,0,0,1.9,1A35.86,35.86,0,0,1,55,68.44,52,52,0,0,1,43.79,63.1c-.39-.48-1-.32-1.45-.41a24.24,24.24,0,0,0-6.26-4.26,1.06,1.06,0,0,0-1-.48Z"/><path class="cls-22" d="M78.83,56.54a139.59,139.59,0,0,1-16.34,9.54c-.81,0-.86-.31-.45-.88a143.64,143.64,0,0,0,16.13-9.32C78.72,55.76,78.92,56,78.83,56.54Z"/><path class="cls-19" d="M38,53.12a138.59,138.59,0,0,1,12.76,7.43c2.07,1.37,4.1,2,6.49,1.27,1.1.43,0,1,.08,1.47-.52.55-1.27.46-1.9.68s-.92-.3-1.12-.8c.16-.15.38-.14.56-.23a.77.77,0,0,0-.53.26C51,61.67,48,59.59,44.85,57.81l-7.42-4.16C37.48,53.33,37.78,53.27,38,53.12Z"/><path class="cls-5" d="M196.83,12.5a3.29,3.29,0,0,1-2.72-.13C190.63,11,187,10,183.45,9a2.36,2.36,0,0,1-.46-.1c-.58-.25-.52-.75-.4-1.21s.56-.43,1-.28c2.6,1,5.21,2,7.8,2.94C193.05,11,194.72,11.66,196.83,12.5Z"/><path class="cls-23" d="M7.8,23.94c.27.34.69.34,1.06.46-2.44,1.4-5,2.66-7.27,4.29-.37.21-.21.7-.52.94V36c-1-.11-.85-.66-.87-1.11a23.81,23.81,0,0,0-.11-3.59c-.4-2.25.54-3.5,2.52-4.41C4.4,26,6,24.71,7.8,23.94Z"/><path class="cls-24" d="M218,18.09a4.05,4.05,0,0,1-.88-2.45c3.46,2.76,4.72,6.66,5.54,10.78.13.64,0,1.16-.62,1.36-1.18.39-2.39.77-3.51-.16.67-.49.2-1.32.54-1.9.77-.07,1.13.89,2.11.7A19.77,19.77,0,0,0,218,18.09Z"/><path class="cls-25" d="M43.82,18.44a52.63,52.63,0,0,0-10.41-6.07c-.29-.12-.6-.19-.69-.55L33,11.6a1.35,1.35,0,0,1,1.23.18c3.71,2.05,7.62,3.75,11.06,6.28a4.61,4.61,0,0,0,1.33.43l.11.12c0,.31,0,.62-.07.92l0-.05c-.16.28-.29.61-.69.65-.36-.15-.54-.38-.34-.78A2.8,2.8,0,0,0,43.82,18.44Z"/><path class="cls-26" d="M193,29.08a10.54,10.54,0,0,1-2.32-1.94c.57-.22,1.74.47,1.43-1.07-.27-1.32-.18-1.34-1.87-1.18.14-.75,1.28-.64,1.26-1.5.23-1,.64-.52,1.05-.15-.76-1.79-.76-1.79,0-2.76a18,18,0,0,0,3.24,4.36c.27.25.21.58.19.9a.88.88,0,0,1-.59.18C193.37,26.05,193.76,28,193,29.08Z"/><path class="cls-27" d="M38,53.12l-.55.53L25,45.9l.49-1Z"/><path class="cls-28" d="M189.36,20.75c-1.76-.42-3.48,1-5.18-.12-.65-.41-1.27-.75-1.11-1.62.1-.54.24-1.18.83-1.36s1.66-.31,2,.35C186.64,19.47,188,20,189.36,20.75Z"/><path class="cls-29" d="M189.67,14.69a2.41,2.41,0,0,1,3.75.33c2.24-.59,2.87,1.5,4.15,2.5.2.16.25.38,0,.78l-2.74-2.46c-.53.61.4,1.07-.08,1.67-.52.21-.66-.31-.94-.66-.43-.54-.76-1.58-1.69-.43-.17.21-.56-.14-.81-.35Z"/><path class="cls-30" d="M218.31,14.89c4.71.38,7.91,5.75,7.17,11.83C224.5,21.75,223.87,17,218.31,14.89Z"/><path class="cls-31" d="M53.35,7.51c-.66-.26-.9-1.35-1.89-1a5.49,5.49,0,0,1,1.73-4.82l1.2.08C54.86,3.86,54,5.67,53.35,7.51Z"/><path class="cls-32" d="M62,65.2a1,1,0,0,0,.45.88c-2.74,2-4.69,3-6.46,3.2C57.84,67.64,59.44,65.68,62,65.2Z"/><path class="cls-33" d="M192.54,20.48c-.56.13-.48.53-.31.89a12.46,12.46,0,0,0,.78,1.44c.25.4.56.75.85,1.13-1.13.19-1.15.22-1.62-.32-.24-.26-.31-.79-.77-.23a15.12,15.12,0,0,1-.91-2.17c-.14-.58-.18-1.39.56-1.65S192.3,19.8,192.54,20.48Z"/><path class="cls-1" d="M215.56,46.46a.78.78,0,0,1-.4-.09c-1-2.11-1.08-5.54-.1-6.74l.13.08c1.61,1.82,2,3.74.5,5.84C215.53,45.78,215.6,46.16,215.56,46.46Z"/><path class="cls-5" d="M124,35.2c-.44.11-.47.8-1.08.71-1.67-.25-3.41-.24-4.79-1.44C120.14,34,122.16,33.68,124,35.2Z"/><path class="cls-4" d="M78.83,56.54a1.1,1.1,0,0,0-.66-.66c2.86-2.28,4.39-3.15,6.54-3.63C82.57,53.76,81.18,55.77,78.83,56.54Z"/><path class="cls-34" d="M187.16,25.6c-3.61-.85-3.61-.85-2.59-3.92l2.51,1c-.38.92-.85.26-1.23.27s-.8,0-.92.51.19.7.54.94C186,24.72,186.73,24.68,187.16,25.6Z"/><path class="cls-15" d="M223.58,28.22c.69-2.77-.66-5.22-1.32-7.92C224.33,22.43,225,26.27,223.58,28.22Z"/><path class="cls-35" d="M195.9,30.57c0,.52-.1,1.09.49,1.42a1.13,1.13,0,0,1,1,.75,2.45,2.45,0,0,0,.44,2.14.83.83,0,0,1-.32,1.35c-.56.32-.94-.09-1.08-.52-.63-1.81-2-3.42-1.63-5.51a.44.44,0,0,1,.66-.13Z"/><path class="cls-36" d="M187.91,15.78c-.52-1,.24-2.16-.32-3s-1.9-.67-2.73-1.3c-.09-.07-.09-.26-.14-.39C188.47,11.25,189,12,187.91,15.78Z"/><path class="cls-4" d="M57.31,63.29c-.16-.13-.49-.31-.17-.5.56-.33.23-.63.09-1l.91-.56c1.23-.07,2.28-.95,3.57-.78a.68.68,0,0,1,.4.46A17.55,17.55,0,0,1,57.31,63.29Z"/><path class="cls-37" d="M61.5,26.74l.64-.62c1-.36.4-1.25.6-1.87s.11-1.14.3-1.71c.63,1.42.35,2.9.48,4.44A2,2,0,0,1,61.5,26.74Z"/><path class="cls-38" d="M183.91,16.13c-.56.07-.95-.11-.93-.74a14.21,14.21,0,0,1,.81-5,30.73,30.73,0,0,1,.09,5.79Z"/><path class="cls-39" d="M24,15.12c-.2-.36-.62-.26-.92-.41a6.55,6.55,0,0,1,2.4-1.44c.47.14,1.09-.2,1.4.45C25.92,14.12,25.23,15.12,24,15.12Z"/><path class="cls-36" d="M183.88,16.16a5,5,0,0,1,4.18,1.53c-1.49-.25-3.11-.13-4.15-1.56Z"/><path class="cls-40" d="M57.21,18.05l.95.5c.27,1.35.84,2.72-.35,4Z"/><path class="cls-41" d="M195.43,30.07H195a1.3,1.3,0,0,1-.55-2.1,18.53,18.53,0,0,1,1.11-2.23,1.77,1.77,0,0,1,.46,0,1.55,1.55,0,0,1-.24,2.42C194.9,28.82,195.34,29.41,195.43,30.07Z"/><path class="cls-42" d="M201.11,15.71c.07-.7.65-.51,1.07-.6a.26.26,0,0,1,.42,0l1.53,0a.44.44,0,0,1,.52.16c0,.61-.38.93-.78,1.26l-.29.11-1-.34C202.06,16.1,201.47,16.2,201.11,15.71Z"/><path class="cls-4" d="M65.52,59a9.56,9.56,0,0,1-3.41,1.9L62,60.79c.4-1.87,1.72-2.17,3.35-1.92Z"/><path class="cls-43" d="M32.72,11.82a5.13,5.13,0,0,1-3.27-.39c.64,0,1.11-.67,1.81-.55.29.61,1.59-.33,1.44.95Z"/><path class="cls-5" d="M181.51,10.39l-.53.5c-.5-1.07.26-2,.28-3A4.51,4.51,0,0,1,181.51,10.39Z"/><path class="cls-15" d="M32.7,11.83c-.22-.71-1.11-.4-1.44-.95,1.1-.14,2.19-.19,2.92.9A3.09,3.09,0,0,0,32.7,11.83Z"/><path class="cls-5" d="M117.22,34.41c.84,1.24.84,1.24-.57,1.36C115.53,34.76,116.58,34.67,117.22,34.41Z"/><path class="cls-44" d="M58.27,29.47c-.26.13-.52.25-.59.58-.75.11-1.14-.36-1.45-.94l.87-1C57.08,28.93,57.91,29,58.27,29.47Z"/><path class="cls-44" d="M58.14,26.66a2.16,2.16,0,0,1,2.9,0Z"/><path class="cls-44" d="M60.09,25.17a1.87,1.87,0,0,1-1.66.51c0-.75,1-.33,1.12-.84C59.83,24.8,60,24.88,60.09,25.17Z"/><path class="cls-5" d="M181.62,13.32l0-2.5A2.12,2.12,0,0,1,181.62,13.32Z"/><path class="cls-26" d="M190.67,27.15l-.6.11a1.48,1.48,0,0,1-.23-.4c-.05-.21-.13-.54,0-.63.4-.36.38.24.61.34A.48.48,0,0,1,190.67,27.15Z"/><path class="cls-4" d="M88.41,43a1.08,1.08,0,0,1,1.2.78,1.1,1.1,0,0,1-1.24-.73Z"/><path class="cls-44" d="M60.15,29.51c-.35.17-.71.55-1,0C59.45,28.94,59.8,29,60.15,29.51Z"/><path class="cls-9" d="M1.07,29.63a.67.67,0,0,1,.52-.94c.13.28.25.57.38.85Z"/><path class="cls-45" d="M53,46.93c-1,2-1.77,2.25-3.54,1.08-.79-.51-1.34-1.36-2.3-1.61-.84-1.12.89-1,.88-1.88-.86.63-2,1-.85,2.29.42,1.24,2.09,1.44,2.38,2.91-1.73,1.09-2.85-.63-4.21-1-.71-.21-1-2.75-.39-3.42,1-1.06,1.13-3.45,3.55-2.6,1.08.09.76-.75.8-1.28a5.54,5.54,0,0,1,.8-2.93c.6-.82,1.3-1.3,1.84.1.18.36,0,1,.83.81,1.89-.36,5,1.31,5.53,2.9a.9.9,0,0,1-.59,1.14c-.58.27-1.21.4-1.8.62a11.39,11.39,0,0,1-3.78.66,1.93,1.93,0,0,1-1.3-1.08.77.77,0,0,1,.07-.66c-.35-.08-.25.25-.3.38a2,2,0,0,0,0,1.15c0,.42-.32.71-.41,1.08s.28.08.36.22C51.35,46.17,52.34,46.16,53,46.93Z"/><path class="cls-46" d="M8.36,30.63c0,1.05,1,1.19,1.57,1.58,6.47,4.07,13,8.1,19.43,12.15.81.5,1.58,1.06,2.37,1.59.3.55.41,1-.48.93C27.38,44.64,23.79,42,20,39.59c-4.12-2.59-8.29-5.1-12.43-7.66-.58-.36-1.29-.56-1.67-1.2.25-.36.57-.25.87-.19C7.28,31.11,7.87,29.91,8.36,30.63Z"/><path class="cls-47" d="M8.36,30.63c-.53-.06-1.1.79-1.58-.09,7.5-4.26,14.88-8.71,22.1-13.43.33-.3.72-.29.92.08s-.14.67-.41.92A218.6,218.6,0,0,1,8.36,30.63Z"/><path class="cls-48" d="M51.83,44.34l4-.76c.94,0,1.88-.12,2.82-.25,2.68-.36,4.87-1.32,5.68-4.19,1.25.23.85,1.15.87,2s-.92,1.46-.85,2.37a8.59,8.59,0,0,1-6.71,2.9c-.33-1.35-1.25-.52-1.85-.42a13.34,13.34,0,0,1-4,.4c-.6-.08-1.1-.34-1.12-1S50.92,44.07,51.83,44.34Z"/><path class="cls-49" d="M63.48,51.23a47.76,47.76,0,0,1-8.88,5.56c-.54.28-1.06.75-1.63-.06-.42-.61-.78-.06-1.15.21s-.54.47-.78,0a.63.63,0,0,1,.32-1c4-1.3,6.93-4.78,11.13-5.74C63,50.45,63.39,50.66,63.48,51.23Z"/><path class="cls-50" d="M31.25,46.88a.92.92,0,0,0,.48-.93c4.92,2.65,9.46,5.9,14.2,8.8a14.88,14.88,0,0,1,2.78,2.11A82.28,82.28,0,0,1,31.25,46.88Z"/><path class="cls-30" d="M73.48,52.09a1.2,1.2,0,0,1-.59,1.23c-1.62.84-3,2.09-4.82,2.59-.26-.79.7-1,.79-1.66-.51-.12-1-.19-1.55-.36-2-.69-2.3-1.77-1-3.4a3.37,3.37,0,0,1,3.86-1.13c1.08.51,1.44,1.57,1.17,3.61A8.68,8.68,0,0,0,73.48,52.09Z"/><path class="cls-51" d="M51.51,38.73c-.24-.77-.68-1-1-.14-.46,1.23-.74,2.53-1.09,3.8-.18.62-.48.74-1,.28.5-.31.48-.69.29-1.22-1.28-3.49-.44-5.31,3-6.62a3.31,3.31,0,0,1,2.07-.41c.47.68-.91,1-.35,1.66C53,37.11,52.72,38.26,51.51,38.73Z"/><path class="cls-35" d="M45.6,19.35l.52.64c.61,2.05,2.61,2.55,4.08,3.65,1,1.6,1,1.6.21,2.16-4.51-2.23-8.73-5-13-7.62l.2-.22c2.83.79,5.26,2.45,7.8,3.78C46.19,21,44.57,20.08,45.6,19.35Z"/><path class="cls-49" d="M53.37,35.89c-.95-.86.45-.94.49-1.47a9.47,9.47,0,0,1,8.29.7,8.4,8.4,0,0,1,2.29,2.07c1.71,2.23,1.67,3.86-.09,6.27-.65-.37-.25-.73,0-1.1a2.5,2.5,0,0,0,0-3.14.82.82,0,0,1-.43-.2c-2.59-3.6-6.08-4.22-10.11-3A.78.78,0,0,1,53.37,35.89Z"/><path class="cls-52" d="M33.37,20.7c1.69-.35,2.28.9,3,1.89.45.65.7,1.2,1.68,1.4,1.44.31,2,1.89,3,3,.4-.77.09-1.92,1.07-2,.79-.07,1,.89,1.34,1.51a5.66,5.66,0,0,1,1.05,3.36c-.67-1.16-1.34-2.32-2-3.48-.2.15-.37.21-.42.32-.27.62.22,1.69-.6,1.87-1,.23-1.06-1-1.54-1.54s-.86-1.14-1.33-1.68c-.24-.28-.54-.62-1-.27-.88.68-1.08-.07-1.32-.65A6.93,6.93,0,0,0,33.37,20.7Z"/><path class="cls-53" d="M63.48,51.23a1.86,1.86,0,0,1-1-1l13.59-7.84c-1,2.08-2.73,2.38-4,3.28-1.41,1-2.95,1.86-4.43,2.8S64.88,50.32,63.48,51.23Z"/><path class="cls-44" d="M50.41,25.8c.59-.82-.69-1.21-.43-1.95A5.4,5.4,0,0,0,51.85,22a4.09,4.09,0,0,0,2.29,1.39c1,.08,1.23.79,1.61,1.44-.5,1.37-2.17.83-3,1.83.54.83,1.91.52,2.18,1.61a.5.5,0,0,1-.23.55,2.54,2.54,0,0,0-.45-.13C51.52,28.18,51.52,28.18,50.41,25.8Z"/><path class="cls-39" d="M29.67,25.24c1.25,0,1.79,1,2.52,1.57s1,1.25,2.15.9c1-.29,1.64.77,2.26,1.49s1,1.41,2.07.84a.89.89,0,0,1,1.14.62c0,.82-.86,0-1,.33-.64,1.87-1.22.77-1.83,0s-1-1.25-1.51-1.85c-.26-.3-.73-.72-1-.46-1.15,1.14-1.67,0-2.27-.59C31.35,27.23,30.57,26.26,29.67,25.24Z"/><path class="cls-54" d="M51.83,44.34c-.43.18-1,.28-.91.89s.58.74,1,.73a8.88,8.88,0,0,0,3.92-.54,2.53,2.53,0,0,1,2.78.3l-1,.64a18.09,18.09,0,0,0-4.69.57A4.71,4.71,0,0,1,50,46L50,45.88c-.62-.75.41-.93.49-1.44-.2-.54.08-.79.57-.9A1.79,1.79,0,0,1,51.83,44.34Z"/><path class="cls-27" d="M17.8,28.72c3.4,2.55,7.2,4.58,10.07,7.81C24.38,34.1,20.58,32.07,17.8,28.72Z"/><path class="cls-55" d="M22.3,26.49c2-.78,2.65.68,3.58,1.3.48.33.72,1,1.07,1.55.61.93,1.12,1.9,2.57,1.65.61-.11,1.12.47,1.27,1.41-.74-.27-1.31-.88-2.12-.49-.43.21-1-.19-1.22-.56A14.06,14.06,0,0,0,22.3,26.49Z"/><path class="cls-19" d="M65.35,58.87A5.53,5.53,0,0,0,62,60.79c-.44.08-1,0-1.3.27-.84.82-1.69.35-2.55.2a7.43,7.43,0,0,1,2.92-1.85,1.89,1.89,0,0,0,1.87-.81c.49-.57,1.4,0,1.86-.7C65.62,57.85,65.65,58.26,65.35,58.87Z"/><path class="cls-49" d="M37.53,35.74c0,1-.67,2.2-1.33,2.27-.93.09-2.27-1.56-2.34-2.89,0-.91.5-1.26,1.31-1.28A2.54,2.54,0,0,1,37.53,35.74Z"/><path class="cls-19" d="M33.58,39.86a1.42,1.42,0,0,1-1.28,1.51c-.83.1-1.89-1.09-2-2.1a1.49,1.49,0,0,1,1.53-1.48C32.89,37.76,33.58,38.5,33.58,39.86Z"/><path class="cls-56" d="M70.11,37.78l.48-.45a51.23,51.23,0,0,1,7.5,5A41.21,41.21,0,0,1,70.11,37.78Z"/><path class="cls-57" d="M29.39,18.11c.24-.54.26-1-.51-1,.65-.45,1.29-.92,2-1.34,1.32-.83,1.33-.81,3.18.29-1.05-.43-1.87-.47-2.48.69A3,3,0,0,1,29.39,18.11Z"/><path class="cls-58" d="M47.14,46.81c-1.46-.7-1.45-.7-.43-1.86a4.16,4.16,0,0,0,.48-.79c.33-.61.92-.6,1.46-.52a.6.6,0,0,1,.37.76c-.37.47-.4,1.46-1.33,1.21s-.39.53-.58.79A.71.71,0,0,1,47.14,46.81Z"/><path class="cls-35" d="M37.41,18.18a6,6,0,0,1-2.18-1.35A3.76,3.76,0,0,1,37.61,18Z"/><path class="cls-4" d="M62.93,58.6c-.41.76-.85,1.47-1.87.81Z"/><path class="cls-39" d="M41.45,33.07a6.88,6.88,0,0,1-.73-.66c-.16-.22-.43-.42-.3-.75a.52.52,0,0,1,.16-.15,6,6,0,0,1,.62.62A4.75,4.75,0,0,1,41.45,33.07Z"/><path class="cls-44" d="M56.13,28.51l.1.6a1.26,1.26,0,0,1-1.56-.34l.2-.25A1,1,0,0,1,56.13,28.51Z"/><path class="cls-1" d="M143.33,44.87l-.47-.51c-.37-1.36.86-1.46,1.57-1.88,5.47-3.23,11-6.3,16.45-9.63a3.7,3.7,0,0,1,.61-.35c2.3-.76,3.58,1.25,5.34,2,2.18.9,3,2.41,2.17,4.71a2.07,2.07,0,0,1-.31.61,10.41,10.41,0,0,1-1.33,1,3.41,3.41,0,0,1-.57.36c-1.54.57-1.89,1.1-.29,2.26,2.32,1.66,4.64,3.35,6.79,5.24a2.65,2.65,0,0,0,3.86,0,11.84,11.84,0,0,0,3.1-3.89c.78-1.65,2-2,3.49-1a3,3,0,0,0,.41.25c3.41,1.57,5.81,3.61,6,7.91a21.88,21.88,0,0,0,2.37,8.68c.14,1.08-.78,1.67-1.18,2.51s-1.87,1.83-.72,2.87,2.08-.39,3-1c.2-.13.25-.2.19-.15l0,0c-.92.69-2,2.13-3,1.18-1.19-1.2.52-2.33,1.07-3.47.76-.78,1.91-1,2.64-1.89a1,1,0,0,1,.67,0,4,4,0,0,1,1.41,3.09,4,4,0,0,1,0,1.38c-.89,1.93-2.18,3.66-3,5.63a3.65,3.65,0,0,1-1.8,1.83c-12.06,7-24.16,13.89-36.2,20.89a4.18,4.18,0,0,1-2.22.79c-2.75-1-3.13-1.55-3.18-4.33a21.17,21.17,0,0,1,0-2.39,3.61,3.61,0,0,0-2.07-3.94,4.79,4.79,0,0,1-2.72-4.93c.1-1.62-.43-3.16-.47-4.76,0-.79-.09-1.73.74-2.14s1.32.23,1.93.64a15.35,15.35,0,0,1,3.48,2.89c1.11,1.1,2.39,1,3.71.49,5.81-3.63,11.51-7.44,17.21-11.25,2.18-1.45,4.31-3,6.58-4.32.58-.34,1.16-.61.8-1.44,0-2.22-1.61-2.82-3.35-3.27a47.33,47.33,0,0,1-6.33-3.73,9,9,0,0,0-2.51-1.3c-.16,0-.22-.13-.29-.23-.07.14,0,.22.22.21a53.43,53.43,0,0,1,10.51,7c2.14,1.94,2.12,2.07-.15,3.49-5.11,3.2-10.08,6.61-15.09,10-2.63,1.78-5.45,3.25-8,5.09a3.06,3.06,0,0,1-2.3-.26c-.61-.38-1.26-.86-1.22-1.64s.94-.6,1.48-.79a18.38,18.38,0,0,0,4.78-2.48c-.61.23-1.08.83-1.75,1.08s-1.35.88-1.93.11c-.79-1.06.71-1.07.89-1.56-2.34-.38-3.88,1.77-6.09,2a.64.64,0,0,1-.49-.4c-.08-1.22,1-1.27,1.71-1.68,1-.58,2.08-1,2.77-1.52-1.89.58-3.53,2.77-6.18,2.2-1.32-.9-1-2.13-.74-3.37s-.09-2.67.62-3.88A88.18,88.18,0,0,1,158,55.42a13.32,13.32,0,0,0,3.33-2.3,58.23,58.23,0,0,1-8.56,5.25c-2.65.9-2.28-1-2.41-2.54-.14-.29-.3-.58-.46-.86a22.54,22.54,0,0,1-1.13-2.38c-.17-.45-.3-1,.12-1.33s.91-.1,1.35.08a1.2,1.2,0,0,1,.42.22c2.52,2.4,5,.95,7.38-.2a36.94,36.94,0,0,0,4.35-2.49c1.27-.83,1.2-1.63-.07-2.28a33.39,33.39,0,0,1-5.45-3.44,1.79,1.79,0,0,0-2.4-.11c-1.42,1-3.06,1.7-4.57,2.58C146.41,47.65,146.41,47.65,143.33,44.87Z"/><path class="cls-1" d="M215.58,47.75l9.58,5.42c.14.08.28.16.41.25,2.23,1.64,2.17,2.88-.12,4.35-6.39,4.09-13,7.74-19.61,11.54Q175,87.22,144.06,105.07a8.36,8.36,0,0,1-9,0Q108.41,89.59,81.75,74.21A7.73,7.73,0,0,1,80,73c-1.66-1.67-1.54-2.75.48-3.92l10.16-5.86,26.56-15.33c1.26-.63,2.61-.05,3.9-.26,1-.15,2.06-.07,2.82-.91,1.32-.71,2.18-2.64,4.17-1.56l.14.32c-.16.86-1,1-1.55,1.36-1.71,1-3.45,2-5.17,3-.67.41-1.4.12-2.09.15-.94,0-1.53.38-1.42,1.44-.24,1.64-1.76,2-2.87,2.61C107.4,58.38,99.6,62.7,91.87,67.15c-.93.53-2.09.82-2.56,1.95a2.08,2.08,0,0,0,.37.46c7.11,4.52,14.44,8.68,21.6,13.1.84.52,2.23.69,2,2.22-1,.72-2,0-3,.05s-1.77.21-2,1.31a1.7,1.7,0,0,0,1.37,2.15,13.25,13.25,0,0,0,1.62.41c.86.17,1.78.38,2.45-.43s.25-1.64-.21-2.41a1.36,1.36,0,0,1-.21-1.14c1.39-.79,2.26.41,3.18,1,7.56,4.5,15.14,9,22.6,13.6a4.68,4.68,0,0,0,5.47.1q15.69-9,31.38-17.9c10.46-6,20.74-12.28,31.2-18.27,2.77-1.59,5.52-3.2,8.46-5-1.93-1.7-4.17-2.7-6.21-4-3.08-1.94-3.1-1.91-1.38-5a6.42,6.42,0,0,0,.39-1.38,15.18,15.18,0,0,0,.4-2.84c.09-.46.19-1,.74-1.12a1.28,1.28,0,0,1,1.38.76,10.49,10.49,0,0,1,1,4c-.11-2-.91-3.75-1.26-5.64-.16-.91-.58-1.88.11-2.78,2.39-1.6,4-.48,3.8,1.94-.09,1.4.47,2.78.06,4.17v.94c.54.59.4,1.34.49,2,.13,1,.38,1.83,1.56,2.08a2.36,2.36,0,0,1,2,2.82c.06.41.48-.1.22.09-.06,0-.13,0-.14-.18a2.6,2.6,0,0,0-1.83-2.72C214.92,50.82,214.78,49.44,215.58,47.75Z"/><path class="cls-1" d="M227.45,57.24c.11,6.12.92,4.87-3.93,7.73Q185,87.7,146.44,110.27a21.49,21.49,0,0,1-4.12,1.93,8.06,8.06,0,0,1-7.09-.69Q108.49,95.73,81.65,80.14c-2.79-1.62-3.26-3.8-2.7-6.57l53,30.74a45.38,45.38,0,0,0,4,2.12,7.9,7.9,0,0,0,7.38-.12c2.87-1.56,5.74-3.15,8.57-4.79q34.58-20,69.12-39.93A36.88,36.88,0,0,0,227.45,57.24Z"/><path class="cls-59" d="M150.89,55.51c.9.78-.29,1.6,0,2.44.59.28,1.19-.19,1.79,0-1,1.84-5.14,4.75-6.83,4.84a5,5,0,0,1-.24-1.72c.32-1.31,2.08-1.44,2.16-2.69-.48.45-.68,2-2.08.89-.16-.28-.35-.64-.25-.89.93-2.3-.06-4.55-.14-6.79-.51.31-.08.78-.22,1.14a5,5,0,0,1,0,.67c-.3,1.36-.35,2.78-.74,4.12-.16.53-.68.84-1.07,1.38.7-.29,1.35-.57,1.93,0,.65,1.1.19,2.35.47,3.51.22.92-.54,1.23-1.27,1.42a13.74,13.74,0,0,1-5,.24,17.59,17.59,0,0,0,4,0c.73-.06,1.79-.72,2.06.36a2.42,2.42,0,0,1-1.07,2.93,8.44,8.44,0,0,1-5.08,1.07,15.48,15.48,0,0,0-5,.15c.42.12.72.31.68.8a15.58,15.58,0,0,0-2.89,6c-.18,1-.58,1.67-1.65,1.73a1.65,1.65,0,0,1-1.89-1.44A62.21,62.21,0,0,1,127,65.77c1.5-2.12,3.94-2.13,6.12-2.69.82-.21,1.78.16,2.49-.54a4.92,4.92,0,0,0,0-3.28,2.5,2.5,0,0,1,1.11-3.44c-1.26,1-3.22,2.31-5,3.8-1.38,1.17-2.49,1.15-3.75,0a2.75,2.75,0,0,1-.17-.29c-.42-.89-1.29-1.38-1.93-2.07a1.13,1.13,0,0,1-.08-1.67,1,1,0,0,1,1.42-.34c1.22.54,2.56.85,3.53,2.21a12.23,12.23,0,0,1,2.38-3.14,5.22,5.22,0,0,0,1.7-2.56c.55-2.53,2.35-3.84,4.44-4.89a7.71,7.71,0,0,0,2.44-1.44c.6-.37,1.23-.5,1.57.25s-.18,1-.66,1.37a6.82,6.82,0,0,1-2.77,1.26,5.44,5.44,0,0,0,2.71-1.16c1.73-1.17,3.24-1.07,4.55.63a4.32,4.32,0,0,1,.3.61c.84,2.25,1.59,4.54,2.61,6.72C150.42,54.94,150,56.78,150.89,55.51Z"/><path class="cls-1" d="M124,54c.6.12,1.41.2,1.22,1s-1,.64-1.72.32a9.23,9.23,0,0,0,4.26,4l-.06,0a3.23,3.23,0,0,0,4.41.23c1.76-1.15,2.36-.78,3.07,1.1-1.35,1.94-3.63,2.36-5.57,3.32a6,6,0,0,0-2.23,1.22c-1.82,2-4.31,2.91-6.58,4.19-1.21.67-2.31-.06-3.33-.67-3.26-2-6.47-4-9.75-5.95-4.07-2.41-4.1-2.46,0-4.78,3.09-1.75,6.14-3.56,9.29-5.2,1.77-.27,2.37,1.38,3.5,2.12A6,6,0,0,0,118.29,52a3,3,0,0,1-.48-1c-.4-.68-.08-1,.58-1.15.9-.19,1.74-.2,2.07.92.12.54.48.69,1,.68a1.82,1.82,0,0,1,1.49.35C123.48,52.48,123,53.61,124,54Z"/><path class="cls-59" d="M144.49,37.73c.48-.35.69-1.08,1.46-1,1.82-2.12,4.48-3,6.78-4.36,2.46-1.47,5.05-2.73,7.47-4.27,2.17-1.37,4.21-1.72,6.36,0A18.07,18.07,0,0,1,169.27,30a2.63,2.63,0,0,1,.28.7,7.2,7.2,0,0,1-.17,3.39,1.87,1.87,0,0,1-2.88.37c-.84-.59-1.82-.93-2.63-1.59a1.75,1.75,0,0,0-2.55.06l.06,0q-8.41,4.8-16.8,9.64c-.77.44-1.57,1.68-2.79.71.13-.46.29-.92.8-1.08,1.78-.57,2.15-1.87,1.89-3.53A4.94,4.94,0,0,1,144.49,37.73Z"/><path class="cls-60" d="M135.43,31a15.44,15.44,0,0,1,6.11,1.81,1.53,1.53,0,0,1,1,2.09c-.31,1.06-.59,2.13-.89,3.2-.38.59,0,1.16,0,1.75,0,1-.76,1.77-.91,2.74-.07.79-.14,1.58-.21,2.35-.22-.59,0-1.34-.6-1.88-.83,0-.86.82-1.23,1.26-1.6,1.92-3.79,1.65-4.84-.57a9.45,9.45,0,0,1-.54-6.73C133.88,35,134.17,32.84,135.43,31Z"/><path class="cls-61" d="M146.92,48.28c-1.53-1.76-2.32-1.85-4.36-.45a5,5,0,0,1-5,.81c1.79-.85,3.47-1,4.82-1.9.4-.26.91-.57.62-1.09s-.85-.26-1.32-.19c.38-.67,1.07-.49,1.65-.59.42.34,1-.08,1.48.69.74,1.17,2,1.15,3.25.38,2.19-1.3,4.61-2.21,6.58-3.86a1.23,1.23,0,0,1,1.71,0,48.84,48.84,0,0,0,7.05,4.48c1.19.59,1,1.82-.3,2.55-1.58.9-3.19,1.79-4.72,2.79s-3.21.87-4.54,2c-.39.32-.72-.1-1-.3L149,51.3c.05,1.5,1.11,2.43,1.32,3.66.14.55-.12.7-.61.61-1.05-2.41-2.35-4.73-2.88-7.34a19.42,19.42,0,0,1,4.8,2.91,2.71,2.71,0,0,0,3.67,0,40.27,40.27,0,0,1,4.47-3.19c.87-.51.81-1.16,0-1.63a39.5,39.5,0,0,1-3.86-2.41c-.82-.59-1.5,0-2.18.42C151.43,45.57,149.25,47.07,146.92,48.28Z"/><path class="cls-62" d="M123.4,51.62c-.06-.83-.89-.76-1.53-1.16l9.44-5.37c.58-.33,1.13-.65,1.54.23.27.58.75.65,1.36.7a9.78,9.78,0,0,1,2.3.79c-3.74,2.16-7.11,4.09-10.47,6a1.14,1.14,0,0,1-1.5-.23c-.4-.35-.48-1.06-1.19-1.06Z"/><path class="cls-20" d="M214.66,46.39a28.92,28.92,0,0,1-.59-6.24,7,7,0,0,0-3.25.49,2.1,2.1,0,0,0-.4.44c-.3.47-.31,1.33-1.25.93a1.88,1.88,0,0,1-.3-.6,36.23,36.23,0,0,0-.5-5c-.22-1-.34-2.22.73-3.06,1.17.9.75,2.26,1.17,3.34.32.85.66,1.8,1.74,1.64,1.39-.21.72-1.33.66-2.11a10,10,0,0,1,0-2.38c.47-.8-.28-1.61,0-2.41,0-.37,0-1,.55-.41,1.08,1.15,1.18,2.67,1.23,4.15a16.89,16.89,0,0,0,.59,4.43c-.6,1.3.16,2.59.05,3.9a24.51,24.51,0,0,0,0,2.84Z"/><path class="cls-63" d="M134.82,48.9c-2,1.1-2.14,3.42-3.31,5-1.4,1.91-1.33,2-3.35.95-.56-.29-1.08-.64-2-1.17A81.18,81.18,0,0,1,134.82,48.9Z"/><path class="cls-64" d="M127.67,42A21.91,21.91,0,0,1,132,39.33c0,1.51,0,2.77,0,4a.76.76,0,0,1-.5.73c-1.06.47-1.9,1.49-3.22,1.34h0C127.37,44.39,126.86,43.28,127.67,42Z"/><path class="cls-65" d="M127.67,42a10.29,10.29,0,0,0,.55,3.47c-.56-.24-1-.7-1.7-.06A21.51,21.51,0,0,1,124.43,47c-.54-.07-.73-1.05-1.48-.57a6.93,6.93,0,0,1-2.81-.09c1.74-1.59,3.85-2.27,5.69-3.39C126.94,43.58,126.88,41.93,127.67,42Z"/><path class="cls-66" d="M141.79,43.28c1,.27,1.63-.49,2.35-.9,5-2.81,9.92-5.69,14.89-8.51.72-.41,1.36-1.14,2.35-.94-.22.91-1.12,1-1.75,1.41-4.95,2.91-9.92,5.76-14.88,8.64-.68.39-1.48.62-1.89,1.38A1,1,0,0,1,141.79,43.28Z"/><path class="cls-67" d="M123,46.38c.88-.82,1.32-.49,1.48.57a6.13,6.13,0,0,1-5.81,1,5.06,5.06,0,0,0-1.41-.08c1.06-1,2.39-1,3.71-1.05l2.08-.07s.09-.1.08-.14A.63.63,0,0,0,123,46.38Z"/><path class="cls-68" d="M215.58,47.75c0,.55,0,1.11,0,1.65-.06,1,.42,1.37,1.27,1.7,2.51,1,2.63,1.31,1.93,4.11-.58-.48-.26-1.19-.49-1.76s-.66-1.47-1.36-1.53c-2.1-.18-2.05-1.76-2.28-3.18a9.49,9.49,0,0,1,0-1.41C215,47.45,215.41,47.32,215.58,47.75Z"/><path class="cls-69" d="M140.74,42.62a4.65,4.65,0,0,1,.43-2.7c.14-.52.67-.48,1-.71l.92-.49c1,.05,1.2.68.85,1.44s-.94,1.57-1.94,1.4S141.14,42.25,140.74,42.62Z"/><path class="cls-70" d="M120.46,50.81c-.51-.62-1.22-.55-1.92-.56-.92,0-.33.61-.42,1a.42.42,0,0,1-.68,0,.83.83,0,0,1,.17-1.38c.8-.38,1.68-1,2.61-.43a2,2,0,0,0,1.3.36C121.31,50.26,120.59,50.25,120.46,50.81Z"/><path class="cls-62" d="M124,54c-2,.1-.94-1.35-1.08-2.18a.39.39,0,0,0,.46-.22l-.05,0C123.58,52.38,123.8,53.2,124,54Z"/><path class="cls-71" d="M53.35,7.51c-.32-2,.51-3.83,1-5.69,1.76.78,3.49,1.81,5.5.63.62-.36,1,.09,1.38.56.48.66.1,1-.44,1.3-.83.47-1.21,1.16-.51,1.93,1.11,1.23.31,1.74-.71,2.23a1.11,1.11,0,0,1-.52.33c-.72.14-1.32-.53-2.06-.31s-1.18.53-1.76,0C54.89,7.64,54.57,6.68,53.35,7.51Z"/><path class="cls-72" d="M58.94,8.54l.67-.07a.78.78,0,0,0,0,.23c.45.7,1.33-.72,1.75.4a3.24,3.24,0,0,1,.07,2.31A6.71,6.71,0,0,1,59.22,15a2.51,2.51,0,0,1-3.85-.69c-.66-1-1.6-2-1.52-3.39.82-1.26,1.8-1.24,3-.54.89.5.95.39,1.51-.38A1.74,1.74,0,0,1,58.94,8.54Z"/><path class="cls-34" d="M58.57,9.82c.2.67.87,0,1.16.39-1.07,1.21-2,1.67-2.83.85-1.12-1.15-2-.44-3-.19A4,4,0,0,1,53,8.38c.8-.17.92.37,1.25.68.88.83.95.07,1-.59L57.22,8C57.62,8.65,58.18,9.18,58.57,9.82Z"/><path class="cls-1" d="M63.16,15a5.22,5.22,0,0,1-1.38,3.67c-.34.33-.7.72-1.16.21s-.43-.86.14-1.13C62,17.17,62.35,15.89,63.16,15Z"/><path class="cls-73" d="M63.58,8.82c-.08.64.07,1.45-.82,1.45a.9.9,0,0,1-.85-1.16c.13-.66,0-1.64.88-1.7S63.51,8.26,63.58,8.82Z"/><path class="cls-1" d="M59.45,16.66c-.26.63-.58,1-1.19.92-.07,0-.19-.26-.16-.37C58.3,16.47,58.85,16.61,59.45,16.66Z"/><path class="cls-1" d="M213.18,33.46a25.85,25.85,0,0,0,.31,4.3c0,.61.28,1.43-.64,1.5s-1.93.51-2.56-.61a9.77,9.77,0,0,1-1.16-4.83c-.48,2.78,1,5.49.22,8.27-.41,1.63-.09,3.34-.53,5a2.21,2.21,0,0,1-.88.56,2.24,2.24,0,0,1-1,.05,20.28,20.28,0,0,1-7.49-4.32c-1.09-1-1.66-.28-2.44.16-1.81,1.68-3.56,1.47-5.52.12-2.34-1.61-4.85-3-7.29-4.41a4.55,4.55,0,0,1-2.08-1.87,4.72,4.72,0,0,1-.21-1.18c-.22-2.82,0-3,2.67-1.89a6,6,0,0,1,.6.36,50.1,50.1,0,0,0,8.29,4.91A2.2,2.2,0,0,0,196,39.3a10.71,10.71,0,0,0,1.63-.35c2-.74,1.95-.76,2.86.92a3.31,3.31,0,0,0,.22-1.64c-.35-1.59-1.13-3.09-1-4.78l2-3.46c.49-.82.94-1.75,2.17-1,.19.13.51.18.61-.08.66-1.74,2.1-1.26,3.39-1.22,1,2.41.61,3.15-1.9,3.29-.45,0-1-.16-1.3.31,0,1,.73,1.06,1.44,1.15-.24-.35-1-.47-.5-1.15.63-.42,1.35-.23,2-.31.93,0,1.7-.65,2.62-.75A5.06,5.06,0,0,1,213.18,33.46Z"/><path class="cls-59" d="M174.36,28.48a.53.53,0,0,0-.52-.38c-.15-.27-.42-.54-.43-.82,0-1.2,0-2.39,0-3.57.69-.31,1.09.19,1.53.45q8.52,4.89,17,9.81c.75.43,1.62.76,1.69,1.83.24.49,0,1.07.3,1.54a.55.55,0,0,0,.14.39c-.73,1.3-1.48.21-2-.1a44.2,44.2,0,0,0-7.23-3.58A8.76,8.76,0,0,0,182,33.4C179.27,32.08,176.45,30.86,174.36,28.48Z"/><path class="cls-1" d="M195.51,25.74c-.17.56.48,1.25-.18,1.71-1.09.76-.86,1.66-.38,2.62.24,1.89,1.33,3.5,1.81,5.31.09.35.17.86.76.54.43-.24.38-.64.28-1,0-.62.15-1.09.94-.62.2.11.43,0,.55-.26,1.47,1.22.74,2.06-.48,2.81-.3.25-.6.52-.91.76-1.64,1.24-2.47,1-3.05-.94a20.79,20.79,0,0,1-1.28-5.77,2,2,0,0,0-.57-1.25l0-.53a2.14,2.14,0,0,1,.48-2.72c.6-.49.66-.73.27-1.38C194.48,24.92,195.17,24.89,195.51,25.74Z"/><path class="cls-56" d="M182,33a8.39,8.39,0,0,1,4.11.91,48.45,48.45,0,0,1,6.31,3.29c.48.3.9,1,1.65.57.89.22,1,1.37,2,1.57-.66,1.76-.68,1.8-2,1.2a57.86,57.86,0,0,1-8.86-5c-.17-.12-.23-.37-.34-.56.75-.58,1.23.12,1.81.37,1.47,1.05,3.15,1.75,4.64,2.77a.3.3,0,0,1,.25.28c0-.15,0-.24-.23-.27-1.37-1-2.93-1.67-4.35-2.57-.68-.3-1.18-1.27-2.12-.58-.9.14-1.44-.91-2.5-.66v3.05c-1.23-.33-.78-1.52-1.18-2.28a2.49,2.49,0,0,1,0-1.38A1.37,1.37,0,0,1,182,33Z"/><path class="cls-1" d="M170.08,25.8c-.59-.51-2.14-.83-.31-1.81.37-.19.14-.72,0-1.1-.31-.87-.61-1.75-1-2.78,2.23,1.4,2.58,2.71,1.66,5.56l-.18.14Z"/><path class="cls-74" d="M198.81,36.81c.48-.88,1.46-1.68.48-2.81l.4-.55a27.11,27.11,0,0,1,1.54,3.85c.18.42-.11.74-.5.93C199.88,38,199.57,37.12,198.81,36.81Z"/><path class="cls-1" d="M172.86,21.43c-.82-.6-1.78-1.1-1.45-2.39C173.46,19.61,173.46,19.61,172.86,21.43Z"/><path class="cls-13" d="M172.75,28.67c0,.16.07.41,0,.45a2.08,2.08,0,0,1-2.08-.63c-.35-.41-.68-.93.05-1.34a.93.93,0,0,1,.23,0Z"/><path class="cls-56" d="M193.91,37.34a1.84,1.84,0,0,1-.3-1.54A1.65,1.65,0,0,1,193.91,37.34Z"/><path class="cls-2" d="M213.18,33.46l-2.9-2.87c-1.11-.57-1.58.62-2.4.87l-2.37,0a1.22,1.22,0,0,1-1.37-.52c-.1-.37-.64-.86.22-1,.19,0,.39.25.61.32,2.64.79,2.89.6,2.87-2.13a3.54,3.54,0,0,1,0-.46.54.54,0,0,0,.1-.46.93.93,0,0,1,1.28-.75c.48.25.23.84.56,1.16.08.83.08,1.63,1,2.15a11.64,11.64,0,0,1,1.89,1.64C212.88,32.12,213.77,32.61,213.18,33.46Z"/><path class="cls-8" d="M209.8,27.67a1.21,1.21,0,0,1-.48-1.18c.33-1.27.91-2.26,2.45-2.17l0,0c.09.73-.44,1.14-.82,1.64S209.87,26.9,209.8,27.67Z"/><path class="cls-59" d="M145,31.48c.44.14.75-.16,1.08-.35l15-8.71a14.78,14.78,0,0,1,4.43-1.89,8,8,0,0,1-.06,3.58,2.69,2.69,0,0,0,1.13,3.05c.17.48-.13.64-.51.74-2-1.45-4-1-5.91.31-3.88,2.53-8.08,4.52-12,6.94-2.42,1.49-2.78,1.29-2.92-1.57a1.23,1.23,0,0,0-.23-.67C145,32.44,144,32,145,31.48Z"/><path class="cls-75" d="M145.05,32.91c.74.82.13,1.86.5,2.84.67.22,1.14-.29,1.64-.57,4.64-2.6,9.3-5.17,13.88-7.88,1.52-.89,2.82-1.3,4.27,0a3.55,3.55,0,0,0,.86.38c1.08.54,2.49.57,3.08,1.91a.88.88,0,0,1-.29.61A13.19,13.19,0,0,1,165.28,28c-1.32-1-2.33-.8-3.65,0-4.33,2.55-8.74,5-13.13,7.45A10.1,10.1,0,0,1,146,36.71c-.56-.32-1.1-.61-1-1.42S145,33.71,145.05,32.91Z"/><path class="cls-2" d="M142.19,39.21c-.2.44-.7.44-1,.71a1.69,1.69,0,0,1,.44-1.79C141.75,38.52,141.71,39,142.19,39.21Z"/><path class="cls-1" d="M211.77,24.32l-2.45,2.17a3,3,0,0,0-1.36.77c-3,.06-3.88-.45-4.39-2.44a9,9,0,0,1-.23-4,17.11,17.11,0,0,0,.24-4.23h0c.23-.32.49-.75.88-.72a3.77,3.77,0,0,0,4.27-2.41,5.42,5.42,0,0,0,3.43,4.18A14.48,14.48,0,0,1,211.77,24.32Z"/><path class="cls-76" d="M204.5,15.23a.55.55,0,0,1-.37-.14,4.56,4.56,0,0,1,5.78-4.16,3.57,3.57,0,0,1,2.39,3.34,3,3,0,0,0-.65,1.8c-.27,1-1,.92-1.71.66a1.19,1.19,0,0,1-.71-1.57,2.6,2.6,0,0,0-.26-2.07C207.72,14.46,207.23,17.57,204.5,15.23Z"/><path class="cls-1" d="M218,18.09c.82-.22.82.58,1.06.95A21.31,21.31,0,0,1,222,27c-2.12.35-2.12.35-3-1.23A50.23,50.23,0,0,0,218,18.09Z"/><path class="cls-9" d="M204.5,15.23a1.77,1.77,0,0,1,1.15.19c1,.38,1.62.31,1.89-.93a4.25,4.25,0,0,1,2.17-2.72,9.56,9.56,0,0,1-.05,3.13c-.2,1.71.23,2,2,1.17a1.88,1.88,0,0,1,.52,1.61c-1.11.43-1.81-.82-2.87-.69-.38.05-.41-.43-.42-.73a17,17,0,0,0-.15-2.24c-.47,2.37-1.65,3.21-3.85,2.18-.47-.22-.89.2-1.29.43C203.46,15.88,204.26,15.74,204.5,15.23Z"/><path class="cls-77" d="M214.15,12.82a8.34,8.34,0,0,1,1.41,5.8c-.06.39-.15.91-.64.79s-1.26,0-1.15-.42c.45-1.78-1.11-3.26-.58-5a1,1,0,0,0,0-.24v0a2.58,2.58,0,0,1,1-1Z"/><path class="cls-1" d="M213.36,22.71a2.11,2.11,0,0,1,1-2.32A1.77,1.77,0,0,1,213.36,22.71Z"/><path class="cls-1" d="M197.36,32.74c-.36-.2-.79-.31-1-.75C197.5,31.24,197.12,32.39,197.36,32.74Z"/><path class="cls-13" d="M181.47,33.47l.13,1.46a16.55,16.55,0,0,1-1.16,9.79,2.09,2.09,0,0,1-.08.23,6.57,6.57,0,0,1-4.66,4.45c-2.18.41-3.59-1.58-4.87-3.21.47-1.07,1.61-.8,2.42-1.19a4.89,4.89,0,0,0,2.12-2.1,7.07,7.07,0,0,1,2.28-2,4.38,4.38,0,0,0,.64-6.67c-1.49-1.65-3.35-2-4.87-1a4.08,4.08,0,0,0-1.15,5,2.13,2.13,0,0,1,.4.94,3,3,0,0,1-.33,1.35c-1.28,1.6-1.19,3.56-1.43,5.44-2.43-.2-4.18-1.81-5.59-3.42-.85-1,1.28-1.16,1.81-1.94l0,0c.49-.35,1-.62,1.5-1l-.05,0a28.54,28.54,0,0,0,1.3-7.67c0-1-.27-2.11.79-2.83.41.24.79.52,1.21.73.84.42,1.54.43,1.82-.7,0-.08.43-.07.66-.1A27.34,27.34,0,0,1,181.47,33.47Z"/><path class="cls-66" d="M170.62,29.19a6.14,6.14,0,0,0-.26,1.61c.32,2.73-.74,5.27-1,7.92a1,1,0,0,1-.84,1c1-2.75-.51-4.17-2.79-5.2a6.45,6.45,0,0,1-1.62-1,3,3,0,0,0-2.8-.55c.5-1.14,1.23-1.22,2.22-.57s1.91,1.1,2.84,1.69a2.46,2.46,0,0,0,2.65.23,6.27,6.27,0,0,0,0-3.81c0-.11,0-.22,0-.34l0-.58c.27-.26.1-.73.45-.95Z"/><path class="cls-6" d="M181.47,33.47a68.61,68.61,0,0,1-7.16-4.35l.05-.64L182,33A.65.65,0,0,1,181.47,33.47Z"/><path class="cls-13" d="M169.48,28.64c.19.48.22.88-.45.95-.81-.84-2.07-1-2.83-1.94l.44-.49Z"/><path class="cls-78" d="M202.6,15.11l-.21,0-.21,0a.93.93,0,0,1-.16-1.27,6.45,6.45,0,0,1,2.22-2.61C203.56,12.84,203.39,14.07,202.6,15.11Z"/><path class="cls-78" d="M209.79,10.13a42.48,42.48,0,0,0-4.76.63C206.48,9.43,208.18,10.13,209.79,10.13Z"/><path class="cls-8" d="M214.17,12.8a1.74,1.74,0,0,1-1,1C213.15,13.08,213.53,12.8,214.17,12.8Z"/><path class="cls-1" d="M51.85,22c-.06,2-.31,2.22-1.87,1.9a12.8,12.8,0,0,0-1.75-.75A2.54,2.54,0,0,1,46.12,20l.51-.51A8.38,8.38,0,0,1,51.85,22Z"/><path class="cls-71" d="M56.13,28.51l-1.26,0c-.5-1-1.4-.88-2.26-.91-.51,0-1-.18-1-.75a1.09,1.09,0,0,1,.78-1.08c1.12-.36,2.25-.68,3.38-1,1.22.27,1.79.82.86,2A3,3,0,0,0,56.13,28.51Z"/><path class="cls-1" d="M53.16,21.56c-.11,0-.19.07-.22.05-.34-.34-1-.38-.91-1.08,0-.11.25-.28.34-.26C53.05,20.45,53.11,21,53.16,21.56Z"/><path class="cls-1" d="M54.32,63.2c.4-.5.87-.4,1.57-.18l-1.6.15Z"/><path class="cls-59" d="M53.37,35.89c3.3-2.28,9.67-1.07,11,3.33-.21,2.81-.67,3.48-3.28,4.18-1.72.46-3.47,1.18-5.26.18.47-.69,1.56-.21,2.05-1-.52-.78-1.46-.1-2-.73-.07-.54.58-.92.37-1.48-.5-.8-1.88.31-2.17-1,0-.17-.58-.12-.83.15-.41.44-.82.87-1.22,1.31-.75-.63-.56-1.38-.55-2.08A12.77,12.77,0,0,1,53.37,35.89Z"/><path class="cls-69" d="M55.38,40.8c-.07.8-1,1.14-1,2,0,.28-.52.23-.8.08a1.11,1.11,0,0,1-.71-.89.62.62,0,0,1,.46-.72C54,41.07,54.57,41,55.38,40.8Z"/><path class="cls-78" d="M51,43.54l-.57.9c-.32.06-.78,0-.66-.36.32-.95.78-1.85,1.22-2.84C52.41,42.05,51,42.8,51,43.54Z"/><path class="cls-79" d="M46.86,47.91a.44.44,0,0,1-.52.4.62.62,0,0,1-.6-.61c0-.25.19-.47.44-.35A3.44,3.44,0,0,1,46.86,47.91Z"/><path class="cls-54" d="M50,46c-.08.21-.13.56-.26.59a.37.37,0,0,1-.42-.4c0-.13.39-.18.6-.26Z"/><path class="cls-71" d="M70.44,51.43a1.77,1.77,0,0,1-1.9,1.76c-1.1,0-1.87-.61-1.8-1.44a2.14,2.14,0,0,1,2.1-1.6C69.75,50.14,70.36,50.5,70.44,51.43Z"/><path class="cls-80" d="M51.87,25.21c.81-1.53,1.65-1.67,2.85-1.24C54,24.82,53,24.6,51.87,25.21Z"/><path class="cls-81" d="M36.2,37.14c-.78,0-1-.64-1.32-1.17s-.51-1.14.23-1.38a1,1,0,0,1,1.27.8C36.54,36,36.79,36.59,36.2,37.14Z"/><path class="cls-80" d="M31.78,38.78a.83.83,0,0,1,.88.81c.05.37.07.88-.48.85s-.78-.45-.88-.94A.54.54,0,0,1,31.78,38.78Z"/><path class="cls-82" d="M117.44,51.22l.68,0,.49.51c.28,1.25-.88,1-1.43,1.35l-12.31,7c.92,1,2.19,1.43,3.17,2.22.08.47-.22.6-.59.68a3.64,3.64,0,0,1-1.66-.55c-1.42-.92-1.41.11-1.41,1,0,3.51,0,7,0,10.54,0,1.07.53,2.92-1,2.94s-1.07-1.82-1.18-3c0-.32,0,.08,0-.24-.21-1.7.7-4.58-.45-4.85-1.8-.41-3.58,1.66-5.4,2.63-1,.54-.29,1,.28,1.36,2.93,1.6,5.54,3.73,8.57,5.17,6,3.76,12.21,7.3,18.27,11,.76.61,1.71.92,2.41,1.6.18.46.42.46.71.1a2.06,2.06,0,0,1,1.53.45c2.85,3.49,5.83,2.87,9.08.5,1.28-.93,2.59-2.25,4.5-1.8.37,1.22-.68,1.46-1.35,1.92-1.84,1.25-3.92,2.12-6,3.63a23.3,23.3,0,0,0,4,2.49c1.63.83,2.73-1.12,4.27-1a.71.71,0,0,1,.61.7c-.22.85-1.23,1-1.86,2.18,4-1.35,7-3.87,10.43-5.42.56-.37,1.29-.17,1.86-.51l31.61-18.31q3-1.74,6-3.45c.77-.44,1.55-.83,1.73-1.82.31-.27.91.4,1.08-.34,1.37-1,3.06-1.52,3.84-3.18.49-1.5,1.26-1.4,2.19-.39,3.09-1.86,6.28-3.51,9.71-5.69-3.18-1.7-5.77-3.79-8.92-5-1.69-.78-.33-1.35.13-2a42.36,42.36,0,0,0,7.21-5.65.59.59,0,0,1,.62.12c.35,1.76-1.47,2.32-2.07,3.77l10.32,6.18-30,17.3-42.55,24.55c-.49.28-1,.6-1.46.83a2.81,2.81,0,0,1-2.87-.16C132.18,95.84,124,91,115.85,86.12a8.38,8.38,0,0,0-2.52-1.34l0,0a46.32,46.32,0,0,0-6-3.8c-5.62-3.43-11.29-6.79-16.91-10.22-.61-.38-1.55-.48-1.68-1.45,1-.51,1.88,0,2.63.61a3,3,0,0,0,3.73,0,43.13,43.13,0,0,1,4.72-2.77c2.14-1,2.74-2.45,2.15-4.76-4.54,2.1-8.61,5-13.19,6.94-.74.14-.92-.35-.54-.75a6.9,6.9,0,0,1,1.78-1.18q13-7.36,26-14.73C116.64,52.41,117.76,52.43,117.44,51.22Z"/><path class="cls-83" d="M153.67,94a2.75,2.75,0,0,1-1.49.88c-.83-.57-2-.69-2.51-1.69-.21-2.31.4-4.67-.37-7-.65-1.27-1.14-2.85-3.1-1.65a1.43,1.43,0,0,1-1.18.38c-1.11-.63-1.68-.4-1.52,1-.08.44-.21.84-.75.9a1.71,1.71,0,0,0-1.52-.34c.57.07,1.14,0,1.57.4a1.16,1.16,0,0,1,.08,1,1.59,1.59,0,0,1-1.5.8,3.5,3.5,0,0,1-1.81-.53c-1.69-1-1.69-1.93,0-2.9.84-.48,2.08-.64,1.51-2.3-4.4,2.43-8.64,4.91-12.91,7.36-.53.45-1.24.4-1.84.64-.16.38-.34.42-.54,0a1,1,0,0,1,.1-1.35,2.2,2.2,0,0,1,.53-.48c3.28-1.93,6.57-3.86,9.93-5.65,2-1.07,3.66-2.22,3.35-4.84a1.51,1.51,0,0,1,.43-1.09,1.22,1.22,0,0,1,1.3.32,6.77,6.77,0,0,1,1.33,3c.09.3.25.63.6.67s.72-.32.84-.7a5.62,5.62,0,0,0,.1-3.09,19.19,19.19,0,0,1-.23-7.84c.24-1.65-.44-1.55-1.57-1.07a4.32,4.32,0,0,1-2.5.69,24.36,24.36,0,0,0-7-.68c-.32,0-.67.1-.8-.3-.08-.23,0-.51.31-.49,2,.15,3.89-1,6.06-.35,1.91.61,3.9-.21,5.74-.94,1.22-.49.19-1.71,1.29-2.74-3.44.63-6.3,1.23-8.61-1.16a11.25,11.25,0,0,0,6,.84c2.28-.41,2.31-.41,2.12-2.72-.06-.71-.1-1.43-.15-2.14-1.13-1.88.16-3.92-.39-5.83a1.45,1.45,0,0,0,0-.36c.64-.56-.62-2.44,1.41-2a2.36,2.36,0,0,1,.11,1.39,4.27,4.27,0,0,1-.18,1.16c-.68,1.34,2,1.77.95,2.83s-.7,2.11-.84,3.2a2.06,2.06,0,0,1,0,1.75v1.5c0,.42.67.64.35,1.15-.73,2-.41,4.11-.79,6.14a1.08,1.08,0,0,0,.68,1.15,2.57,2.57,0,0,1,1.56,1.38h0c1.8.62,3.18,1.63,3.47,3.67,0,0-.1.12-.17.15s-.24,0-.36-.15a35.36,35.36,0,0,0-5.11-4.13,46.7,46.7,0,0,0,.48,8.8,2.49,2.49,0,0,0,1.47,2c.58.26,1.08.68,1.63,1a2.76,2.76,0,0,1,1.61,2.91c-.11,1.26,0,2.54,0,3.82C150.91,92.73,151.17,93.07,153.67,94Z"/><path class="cls-66" d="M170.93,45.88c1,1.41,2.62,2,3.88,3.06a.87.87,0,0,0,1.1.07c1.93-1.18,3.73-2.38,4.29-4.86a47.25,47.25,0,0,0,1.4-9.22c.68.64,0,1.74.75,2.35,3.73,2.28,7.46,4.54,11.18,6.85a1.22,1.22,0,0,0,1.51,0c.59-.4,1.22-.75,1.83-1.13.53-.17.59.16.6.56-2,2-4,4-7.19,3.9a.76.76,0,0,1,.24-1.21c2-1.2.8-1.82-.36-2.56-1.68-1.07-3.36-2.12-5.1-3.07-.58-.32-1.29-1.42-2-.27a1.76,1.76,0,0,0,.58,2.52c1.18.8,2.45,1.47,3.64,2.25s2.34,1.08,3,2.31c.31,1.54.64,3.06,1,4.59a44.79,44.79,0,0,0,1.41,5.47c.26.78.3,1.76,1.34,2.06.66.14,1.48.15.94,1.22a1.14,1.14,0,0,1-.41.07,2.26,2.26,0,0,1-1.81.66c-.35-.12-.44-.47-.64-.73-1.89-2.89-2-6.32-2.79-9.53a4.44,4.44,0,0,1-.26-2.8c.27-.7-.38-.93-.86-1.21-2.13-1.27-4.25-2.55-6.55-3.94-1,2-1.85,3.93-3.53,5.38-2.28,2-3.16,2-5.48.07s-4.73-3.54-7.1-5.31c-.62-.47-1.43-.77-1.69-1.74l3.3-1.11c-.13,1-1.25.78-1.82,1.59A27.74,27.74,0,0,0,171,45.94Z"/><path class="cls-84" d="M201.3,54.18c-.16.15-.3.32-.47.45s-.53.41-.42.69.5.2.79.2a1.8,1.8,0,0,1,.3,1.59c-.7,3.33-.61,6.8-1.73,10-.92,0-.11-1.06-.75-1.3L198.34,67c-.3.34-.55.74-1.05.83-.72,0-1.33-.22-1.39-1-.05-.59.52-.73,1-.82,1.6-.29,1.24-2,1.79-2.44a4.08,4.08,0,0,0-.88,1.61c-.23,1-.62.89-1.43-.22-.21-.27-.49-.51-.43-.91.71-1.83-.93-3.39-.58-5.21.09-.5-.12-1.07.14-1.59,1.1-4.68,4.27-7.46,8.5-9.26,1.19-.1,1.37.73,1.2,1.55-.28,1.32-1.26,2.54-2.46,2.54C200.89,52.13,201.14,53.05,201.3,54.18Z"/><path class="cls-85" d="M163.8,58.82a4.39,4.39,0,0,1,1.93,5.07c-.45,1.4-2.55,2.69-4.42,2.59a6.77,6.77,0,0,1-4.71-1.93c-.58-.47,0-1-.13-1.55a4,4,0,0,1,.24-1.65c.5-1.1,1.66-1.42,2.5-2.12a2.66,2.66,0,0,1,.61-.3,12,12,0,0,1,2.68-.17C162.93,58.87,163.37,58.6,163.8,58.82Z"/><path class="cls-86" d="M179.62,58.84c.31.35,1.31.74.47,1.17-3.32,1.72-6.23,4.06-9.39,6-5.27,3.25-10.21,7-15.61,10.06-.62.49-1,.36-1-.44,5.74-3.72,11.53-7.38,17.2-11.19a57.73,57.73,0,0,1,7.57-4.83c-.24-1-1.18-1.17-1.63-1.8-.08-.43.19-.57.54-.63A2.44,2.44,0,0,1,179.62,58.84Z"/><path class="cls-87" d="M154.08,75.64c.1.7.64.36,1,.44a3.7,3.7,0,0,1-4.24-.1c.74-.6,0-1-.27-1.31-.85-.83-1.77-1.58-2.67-2.36,1.54-.82,3.1-1.62,4.62-2.47.49-.28.58-.24,1,.23s1.27-.72,2.26-.4c-.54,1-1.84,1.12-2.41,2.28,2.19,0,3.34-1.8,5.2-2.46a1.38,1.38,0,0,1-.79,1.31c-1.58,1-3.23,2-4.81,3.06-.62.42-1.19,0-1.92.08A2.62,2.62,0,0,0,154.08,75.64Z"/><path class="cls-88" d="M196,57.39c.06,1.48.11,3,.2,4.44.05.77.4,1.56-.21,2.26a6,6,0,0,0-1-3.3c0-.9-.5-.66-1-.51a1.74,1.74,0,0,1-.46-1.94,7.82,7.82,0,0,0-.68-5.54c-.69-1.48-.08-1.88.9-2.61,2-1.47,4.25-2,6.52-2.63a.94.94,0,0,1,.58.32c-.06,1.54-1.29,2.31-2.27,3.12A6.67,6.67,0,0,0,196,57.39Z"/><path class="cls-89" d="M146.46,63.64c-.12-.38-.23-.76-.35-1.15.23,0,.56.1.67,0,1.74-1.84,4.05-2.93,5.94-4.56L163,51.63a6.58,6.58,0,0,1-2.61,2.85C155.56,57.3,151.19,60.75,146.46,63.64Z"/><path class="cls-90" d="M177.59,66.36a4.65,4.65,0,0,1,2.7.69,3,3,0,0,1,.28,4.88,4.63,4.63,0,0,1-5.55.37,2.94,2.94,0,0,1-1.57-3c.27-1.36,1.47-2.13,2.7-2.68A5.88,5.88,0,0,1,177.59,66.36Z"/><path class="cls-91" d="M173.84,78.09c-2.55,1.91-5.1,3.85-7.68,5.73-1.27.93-2,2.44-3.6,3-.79.3-.76.38-2.74,0a5.86,5.86,0,0,0,4.29-3c.72-1.15,2.13-1.9,3.31-2.7a31.58,31.58,0,0,1,6.4-3.69A.34.34,0,0,1,173.84,78.09Z"/><path class="cls-92" d="M177.63,57.45l-.41.37a92.21,92.21,0,0,0-10.26-7,.57.57,0,0,1-.31-.57l0,0c1.26-.4,2.13.42,3,1a45.85,45.85,0,0,0,6.53,3.82C176.52,56,177.81,56.25,177.63,57.45Z"/><path class="cls-52" d="M162.21,80a5,5,0,0,1-4,.86c-.47,0-.93-.19-1.4-.23-.67-.05-1,.47-1.26.94s.17.86.51,1.15A48.58,48.58,0,0,1,159.82,86c-2.57-.58-3.91-2.88-6-4.27.93-1.42,1.92-2.16,3.73-1.81a21.12,21.12,0,0,0,4.28,0A.25.25,0,0,1,162.21,80Z"/><path class="cls-52" d="M167.65,74.67c0-.56-1.28-.94-.45-1.53s1.46-2,3-1.62a12.76,12.76,0,0,1,5.5,4.62,30.33,30.33,0,0,1-6-4c-1.57.44-1.47,1.69-1.16,3C167.94,75.49,167.86,75,167.65,74.67Z"/><path class="cls-93" d="M192.09,60.79l.58.63c.32.65-.23.95-.55,1.33a13,13,0,0,0-1.47,3.17c2-.32,2.91-2,5-2.65a14,14,0,0,1-3,3.37,2.22,2.22,0,0,1-2.75-.59,1.45,1.45,0,0,1,.3-2.26A6.06,6.06,0,0,0,192.09,60.79Z"/><path class="cls-88" d="M196.38,65c.17.42.55.72.9.48s-.43-.42-.27-.62c.63-.79,1.33-1.52,2-2.28.51,2.21-.1,3.15-2.86,4.42a1.14,1.14,0,0,0,1,.55c.71.41.05.66-.16.69-1.37.2-2.09,1.28-3,2.13-.31.56-.64-.07-1,0C194.1,68.57,194.74,66.47,196.38,65Z"/><path class="cls-94" d="M157,63.1l-.36,1.45c-1.08-1.78-1-3.46.09-4.76a6,6,0,0,1,7.11-1l-1.09.47a5,5,0,0,0-3.3.09l.06,0c-.73.55-1.74.67-2.28,1.5A2,2,0,0,0,157,63.1Z"/><path class="cls-87" d="M147.91,72.31a2.54,2.54,0,0,1-1.56-1.38c2.13-.24,3.8-1.53,5.61-2.48.61-.32,1.12-.86,2.15-.63a16.26,16.26,0,0,1-4.33,2.88C149.07,71.11,148,71.18,147.91,72.31Z"/><path class="cls-95" d="M177.63,57.45c-.42-.83-1.95-1-1.45-2.36a4.92,4.92,0,0,1,3.62,2.26c.37.67-.05,1-.18,1.49C178.78,58.62,178.37,57.8,177.63,57.45Z"/><path class="cls-96" d="M163.67,78.94c1-1.29,2.44-2.06,4.17-3.28-1.07,2.06-1.66,2.53-4,3.48Z"/><path class="cls-97" d="M192.12,62.75c.18-.44.36-.89.55-1.34.63-.14,1.12-.76,1.87-.55C194.42,62.37,193.21,62.48,192.12,62.75Z"/><path class="cls-52" d="M173.84,78.09l0-.59a3.29,3.29,0,0,1,2.2-.86A3.7,3.7,0,0,1,173.84,78.09Z"/><path class="cls-96" d="M162.21,80,162,80l-.2-.11,1.88-1a1.8,1.8,0,0,0,.19.2A1.88,1.88,0,0,1,162.21,80Z"/><path class="cls-66" d="M168.58,39.64c-.29.65-.68,1.14-1.5,1A1.42,1.42,0,0,1,168.58,39.64Z"/><path class="cls-89" d="M149.75,55.57l.61-.61.53.55c0,.28,0,.76-.3.73S150,55.81,149.75,55.57Z"/><path class="cls-92" d="M166.65,50.21c-.43.11-.75,0-.83-.46,0-.06.09-.19.1-.19.3.15.76.15.7.68Z"/><path class="cls-96" d="M167.65,74.67l.86.47C167.84,75.69,167.84,75.69,167.65,74.67Z"/><path class="cls-98" d="M113.33,84.78c.24.31.47.62.73.92A2.22,2.22,0,0,1,112,89.53a9.86,9.86,0,0,1-3.23-.82,2.14,2.14,0,0,1-1.24-2.56,2.28,2.28,0,0,1,2.11-2c1.32-.19,2.49.41,3.74.64Z"/><path class="cls-99" d="M208.88,48.31l-.38,0c-.54-.44-.48-.9-.06-1.38a1.48,1.48,0,0,0,.28-1.36,3.38,3.38,0,0,1,.63-3.5l0,0c.66.06.66.06.85-1.35l.64-.06a85.79,85.79,0,0,1,1.57,9c-1.85-1.51-.22-4.47-2.84-5.32C209.1,45.69,209.79,47.14,208.88,48.31Z"/><path class="cls-100" d="M217.5,55.25a7.94,7.94,0,0,1-5.05-.5,1.71,1.71,0,0,1-.95-1.22.45.45,0,0,1,.28-.57c.37-.1.29.27.36.44s.4.74.63.52c1.47-1.42,2.25.21,3.28.67Z"/><path class="cls-101" d="M107.56,62.73l.48-.44c3,1.85,6.19,3.54,9.08,5.6,1.92,1.36,3.42,1.38,5.26,0,1.52-1.13,3.23-2,4.85-3a.56.56,0,0,1,.12.76c.59,3.2,1.23,6.39,1.73,9.6.16,1,.45,1.45,1.47,1.37s.89-.92.92-1.59,0-1.59,0-2.39c0-1.36-.24-2.75,1.93-2.51A1.74,1.74,0,0,0,134.85,69c.53-.42.84,0,1.15.33a.9.9,0,0,1-.45,1c-3.09,1.45-2.33,4.3-2.71,7,2.5-.49,4.08-2.55,6.42-2.81.45.29.72.64.46,1.2a54.77,54.77,0,0,1-9.59,5.73c-2.34,1.2-3.61,2.68-3.23,5.41a3,3,0,0,1-.61,2.69l0,0c-1.51-.27-1-1.5-1.15-2.41-.21-1.36.42-2.85-.6-4.09a17.08,17.08,0,0,0-3.12-2.17c-2.09-1.18-3.26-3-2.91-5.3.66-4.26-1.25-6.69-4.9-8.35a36.49,36.49,0,0,1-4.5-2.67C108.46,64.14,107.52,63.83,107.56,62.73Z"/><path class="cls-2" d="M134.93,60.77c-.53-1.61-.87-1.74-2.34-.87-2.21,1.32-3,1.23-4.87-.58,1.45.52,2.69,1.09,4.11-.51s3.15-2.4,4.79-3.52a3,3,0,0,1,2.22-.66,11.07,11.07,0,0,1-2.42,2.1,1.06,1.06,0,0,0-.49,1.59,8,8,0,0,1,.52,4.44C135,63.27,134.79,63,134.93,60.77Z"/><path class="cls-102" d="M139.73,75.69l-.43-.9c-.13-.45-.48-.86-.45-1.33a3.59,3.59,0,0,0-2.88-4c-.38-.13-.64-.57-1.12-.44l-1.79-.14c.8-.81,1.81-.36,2.72-.4,1.11-.06,2.22,0,3.34,0a1,1,0,0,1,1.12,1c1.25,2.77,2,5.61,1,8.64l-.91-.52a.78.78,0,0,1-.42-.4,3,3,0,0,1-.2-1.17Z"/><path class="cls-103" d="M134.93,60.77c.21.53.66.94.61,1.61-.06.83.53.44.91.38-.14,1.12-1,.79-1.66.8a13.85,13.85,0,0,0-7.44,2.13l-.12-.76a.94.94,0,0,1,.67-.89C130.43,63.35,132.54,61.75,134.93,60.77Z"/><path class="cls-104" d="M144.59,53.06c.57,1.91.32,3.88.39,5.83-1.45-.48-1.1,1.31-2.08,1.63a1.47,1.47,0,0,1,.08-1.89C144.42,57,144.07,54.91,144.59,53.06Z"/><path class="cls-89" d="M146.1,61c0-.58,0-1.16,0-1.75.71.19,1-.33,1.27-.8a5.78,5.78,0,0,1,1.77-2.13c.17,1.17-.52,1.72-1,2.37C147.52,59.51,146.53,60,146.1,61Z"/><path class="cls-104" d="M146,50.66c-1.37.06-.8,1.46-1.41,2a4,4,0,0,1,.09-2.13C145.13,49.58,145.61,50,146,50.66Z"/><path class="cls-70" d="M117.18,53.06c.4-.53,1.17-.67,1.43-1.35.89.53,1.92.78,1.82,2.3,0,.66,1.47.64,2.33,1.48a3.32,3.32,0,0,1-3.54-1C118.66,53.91,118.26,53,117.18,53.06Z"/><path class="cls-13" d="M169,30.51c1.05,1.28.75,2.55,0,3.81C169,33.05,169,31.78,169,30.51Z"/><path class="cls-35" d="M134.18,41.64c1.41,0,2.88.29,4-.85.27-.26.59,0,.79.27a.56.56,0,0,1,0,.84c-.29.27-.6.51-.9.77C135.84,44.64,135.42,44.53,134.18,41.64Z"/><path class="cls-43" d="M138.89,36.86c-.15.34-.32.77-.55,1.18a.49.49,0,0,1-.57.3.55.55,0,0,1-.41-.71,5.34,5.34,0,0,1,.51-1.29.72.72,0,0,1,.58-.29C138.84,36.08,138.83,36.45,138.89,36.86Z"/><path class="cls-93" d="M134.05,36.89c.1-.64.17-1.38,1.08-1.51.26,0,.34.23.36.47.06.94-.49,2-1,1.83S134.09,37.27,134.05,36.89Z"/><path class="cls-2" d="M140.3,35.29c-.74,0-.79-.71-1.24-.86s-.9-.23-.64-.72.79-.45,1.25-.22S140,33.69,140.3,35.29Z"/><path class="cls-2" d="M136.68,33.27c-.07,0-.13.1-.21.11-.49,0-1.05.35-1.41-.27,0-.07.09-.3.2-.38C135.66,32.39,135.68,32.41,136.68,33.27Z"/><path class="cls-59" d="M146.92,48.28c.17-.79.81-1.09,1.43-1.46,2.13-1.25,4.23-2.53,6.34-3.81.47-.28,1-.8,1.39,0,.66,1.24,1.91,1.62,3,2.22a7.61,7.61,0,0,1,2.67,2,3,3,0,0,1-1.68,1.24c-2.13.95-3.58,2.84-5.66,3.86-.79.39-1.3.59-2.09,0a20.38,20.38,0,0,0-3.79-2.47c-.78-.37-.84-1.34-1.67-1.54Z"/><path class="cls-1" d="M210.18,40.7c.12.85.25,1.69.39,2.65-1,0-1.21-.55-1.24-1.3C209.92,41.8,209.51,40.9,210.18,40.7Z"/><path class="cls-3" d="M58.57,9.82c-1.16-.07-1.32-.89-1.35-1.82.4-.59.76-.69,1,.1a.67.67,0,0,0,.68.44C59.13,9.06,58.69,9.39,58.57,9.82Z"/><path class="cls-105" d="M58.84,11.93c-1,1.67-1.34,1.72-3.66.59C56.64,12.51,57.9,13.07,58.84,11.93Z"/><path class="cls-106" d="M208.44,47l.06,1.38a17.85,17.85,0,0,1-7.2,5.85c-.61-.66-1-1.4-.39-2.23a1,1,0,0,1,1.63-.18.55.55,0,0,0,.43.11c.72-.37.67-1.53,1.69-1.69a6.4,6.4,0,0,0,0-1.71,2.66,2.66,0,0,0-.66-.1,17.87,17.87,0,0,0-3.16-.55l-.66-.14c-2.38-.51-1.69-1.9-1-3.31-.36-.88-1.29-.56-1.88-.94l-.44-.42a6.83,6.83,0,0,1,2.31-1.44c.29,1.53,1.29,2.22,2.57,2.89,1.76.91,3.49,1.89,5.25,2.82.24.6.59.2.91.09Z"/><path class="cls-29" d="M204.14,31c.46.17,1.07-.08,1.37.52.66,1,1.8.23,2.64.66a3.42,3.42,0,0,1-4.19.28C203.27,31.84,204.08,31.46,204.14,31Z"/><path class="cls-107" d="M207.88,31.46l.47-.81c.7-1.14.7-1.14,1.93-.06C209.57,31.13,208.93,31.86,207.88,31.46Z"/><path class="cls-82" d="M207.91,47.38a.94.94,0,0,1-1,.34c-.36-.13,0-.29.07-.43Z"/><path class="cls-108" d="M186.9,35.22a12.86,12.86,0,0,1,4.78,2.91l-.17.19a14.92,14.92,0,0,1-4.82-2.86Z"/><path class="cls-108" d="M184.85,34.89c.86-1,1.41,0,2.05.33l-.21.24c-.66-.06-1.09-.82-1.84-.57Z"/><path class="cls-108" d="M191.68,38.13a1.57,1.57,0,0,1,1.14.85c-.66.13-1-.25-1.31-.66Z"/><path class="cls-103" d="M205,24.41c1.3,0,2.54.22,3.22-1.12.14-.27.59-.15.77.16s.19.59.12.64a10,10,0,0,1-2,1.12A1.53,1.53,0,0,1,205,24.41Z"/><path class="cls-92" d="M207.84,20c0-.3.1-.69.16-1.08s.33-.68.6-.67a.75.75,0,0,1,.69.82,5.79,5.79,0,0,1-.17,1.18c-.11.45-.23,1-.88.86C207.77,21,207.88,20.52,207.84,20Z"/><path class="cls-100" d="M204.18,19.52c.14-.58.24-1,.33-1.35a.53.53,0,0,1,.48-.43c.44,0,.51.31.52.62a4.18,4.18,0,0,1-.09,1.17c-.11.44-.23,1-.88.81A.64.64,0,0,1,204.18,19.52Z"/><path class="cls-9" d="M172,40.2l.35-1.2a1.17,1.17,0,0,0,.36-.59c.26-1,0-2.43,1.43-2.67s2.38,1,3.51,1.64c.35.2,0,.7-.29,1a2.22,2.22,0,0,1-1.13.3c-.46,0-1.36-.44-1.22.5.18,1.2.85-.16,1.15.06,1.29,1,1.89.19,2.44-.86.67-1.29.1-2.28-.75-3.21s-2-2.26-3.63-1.54c-1.51.65-1.85,2-1.81,3.56a2,2,0,0,1-.34,1.57,4.35,4.35,0,0,1,.36-5.59,3.84,3.84,0,0,1,5-.54,5.06,5.06,0,0,1,.19,9,5.06,5.06,0,0,0-1.74,1.5c-.67.08-.81.71-1.13,1.13-1.06,1.39-2.18,1.08-3.24.08s-1.18-1.79.45-2.44C172.68,41.58,172.25,40.77,172,40.2Z"/><path class="cls-109" d="M172,38.76c-.07-.4-.15-.79-.2-1.18-.3-2.14.54-3.92,2.14-4.58s2.61-.11,4.17,1.87c.64,1.26,1,2.58.12,3.83-.38.53-1.21,1.14-1-.39,0-.35.8-.89-.15-1-.53-.06-1.12.62-1.43-.45a1.4,1.4,0,0,0-1.75-.78c-.58.16-.39.94-.46,1.47a8.05,8.05,0,0,1-.22,1.39c-.22.66-.61.1-.92,0A.33.33,0,0,0,172,38.76Z"/><path class="cls-102" d="M172,40.2c.91-.09,1.12.72,1.12,1.24,0,.34-.77,1-1.16.94s-.76,0-.9.44a.84.84,0,0,0,.43,1c.62.35,1.2.94,1.93.87s1.19-.66,1.17-1.52c0,0,.79-.88,1.31-.09a4.19,4.19,0,0,1-4.94,2.78l0,.06C169.74,43.75,170.57,41.93,172,40.2Z"/><path class="cls-1" d="M107.56,62.73a116,116,0,0,0,9.89,6.18,2.88,2.88,0,0,1,1.66,3c-.1,1.42,0,2.86,0,4.29a4,4,0,0,0,2.18,3.93,40.62,40.62,0,0,1,3.6,2.31c1.44,2.08.61,4.37.46,6.56,0,.69-1.16.61-1.88.53-4.9-2.58-9.53-5.62-14.3-8.44a24.46,24.46,0,0,1-4-2.52A3,3,0,0,1,104,75.87c0-4,0-8,0-12,0-1.57.7-2.2,2.26-1.72Z"/><path class="cls-59" d="M149.28,86c.27-.12.78-.31.79,0,.1,2.5.56,5-.24,7.48l-.19.27c-2.31,1.23-4.38,2.93-7,3.53-1.38.31-2.33,2-3.8,1.58a15.54,15.54,0,0,1-3.49-2L133,95.44c2.48-1.42,4.8-2.72,7.08-4.09.69-.41,1.74-.56,1.74-1.71a1.22,1.22,0,0,1,.54-.31,19.17,19.17,0,0,0,3.46-1.92A8,8,0,0,0,147.92,86C148.36,85.63,148.81,85.49,149.28,86Z"/><path class="cls-59" d="M141.9,89.58l-.06.06L134,94.14c-1.7,1-2.17,1-3.53-.34-.86-.84-1.87-1.45-2.72-2.27a1.09,1.09,0,0,1,0-1.43c4.06-2.78,8.49-4.94,12.68-7.51a9.89,9.89,0,0,1,1.11-.49c.1.4.18.71.24,1,.32,1.62.31,1.59-1.23,2.19-.73.28-1.39.7-2.09,1,.45,1.4,1.74,1.37,2.7,1.83.37.41,1.05.49,1.17,1.15C142.3,89.62,142.15,89.69,141.9,89.58Z"/><path class="cls-110" d="M199.77,67.16c-.3-4,.82-7.77,1.43-11.64a.46.46,0,0,1,.64-.09L211,60.84C207,63,203.53,65.32,199.77,67.16Z"/><path class="cls-59" d="M88.83,69.4c.22-.24.39-.55.66-.69,4.35-2.46,8.71-4.9,13.28-7.46a20.41,20.41,0,0,1,.17,3.91,1.52,1.52,0,0,1-.94,1.5q-3.87,2.15-7.65,4.42a1.91,1.91,0,0,1-2.18,0c-1.1-.61-2-1.56-3.38-1.67Z"/><path class="cls-59" d="M106.26,62.19c-2,.69-2,.69-2,2.56,0,3.32,0,6.65,0,10a11,11,0,0,0,1,3.88L94,72.13,103,67v9.83c.4-.31.21.16.5,0a.29.29,0,0,0,.13-.14,1.52,1.52,0,0,0,.1-.46c0-5.09,0-10.17,0-15.43A4.85,4.85,0,0,1,106.26,62.19Z"/><path class="cls-109" d="M215.25,58.13a3.42,3.42,0,0,1-.5.57c-2.9,1.8-2.9,1.81-5.86,0-2-1.19-3.95-2.4-5.92-3.61-.12-.07-.17-.24-.26-.36s.08-.16.14-.2c3.05-2.08,3.05-2.08,6.18-.2C211.08,55.59,213.12,56.83,215.25,58.13Z"/><path class="cls-72" d="M149.83,93.47a1.81,1.81,0,0,1,2.35,1.37c-3,1.69-6,3.31-8.9,5.1-1.19.73-2.09.91-3.06-.41.76-.9,1.95-1.21,2.85-1.91,2-1.85,4.59-2.7,6.79-4.21Z"/><path class="cls-59" d="M123.47,89.57c1.61-.34,2.12-1.35,1.89-2.92-.19-1.38.33-2.85-.47-4.17.59-.06.84.19.83.8,0,1.66,0,3.32,0,5,0,.49-.23,1.16.59,1.33L125.81,91A5.88,5.88,0,0,1,123.47,89.57Z"/><path class="cls-111" d="M194,70.37c0-.65.57-1.08.8-1.63.38-.89.89-1.3,1.86-.81.08,0,.32-.24.48-.38l1.21-.52c0,.35.31.7-.13,1A10.73,10.73,0,0,1,194,70.37Z"/><path class="cls-83" d="M149.86,93.41c-2,1.84-4.46,2.92-6.79,4.21l-.43-.35C144.94,95.8,147.17,94.18,149.86,93.41Z"/><path class="cls-59" d="M127.76,90.1l0,1.43-1.39-.59A2.23,2.23,0,0,1,127.76,90.1Z"/><path class="cls-59" d="M140.18,77.17a.74.74,0,0,0,.14.39,1.29,1.29,0,0,0,0,.47c.7,2.88-.59,4.47-3.16,5.69-3.07,1.46-6,3.34-8.91,5a4.15,4.15,0,0,1-1.92.87,23.48,23.48,0,0,0,.21-5.23,1.93,1.93,0,0,1,1-1.95c3.86-2.18,7.69-4.41,11.53-6.61a2.23,2.23,0,0,1,.7-.13h0C140.18,76.09,139.82,76.74,140.18,77.17Z"/><path class="cls-60" d="M141.23,78.08c.05-2.93-.85-5.74-1-8.64a14.09,14.09,0,0,1,4.54-2c.51,1.3-.12,2.46-.3,3.59-.47,3,.57,5.84.55,8.77,0,2.16,0,2.16-2.31,3C141.91,81.33,142,79.54,141.23,78.08Z"/><path class="cls-112" d="M149.28,86c-.3.42-.57,0-.85,0a1.93,1.93,0,0,1-2,.89,1.75,1.75,0,0,1-.53-2.49c.48-.42.42-1.61,1.64-1C149.41,84.46,149.63,84.69,149.28,86Z"/><path class="cls-113" d="M145.87,84.39c.53.8.21,1.73.35,2.59.25.49-.24.39-.44.53a2.54,2.54,0,0,1-.61.19c-.84,0-1.7.4-2.54,0v-1h0c.45-.16.49-.53.49-.93.39-.77.93-1.29,1.88-1Z"/><path class="cls-112" d="M142.63,87.65a5.65,5.65,0,0,1,2.87-.45c-.49,1.65-1.87,1.8-3.26,1.92-.7.08-1.05-.23-1.07-.93C141.69,88.1,142.34,88.37,142.63,87.65Z"/><path class="cls-112" d="M145,84.76l-1.88,1c-.29-.7-.79-1.51.35-1.87C144.13,83.7,145.09,83.39,145,84.76Z"/><path class="cls-114" d="M142.62,86.7a2,2,0,0,1-2.42-.07c1.54-1.16,1.75-1.15,2.42.07Z"/><path class="cls-115" d="M190.19,47.32c-2.4-1.4-4.78-2.84-7.21-4.19a1.39,1.39,0,0,1-.81-1.91,18.49,18.49,0,0,0,.44-2.67L193.36,45A6.34,6.34,0,0,1,191,46.38c-.44.11-.92.34-.8,1Z"/><path class="cls-77" d="M199.76,44.47c.3.17.57.58.2.66-.72.15-1.22.33-1.11,1.16s.67.77,1.37.74c.53,0,0,.43-.06.66a12.76,12.76,0,0,1-3.75,1.64c-1.34.33-2.51,1.41-4.08,2.36a1.86,1.86,0,0,1,1.52,2.09,30.3,30.3,0,0,0,.48,3.78c.11,1-1.05,1.72-.38,2.72-.88.11-1.25-.38-1.44-1.17-.56-2.34-1.46-4.58-1.81-7,1.44-.25,1-1.64,1.32-2.46.57-1.37.61-2.68,2.71-2.84a3,3,0,0,0,3-2.12C197.86,44,199,44,199.76,44.47Z"/><path class="cls-76" d="M199.76,44.47c-2,.47-2,.47-2.26,2.66-.46.16-.72-.19-1-.4s-.73-.4-.76-.07c-.19,1.65-.95,1.53-2.07.85-.3-.18-.79.28-.71.41.81,1.29-.59,1.92-.79,2.89a16.54,16.54,0,0,0-.18,1.85c-.62.23-.83-.38-1.25-.53-.22-1.6-1.27-3.11-.51-4.81l0,0c1.24.22,2-.67,3-1.18a26.44,26.44,0,0,0,4.16-2.74C198.88,42.61,198.88,42.61,199.76,44.47Z"/><path class="cls-116" d="M200.82,47.83c1.22-.91,1.22-.91,3.16.55-1.69,1.21-3.87,1.84-4.85,3.94-.08.18-.37.29-.58.39a3.19,3.19,0,0,0-1.87,3,1.85,1.85,0,0,1-.72,1.66c-1-2.35-.74-3.81.91-5.47C198.21,50.58,199.85,49.53,200.82,47.83Z"/><path class="cls-117" d="M161.68,63.77a5.81,5.81,0,0,1-2.31-1.43,7.71,7.71,0,0,1,3.3-1.17A5,5,0,0,1,161.68,63.77Z"/><path class="cls-118" d="M157,60.56a2.48,2.48,0,0,1,2.5-1.2.71.71,0,0,1-.59.88c-.75.16-1.19.77-1.78,1.17A.63.63,0,0,1,157,60.56Z"/><path class="cls-119" d="M159.41,59.38a2.94,2.94,0,0,1,3.3-.09Z"/><path class="cls-111" d="M157,60.56l.13.85L157,63.1A1.9,1.9,0,0,1,157,60.56Z"/><path class="cls-120" d="M194.49,52.85c.37-1.52,1.29-1.59,2-1.91A3.37,3.37,0,0,1,194.49,52.85Z"/><path class="cls-60" d="M177.53,72.23a2.68,2.68,0,0,1-2.78-2.67c0-1.45,1.47-2.41,3.56-2.39a2.18,2.18,0,0,1,2.38,2.37A3.16,3.16,0,0,1,177.53,72.23Z"/><path class="cls-71" d="M111.39,88.63a4.34,4.34,0,0,1-2.17-.58c-1.36-.71-1.42-1.92-.15-2.76,1.48-1,4.13.26,4.29,2C113.44,88.18,112.84,88.61,111.39,88.63Z"/><path class="cls-59" d="M126.61,66.48c.38,2.06.72,3.77,1,5.49.1.6.32,1.31-.38,1.72-2.3,1.36-4.61,2.7-7.19,4.21,0-2.56,0-4.68,0-6.81a1.29,1.29,0,0,1,.76-1.31C122.66,68.77,124.5,67.69,126.61,66.48Z"/><path class="cls-59" d="M136,69.47a2.89,2.89,0,0,1,2.45.35c1.09.54.7,1.48.77,2.26s.7,1.79.11,2.71l-7.4,4a62.37,62.37,0,0,0,.72-6.9c0-.53.62-.66,1-.92A10.75,10.75,0,0,0,136,69.47Z"/><path class="cls-59" d="M129.59,80a7.64,7.64,0,0,1-2.21,1.51,2,2,0,0,1-2.42-.11c-1.39-.91-2.82-1.76-4.49-2.79l6.91-3.93a.72.72,0,0,1,1.05.14.85.85,0,0,1,0,1.1c-.51.45-.66,1.48-1.73,1.14a.76.76,0,0,0-.91.6c-.15.56.26.87.67,1.11C127.41,79.35,128.61,79.3,129.59,80Z"/><path class="cls-121" d="M130,77.62c.54.27,1.63,0,1.6,1.16,0,.44-.26,1-.88.86-.86-.14-.71-1.22-1.4-1.59C129.1,78,129.47,77.56,130,77.62Z"/><path class="cls-101" d="M140.18,77.17c-.53-.38-.45-1-.46-1.49C140.25,76.07,140.21,76.62,140.18,77.17Z"/><path class="cls-104" d="M177.25,38.31c0,.29.07.72.49.43s.37-.82.38-1.29l0-2.58c2.22,2.21,1.76,4.09-1.56,6.11V39.45c-.82.25-.92,1.31-1.78,1.4-1-.88-.45-2-.51-3.31A5,5,0,0,0,177.25,38.31Z"/><path class="cls-122" d="M142.24,89.12c1.09-.62,2.46-.79,3.26-1.92L146,87a.63.63,0,0,1,0,.86c-1,.59-1.94,1.21-2.94,1.77-.38.21-.84.48-1.21-.07C142,89.43,142.13,89.28,142.24,89.12Z"/><path class="cls-83" d="M146.05,87.88c0-.29,0-.57,0-.86l.21,0,2.21-1C148.19,87.31,146.89,87.3,146.05,87.88Z"/></g></g></svg>