<svg xmlns="http://www.w3.org/2000/svg" viewBox="0 0 270 120.5"><defs><style>.cls-1{fill:none;stroke:#000;stroke-miterlimit:10;}</style></defs><title>middle</title><g id="Layer_2" data-name="Layer 2"><g id="Layer_1-2" data-name="Layer 1"><path class="cls-1" d="M18.5,0V45L2.5,61v53a2,2,0,1,1-2,2,2,2,0,0,1,2-2"/><path class="cls-1" d="M27.5,5V56l-10,16V91a2,2,0,1,1-2,2,2,2,0,0,1,2-2"/><path class="cls-1" d="M51.5,19V59a2,2,0,1,1-2,2,2,2,0,0,1,2-2"/><path class="cls-1" d="M51.5,28l-12,10V75a2,2,0,1,1-2,2,2,2,0,0,1,2-2"/><path class="cls-1" d="M58.5,24V90l6,9h12a2,2,0,1,1,2,2,2,2,0,0,1-2-2"/><path class="cls-1" d="M203.5,48V92l-5,8h-13a2,2,0,1,1-2-2,2,2,0,0,1,2,2"/><path class="cls-1" d="M229.5,33V63l10,11V98a2,2,0,1,1-2,2,2,2,0,0,1,2-2"/><path class="cls-1" d="M236.5,29V51l8,11v7a2,2,0,1,1-2,2,2,2,0,0,1,2-2"/><path class="cls-1" d="M243.5,20l17,24V75l6,8v31a3,3,0,1,1-3,3,2.94,2.94,0,0,1,3-3"/></g></g></svg>