<svg xmlns="http://www.w3.org/2000/svg" viewBox="0 0 307.52 238.97"><defs><style>.cls-1{fill:none;stroke:#000;stroke-miterlimit:10;}</style></defs><title>top</title><g id="Layer_2" data-name="Layer 2"><g id="Layer_1-2" data-name="Layer 1"><line class="cls-1" x1="0.28" y1="30.44" x2="101.28" y2="88.44"/><line class="cls-1" x1="13.28" y1="18.44" x2="133.28" y2="87.44"/><line class="cls-1" x1="21.28" y1="12.44" x2="0.28" y2="26.34"/><line class="cls-1" x1="31.28" y1="7.44" x2="175.28" y2="91.44"/><line class="cls-1" x1="79.28" y1="24.44" x2="183.28" y2="86.44"/><path class="cls-1" d="M89.28,19.44l124,73v13a2,2,0,1,1,0,4,2,2,0,0,1-2-2,2.15,2.15,0,0,1,2-2"/><path class="cls-1" d="M97.28,14.44l125,73v5a1,1,0,0,1,1,1,1,1,0,0,1-1,1,1.06,1.06,0,0,1-1-1,1,1,0,0,1,1-1"/><polyline class="cls-1" points="115.28 14.44 231.28 82.44 231.28 87.44"/><path class="cls-1" d="M120.28,6.44l120,71v16a2,2,0,1,1,0,4,2,2,0,0,1,0-4"/><polyline class="cls-1" points="135.28 5.43 249.28 72.44 249.28 79.44"/><path class="cls-1" d="M156.28,10.44c1,1,102,57,102,57v49a2.72,2.72,0,0,1,2,3,2.57,2.57,0,0,1-2,2c-1.49.28-3-1-3-2s0-3,3-3"/><path class="cls-1" d="M266.28,146.44a1.93,1.93,0,0,0-2,2,2.19,2.19,0,0,0,2,2,2,2,0,0,0,2-2,2,2,0,0,0-2-2v-84s-96-55-97-55l-111,66v6"/><path class="cls-1" d="M179.28,2.44l96,55v92l-4,6v19a3,3,0,1,1-3,3,2.94,2.94,0,0,1,3-3"/><path class="cls-1" d="M275.28,117.44h8v10a2,2,0,1,1-2,2,2,2,0,0,1,2-2"/><path class="cls-1" d="M191.28.44l92,52v9h9v103l-4,5v64a2.72,2.72,0,0,1,2,3,2.54,2.54,0,0,1-2,2,2.73,2.73,0,0,1-3-2,2.94,2.94,0,0,1,3-3"/><polyline class="cls-1" points="228.28 10.44 292.28 47.44 292.28 62.84"/><polyline class="cls-1" points="243.28 10.44 300.28 42.44 300.28 58.44"/><line class="cls-1" x1="261.28" y1="10.44" x2="307.28" y2="36.15"/><line class="cls-1" x1="272.28" y1="6.44" x2="307.28" y2="26.34"/><path class="cls-1" d="M300.28,21.44l-109,65v38h-13a2,2,0,1,1-2-2,2,2,0,0,1,2,2"/><line class="cls-1" x1="289.28" y1="17.44" x2="166.28" y2="91.44"/><line class="cls-1" x1="275.28" y1="15.44" x2="150.28" y2="90.44"/><line class="cls-1" x1="265.28" y1="11.44" x2="142.28" y2="84.44"/><path class="cls-1" d="M248.28,11.44l-128,76v37h8a2,2,0,1,1,2,2,2,2,0,0,1-2-2"/><line class="cls-1" x1="110.28" y1="83.44" x2="231.28" y2="11.44"/><path class="cls-1" d="M204.28,15.44l-119,72v4a2,2,0,1,1-2,2,2,2,0,0,1,2-2"/><polyline class="cls-1" points="196.03 12.04 76.28 82.44 76.28 88.44"/><path class="cls-1" d="M181.28,11.44l-113,66v16a2,2,0,1,1-2,2,2,2,0,0,1,2-2"/><path class="cls-1" d="M156.28,5.44l-106,62v41a2,2,0,1,1-2,2,2,2,0,0,1,2-2"/><path class="cls-1" d="M144.28,1.44l-102,61v80a2,2,0,1,1-2,2,2,2,0,0,1,2-2"/><path class="cls-1" d="M127.28.44l-93,57-1,92,4,6v19a2,2,0,1,1-2,2,2,2,0,0,1,2-2"/><path class="cls-1" d="M33.28,117.44h-8v10a2,2,0,1,1-2,2,2,2,0,0,1,2-2"/><path class="cls-1" d="M22.25,43.06l-7,4.38v116l6,7v64a2,2,0,1,1-2,2,2,2,0,0,1,2-2"/><polyline class="cls-1" points="24.28 52.44 24.28 60.44 15.28 60.44"/><polyline class="cls-1" points="22.4 33 7.28 42.44 7.28 57.44"/><line class="cls-1" x1="21.28" y1="23.04" x2="0.28" y2="36.15"/><polyline class="cls-1" points="271.28 165.18 264.28 165.44 257.28 178.44 249.28 178.44"/><polyline class="cls-1" points="37.28 165.18 44.28 165.44 51.28 178.44 58.28 178.44"/><line class="cls-1" x1="85.28" y1="49.44" x2="158.28" y2="92.44"/><path class="cls-1" d="M.28,20.44l110,63v15a2,2,0,1,1-2,2,2,2,0,0,1,2-2"/></g></g></svg>